<?xml version="1.0" encoding="utf-8" ?>
<svg baseProfile="full" height="100%" version="1.1" viewBox="0,0,800,800" width="100%" xmlns="http://www.w3.org/2000/svg" xmlns:ev="http://www.w3.org/2001/xml-events" xmlns:xlink="http://www.w3.org/1999/xlink"><defs /><line style="fill : none; stroke : black; stroke-width : 1; stroke-dasharray : 16.0, 16.0;" x1="-200" x2="800" y1="800" y2="-200" /><line style="fill : none; stroke : black; stroke-width : 1; stroke-dasharray : 1, 8.0;" x1="-200" x2="800" y1="-200" y2="800" /><path d=" M 308.7316658512355, -30.80394149441247   C  279.0007668863379, -52.782321134795104 300.729215576824, 59.155475014444434 278.4468242844983, 88.65921313647607   224.94568102221143, 159.49917368341494 129.92103942024295, 233.08828054558603 64.28681478076274, 292.86135890564583   52.338848969963294, 303.7423695456747 27.45937823266726, 309.3877803384161 20.21339035590688, 323.83236199571223   6.836656396232609, 350.4983362251404 -9.770329388977077, 392.96551414339905 -0.08420003606404158, 421.18235470344524   14.302027985711794, 463.09113865219933 55.296790858675344, 512.5763458686882 92.99649211106549, 535.8581467921222   111.67895581013772, 547.3956759011494 144.82113366713787, 531.643743101687 165.0836596304103, 523.1833016595097   296.9212372504172, 468.1356680449077 562.2366950258807, 463.2529844190027 598.096337248712, 324.9581005695655   632.6273297699697, 191.78723482978762 419.3601747776641, 50.97748634284295 308.7316658512355, -30.80394149441247   Z " style="fill : none; stroke : black; stroke-width : 1; stroke-dasharray : 18, 3, 1, 3, 7, 3, 1, 3;" /><line style="fill : none; stroke : black; stroke-width : 1; stroke-dasharray : none;" x1="200" x2="600" y1="600" y2="600" /></svg>