<?xml version="1.0" encoding="utf-8" ?>
<svg baseProfile="full" height="100%" version="1.1" viewBox="0,0,800,800" width="100%" xmlns="http://www.w3.org/2000/svg" xmlns:ev="http://www.w3.org/2001/xml-events" xmlns:xlink="http://www.w3.org/1999/xlink"><defs /><ellipse cx="400.0" cy="400.0" rx="310.0" ry="193.75" style="fill : none; stroke : black; stroke-width : 1; stroke-dasharray : none;" transform="rotate(-0.0,400.0,400.0)" /><path d=" M 283.75, 368.99999999999994   A 116.25000000000001 72.65625 -0.0 1,0 516.25 369.00000000000006" style="fill : none; stroke : black; stroke-width : 1; stroke-dasharray : none;" /><path d=" M 505.13754086909205, 400.0   A 116.25000000000001 72.65625 -0.0 0,0 294.86245913090795 400.0" style="fill : none; stroke : black; stroke-width : 1; stroke-dasharray : none;" /><ellipse cx="710.0" cy="620.0" rx="31.5" ry="19.6875" style="fill : none; stroke : black; stroke-width : 1; stroke-dasharray : none;" transform="rotate(-0.0,710.0,620.0)" /><path d=" M 698.1875, 616.85   A 11.8125 7.382812499999999 -0.0 1,0 721.8125 616.85" style="fill : none; stroke : black; stroke-width : 1; stroke-dasharray : none;" /><path d=" M 720.6833307657304, 620.0   A 11.8125 7.382812499999999 -0.0 0,0 699.3166692342697 620.0" style="fill : none; stroke : black; stroke-width : 1; stroke-dasharray : none;" /><ellipse cx="607.0" cy="670.0" rx="31.5" ry="19.6875" style="fill : none; stroke : black; stroke-width : 1; stroke-dasharray : none;" transform="rotate(-0.0,607.0,670.0)" /><path d=" M 595.1874999999999, 666.85   A 11.8125 7.382812499999999 -0.0 1,0 618.8125 666.85" style="fill : none; stroke : black; stroke-width : 1; stroke-dasharray : none;" /><path d=" M 617.6833307657303, 670.0   A 11.8125 7.382812499999999 -0.0 0,0 596.3166692342696 670.0" style="fill : none; stroke : black; stroke-width : 1; stroke-dasharray : none;" /><ellipse cx="681.0" cy="701.0" rx="31.5" ry="19.6875" style="fill : none; stroke : black; stroke-width : 1; stroke-dasharray : none;" transform="rotate(-0.0,681.0,701.0)" /><path d=" M 669.1875, 697.85   A 11.8125 7.382812499999999 -0.0 1,0 692.8125 697.85" style="fill : none; stroke : black; stroke-width : 1; stroke-dasharray : none;" /><path d=" M 691.6833307657303, 701.0   A 11.8125 7.382812499999999 -0.0 0,0 670.3166692342696 701.0" style="fill : none; stroke : black; stroke-width : 1; stroke-dasharray : none;" /><ellipse cx="650.0" cy="150.0" rx="65.00000000000001" ry="40.625" style="fill : none; stroke : black; stroke-width : 1; stroke-dasharray : none;" transform="rotate(-0.0,650.0,150.0)" /><path d=" M 598.0, 143.5   A 52.0 32.5 -0.0 1,0 702.0 143.5" style="fill : none; stroke : black; stroke-width : 1; stroke-dasharray : none;" /><path d=" M 700.9493866498901, 150.0   A 52.0 32.5 -0.0 0,0 599.0506133501099 150.0" style="fill : none; stroke : black; stroke-width : 1; stroke-dasharray : none;" /><ellipse cx="150.0" cy="150.0" rx="65.00000000000001" ry="40.625" style="fill : none; stroke : black; stroke-width : 1; stroke-dasharray : none;" transform="rotate(-0.0,150.0,150.0)" /><path d=" M 137.0, 143.5   A 13.000000000000009 8.125 -0.0 1,0 163.0 143.5" style="fill : none; stroke : black; stroke-width : 1; stroke-dasharray : none;" /><path d=" M 157.79999999999998, 150.0   A 13.000000000000009 8.125 -0.0 0,0 142.20000000000002 150.0" style="fill : none; stroke : black; stroke-width : 1; stroke-dasharray : none;" /><ellipse cx="110.00000000000001" cy="620.0" rx="88.99999999999999" ry="55.625" style="fill : none; stroke : black; stroke-width : 1; stroke-dasharray : 16.0, 16.0;" transform="rotate(-0.0,110.00000000000001,620.0)" /><path d=" M 78.85000000000004, 611.1   A 31.149999999999984 19.46875 -0.0 1,0 141.14999999999998 611.1" style="fill : none; stroke : black; stroke-width : 1; stroke-dasharray : 16.0, 16.0;" /><path d=" M 137.7046007009666, 620.0   A 31.149999999999984 19.46875 -0.0 0,0 82.2953992990334 620.0" style="fill : none; stroke : black; stroke-width : 1; stroke-dasharray : 16.0, 16.0;" /></svg>