<?xml version="1.0" encoding="utf-8" ?>
<svg baseProfile="full" height="100%" version="1.1" viewBox="0,0,1260.0,1260.0" width="100%" xmlns="http://www.w3.org/2000/svg" xmlns:ev="http://www.w3.org/2001/xml-events" xmlns:xlink="http://www.w3.org/1999/xlink"><defs /><path d=" M 932.0404240757675, 628.0173419597049   C  944.0546796535197, 585.7049643784885 1021.983603577951, 538.9796726040795 1002.6002509760136, 499.49593828763045   986.4011460886719, 466.4984911137002 919.7612841347659, 521.8022769368254 883.9330557673085, 530.0230172439227   882.992813132338, 530.2387546911802 883.5818738011156, 527.7758972163953 883.1897086091716, 526.8945316163217   877.9218618349732, 515.0553907934947 864.5117321758438, 500.62066739173565 865.0903967052378, 487.6753743312606   866.9150310354568, 446.8565148141193 889.6906896860655, 394.78952337711087 890.9205326436827, 353.94841578906016   891.1539743307097, 346.19619263214554 873.0309894266169, 360.746747372838 868.7184680588855, 367.19295698381916   833.6834522836481, 419.5621016566061 796.1191359357085, 495.15663361982683 761.3144603027008, 547.6791449669772   756.0453250338352, 555.6306115994145 766.791122378597, 526.1013714913636 769.4804935964495, 516.9494924197764   793.8974592833765, 433.8590228786135 857.1121966633333, 326.64849844742844 851.6655326105563, 240.21616541965636   846.4473233779833, 157.40914926664357 806.5141700261981, 430.2029608157479 768.6669443567648, 504.0393958657096   759.3387127406367, 522.2379125514785 751.7610888485787, 458.8432152109952 750.0466393685723, 438.4652227282493   744.6565197885586, 374.3981168942454 756.5588873882396, 287.478714482384 745.1242472611142, 224.21026702082986   738.016927031957, 184.8851014264913 737.5474712165018, 317.15663451737777 735.3336556115378, 357.0575326316954   733.8584369505627, 383.64626448267865 756.3727670146558, 433.341817717082 732.8305023075237, 445.78764850496054   712.0268374465054, 456.7856937588451 695.9855299780644, 404.4760778047791 684.8007464344361, 383.77221130264377   664.0442074511849, 345.35031333033925 636.6016962506634, 207.48937350262295 627.1249418843154, 250.11879152629888   614.9677099687007, 304.8058395711272 670.4602883270843, 374.90233768913276 674.3485885641147, 430.78930068565023   675.2997424982335, 444.46033982348354 645.5205211744677, 414.71615564083913 637.7894553313105, 403.401005361531   621.5597052807109, 379.64722230706604 611.1014210443279, 341.63687055624024 596.4992075565794, 316.8493261566483   588.5935752700437, 303.429359966333 576.8548092341658, 269.2821377407825 563.2918489787053, 276.93985433960745   548.4497649742461, 285.3197707370136 562.9419655081249, 317.0344771890141 566.7436676465306, 333.64945589119066   569.982905600154, 347.8062382090454 580.4923869542467, 364.6211371984259 586.3908775269349, 377.89196826054206   597.4545472350785, 402.7837757178037 618.9142385530869, 433.971256069862 623.2842003134318, 460.85824735028245   624.6999667552712, 469.56901006730993 605.3170459645501, 450.7969522622109 597.5570718139195, 446.59402674398666   580.6033140658845, 437.4116016887153 534.8281564049339, 397.9439915784011 540.9069284267769, 416.2414056684082   556.1742664232187, 462.1968723924761 611.3043411021537, 505.76330361752025 631.7914516018623, 549.6412574747507   635.1116506563711, 556.7522427409565 614.2955098419658, 559.6688152838459 606.7956482685051, 557.3575581374672   581.495327135475, 549.5606744947988 552.0299431639925, 528.7294368742049 527.9849284621664, 517.6508579057303   515.3875226774012, 511.84668783076495 498.65496548488045, 501.72295397559054 484.79669310103185, 501.1473592394975   459.88520858670034, 500.11267620271263 426.79953231507426, 507.04238041623955 402.45719920849706, 512.4371416364257   400.4631570731975, 512.8790623486201 405.5552441968796, 517.315915841978 404.3618041864032, 518.9733834569288   382.5721894976497, 549.2351313217808 335.47718519605974, 580.2024119043051 327.4437043987051, 616.6170226862255   323.7145794618326, 633.5206086359277 359.7683505108771, 641.6802966767992 375.91474120439227, 647.9198205629735   410.64265252372684, 661.3398867751059 485.76010396404956, 645.5492699907297 495.38348163447125, 681.5147618399178   503.6644825232624, 712.4633830173185 418.5810398754449, 688.6538660344411 391.31493502053104, 705.4750328947769   382.5675146235802, 710.871543282952 399.76798634638925, 734.0345307804564 410.0453116974602, 734.1620909580499   456.4958926642405, 734.7386265988944 517.6893388020903, 719.4857733723455 562.5974677283942, 707.6009586142166   590.0523021297078, 700.3351110076467 623.3125881077024, 681.0061795444755 649.7828849029962, 670.7161911569941   654.7069757646415, 668.8020139878797 639.1093334349027, 676.8847203948545 634.5870337175554, 679.6159381296712   627.0461386942237, 684.1702196924589 613.4271730389323, 687.077553467776 609.5744328239858, 694.9998619155828   597.5840174208962, 719.6555002251923 590.217373021953, 756.0593659674206 584.3836326510958, 782.8481329281891   583.9338404025173, 784.9135967579001 591.767642189779, 778.4139319037048 590.9821333453115, 780.3764378919731   573.7607701994025, 823.4020874922624 548.4753743395556, 879.8298798808993 528.7755715125028, 921.7786538880783   521.4273083603825, 937.4260506168552 489.4245942752457, 985.1409425972729 500.8951012254489, 972.2078275028387   556.0524275061472, 910.0173722608502 619.2269229863335, 818.27589011753 675.1337325013367, 756.7583152669692   680.3265370026002, 751.0443648133115 674.7685769038832, 774.8423969095376 673.3604807022556, 782.4339523142066   670.1183249782365, 799.9135852973837 664.9595252991298, 823.1169322864039 659.6768958204793, 840.091706769638   650.6364674438764, 869.141488425698 633.3342819838581, 906.1916879575608 625.6827277147462, 935.6377891725617   623.1667907164518, 945.3200750058348 618.0633787606614, 974.820541837233 626.1853134008944, 968.9800987344906   639.4329918423729, 959.4537585694752 642.4855832700011, 934.5387542956144 648.3736046485108, 919.3208915917189   669.2126755858751, 865.461352025675 673.7386066772383, 778.9628597854688 715.2428661623943, 738.8067478672615   737.5246838903876, 717.2486914767746 698.0932939137268, 841.2060589488034 729.0969874653067, 841.2195777743532   760.4358776522151, 841.2332427587737 733.88698240448, 711.8036161767011 749.7660219422505, 738.8218013162849   790.3664284799057, 807.9033914192312 786.4968144618448, 923.7906237101561 820.3179952881658, 996.4321189431677   836.103454874317, 1030.3362984916803 812.4623355325195, 909.4535797324172 811.8007148291558, 872.0605806116102   811.2400131009291, 840.3712469435112 813.7903813891523, 798.1053852877014 816.2497619238899, 766.5066558489802   816.3495003654622, 765.2251916813304 819.3383687437033, 763.7473916397298 820.1535605742376, 764.741152400239   827.397505330211, 773.5718935585062 829.7176065788562, 794.5981897078642 840.9577491379391, 796.626962805922   857.0263629941452, 799.5272437715051 875.933884851956, 774.7446971361026 891.9911128789373, 777.7073663766198   928.1736470602592, 784.3832933101378 971.0359142168694, 842.3148738495888 1004.3893120548341, 826.781212566213   1029.8654565783013, 814.9162205268286 935.2546046205156, 775.3756018181714 949.2841177599312, 751.0243238856642   962.2533059659547, 728.5134709839627 1051.4723026241404, 796.9303756617521 1030.081438753463, 782.1869268131464   973.0841708511938, 742.9021036798781 887.4707392533555, 705.9843904044801 829.3592996239136, 668.3672870985508   824.6735732496528, 665.3340899482503 820.4939846328601, 651.0718669680871 825.9850945248755, 650.0698546124522   866.015099524888, 642.765218501552 921.6582348044855, 652.5387671733514 961.4971187505772, 644.2549072672734   971.3764916812671, 642.2006493862425 929.284208923079, 637.7243117740968 932.0404240757675, 628.0173419597049   Z " style="fill : none; stroke : black; stroke-width : 1; stroke-dasharray : none;" /></svg>