<?xml version="1.0" encoding="utf-8" ?>
<svg baseProfile="full" height="100%" version="1.1" viewBox="0,0,1260.0,1260.0" width="100%" xmlns="http://www.w3.org/2000/svg" xmlns:ev="http://www.w3.org/2001/xml-events" xmlns:xlink="http://www.w3.org/1999/xlink"><defs /><path d=" M 858.9335469334769, 503.59479780968434   C  850.8387383191052, 446.2468545881366 874.9660953117651, 359.27454246172226 842.6232442887488, 311.23026594569865   823.2246869924868, 282.41432606178734 745.9610985712859, 278.41845854343217 726.8946432182682, 307.45520589641467   692.5794767206896, 359.7145693447977 764.4565888410397, 486.6223251864938 708.7809949051251, 515.0617337540061   661.5241291253553, 539.2008083201065 663.4287621335585, 392.7439740897756 620.2137091031051, 361.94843097376565   583.2318385609252, 335.5947252872347 461.97598087499387, 300.0470775437153 469.8203334760854, 344.7756219474917   484.1349436368685, 426.3976127935227 600.6148373109668, 487.2902628299977 653.3991455520525, 551.1719836680811   655.5265266249573, 553.7466269350691 650.8933190227426, 558.7449876462459 648.7017989537154, 561.2652610378944   635.5522093569411, 576.3874409532074 621.5995966635055, 603.2461273750656 602.5934898856641, 609.5990744946295   540.6343076222407, 630.3094394889932 381.2933274217577, 583.3550093033057 388.2985016156606, 648.3071995624875   395.5990762076936, 715.9983513850638 558.3312841093468, 647.6289114419236 611.3074083109041, 690.3947937433807   668.3827301962253, 736.4698234827905 671.4434855958589, 852.7591241302086 714.829104027212, 911.9046129449067   744.5797859069743, 952.4622605242141 799.5021963143719, 1001.0837653742958 848.2638389284339, 1013.4258907608169   870.6687273927724, 1019.0968224168014 884.5052651516876, 972.9244956489956 903.4158143012552, 959.638050533462   929.1282789914846, 941.5726179439679 989.5110416349124, 940.7330693105029 995.6045237256938, 909.9051571025511   1001.6767249054029, 879.1849084683105 929.1721565228529, 860.7183028573324 929.1580945612708, 829.4036879694297   929.1409143019632, 791.144928638563 1003.6717352960015, 757.8807924139533 995.519470831722, 720.5006700920168   987.6559792339563, 684.4446418449037 910.8573562499595, 686.552689652686 891.1930533171376, 655.3247075976291   866.3958121540944, 615.9453405943917 865.4378044387101, 549.6744283331531 858.9335469334769, 503.59479780968434   Z " style="fill : none; stroke : black; stroke-width : 1; stroke-dasharray : none;" /></svg>