<?xml version="1.0" encoding="utf-8" ?>
<svg baseProfile="full" height="100%" version="1.1" viewBox="0,0,721,721" width="100%" xmlns="http://www.w3.org/2000/svg" xmlns:ev="http://www.w3.org/2001/xml-events" xmlns:xlink="http://www.w3.org/1999/xlink"><defs /><line style="fill : none; stroke : black; stroke-width : 3; stroke-dasharray : none;" x1="60.0" x2="690.0000000000001" y1="661.0" y2="661.0" /><path d=" M 21.6, 8.55204499003078  0, 0  21.6, -8.55204499003078   C  21.6, -8.55204499003078 18.576, -3.6773793457132347 18.576, 0   18.576, 3.6773793457132347 21.6, 8.55204499003078 21.6, 8.55204499003078   Z " style="fill : black; stroke : black; stroke-width : 3; stroke-dasharray : none;" transform="translate(690.0000000000001,661.0) rotate(180.0,0,0)" /><line style="fill : none; stroke : black; stroke-width : 3; stroke-dasharray : none;" x1="60.0" x2="60.0" y1="661.0" y2="30.999999999999886" /><path d=" M 21.6, 8.55204499003078  0, 0  21.6, -8.55204499003078   C  21.6, -8.55204499003078 18.576, -3.6773793457132347 18.576, 0   18.576, 3.6773793457132347 21.6, 8.55204499003078 21.6, 8.55204499003078   Z " style="fill : black; stroke : black; stroke-width : 3; stroke-dasharray : none;" transform="translate(60.0,30.999999999999886) rotate(90.0,0,0)" /><line style="fill : none; stroke : black; stroke-width : 2; stroke-dasharray : 14.400000000000002, 14.400000000000002;" x1="60.0" x2="660.0" y1="661.0" y2="61.0" /><polyline points="60.0,661.0 72.24489795918367,613.0199916701374 84.48979591836735,567.0391503540192 96.73469387755101,523.0574760516452 108.9795918367347,481.0749687630154 121.22448979591836,441.09162848812997 133.46938775510205,403.1074552269888 145.71428571428572,367.12244897959187 157.9591836734694,333.1366097459392 170.20408163265304,301.1499375260309 182.44897959183672,271.16243231986675 194.69387755102042,243.174094127447 206.9387755102041,217.18492294877137 219.1836734693877,193.1949187838402 231.42857142857142,171.20408163265301 243.6734693877551,151.2124114952103 255.9183673469388,133.2199083715119 268.16326530612247,117.22657226155764 280.4081632653061,103.23240316534782 292.65306122448976,91.23740108288212 304.89795918367344,81.24156601416087 317.14285714285717,73.24489795918373 329.3877551020408,67.24739691795082 341.63265306122446,63.24906289046237 353.87755102040813,61.24989587671803 366.1224489795918,61.24989587671803 378.3673469387754,63.24906289046237 390.61224489795916,67.24739691795082 402.85714285714283,73.24489795918362 415.1020408163265,81.24156601416075 427.3469387755101,91.237401082882 439.5918367346938,103.2324031653477 451.83673469387753,117.22657226155764 464.0816326530612,133.2199083715119 476.3265306122449,151.2124114952103 488.5714285714285,171.20408163265301 500.8163265306122,193.19491878383997 513.0612244897959,217.18492294877132 525.3061224489795,243.1740941274469 537.5510204081631,271.1624323198666 549.7959183673469,301.14993752603067 562.0408163265306,333.13660974593904 574.2857142857142,367.1224489795917 586.530612244898,403.10745522698875 598.7755102040816,441.09162848812974 611.0204081632653,481.07496876301525 623.265306122449,523.057476051645 635.5102040816327,567.0391503540191 647.7551020408164,613.0199916701374 659.9999999999999,660.9999999999998" style="fill : none; stroke : black; stroke-width : 4; stroke-dasharray : none;" /><line style="fill : none; stroke : black; stroke-width : 3; stroke-dasharray : 12, 4;" x1="122.94600000000001" x2="122.94600000000001" y1="661.0" y2="598.054" /><polyline points="122.94600000000001,598.054 122.94600000000001,435.63065944 285.36934056,435.63065944" style="fill : none; stroke : black; stroke-width : 3; stroke-dasharray : 12, 4;" /><path d=" M 10.08, 3.99095432868103  0, 0  10.08, -3.99095432868103   C  10.08, -3.99095432868103 10.08, -1.995477164340515 10.08, 0   10.08, 1.995477164340515 10.08, 3.99095432868103 10.08, 3.99095432868103   Z " style="fill : black; stroke : black; stroke-width : 3; stroke-dasharray : none;" transform="translate(122.94600000000001,516.84232972) rotate(90.0,0,0)" /><path d=" M 10.08, 3.99095432868103  0, 0  10.08, -3.99095432868103   C  10.08, -3.99095432868103 10.08, -1.995477164340515 10.08, 0   10.08, 1.995477164340515 10.08, 3.99095432868103 10.08, 3.99095432868103   Z " style="fill : black; stroke : black; stroke-width : 3; stroke-dasharray : none;" transform="translate(204.15767028,435.63065944) rotate(180.0,0,0)" /><polyline points="285.36934056,435.63065944 285.36934056,98.13156885632839 622.8684311436716,98.13156885632839" style="fill : none; stroke : black; stroke-width : 3; stroke-dasharray : 12, 4;" /><path d=" M 10.08, 3.99095432868103  0, 0  10.08, -3.99095432868103   C  10.08, -3.99095432868103 10.08, -1.995477164340515 10.08, 0   10.08, 1.995477164340515 10.08, 3.99095432868103 10.08, 3.99095432868103   Z " style="fill : black; stroke : black; stroke-width : 3; stroke-dasharray : none;" transform="translate(285.36934056,266.88111414816416) rotate(90.0,0,0)" /><path d=" M 10.08, 3.99095432868103  0, 0  10.08, -3.99095432868103   C  10.08, -3.99095432868103 10.08, -1.995477164340515 10.08, 0   10.08, 1.995477164340515 10.08, 3.99095432868103 10.08, 3.99095432868103   Z " style="fill : black; stroke : black; stroke-width : 3; stroke-dasharray : none;" transform="translate(454.11888585183584,98.13156885632839) rotate(180.0,0,0)" /><polyline points="622.8684311436716,98.13156885632839 622.8684311436716,521.6654139462349 199.33458605376507,521.6654139462349" style="fill : none; stroke : black; stroke-width : 3; stroke-dasharray : 12, 4;" /><path d=" M 10.08, 3.99095432868103  0, 0  10.08, -3.99095432868103   C  10.08, -3.99095432868103 10.08, -1.995477164340515 10.08, 0   10.08, 1.995477164340515 10.08, 3.99095432868103 10.08, 3.99095432868103   Z " style="fill : black; stroke : black; stroke-width : 3; stroke-dasharray : none;" transform="translate(622.8684311436716,309.8984914012816) rotate(270.0,0,0)" /><path d=" M 10.08, 3.99095432868103  0, 0  10.08, -3.99095432868103   C  10.08, -3.99095432868103 10.08, -1.995477164340515 10.08, 0   10.08, 1.995477164340515 10.08, 3.99095432868103 10.08, 3.99095432868103   Z " style="fill : black; stroke : black; stroke-width : 3; stroke-dasharray : none;" transform="translate(411.1015085987184,521.6654139462349) rotate(0.0,0,0)" /><polyline points="199.33458605376507,521.6654139462349 199.33458605376507,233.0891682567668 487.9108317432332,233.0891682567668" style="fill : none; stroke : black; stroke-width : 3; stroke-dasharray : 12, 4;" /><path d=" M 10.08, 3.99095432868103  0, 0  10.08, -3.99095432868103   C  10.08, -3.99095432868103 10.08, -1.995477164340515 10.08, 0   10.08, 1.995477164340515 10.08, 3.99095432868103 10.08, 3.99095432868103   Z " style="fill : black; stroke : black; stroke-width : 3; stroke-dasharray : none;" transform="translate(199.33458605376507,377.3772911015009) rotate(90.0,0,0)" /><path d=" M 10.08, 3.99095432868103  0, 0  10.08, -3.99095432868103   C  10.08, -3.99095432868103 10.08, -1.995477164340515 10.08, 0   10.08, 1.995477164340515 10.08, 3.99095432868103 10.08, 3.99095432868103   Z " style="fill : black; stroke : black; stroke-width : 3; stroke-dasharray : none;" transform="translate(343.6227088984991,233.0891682567668) rotate(180.0,0,0)" /><polyline points="487.9108317432332,233.0891682567668 487.9108317432332,170.0745391816381 550.9254608183619,170.0745391816381" style="fill : none; stroke : black; stroke-width : 3; stroke-dasharray : 12, 4;" /><path d=" M 10.08, 3.99095432868103  0, 0  10.08, -3.99095432868103   C  10.08, -3.99095432868103 10.08, -1.995477164340515 10.08, 0   10.08, 1.995477164340515 10.08, 3.99095432868103 10.08, 3.99095432868103   Z " style="fill : black; stroke : black; stroke-width : 3; stroke-dasharray : none;" transform="translate(487.9108317432332,201.5818537192024) rotate(90.0,0,0)" /><path d=" M 10.08, 3.99095432868103  0, 0  10.08, -3.99095432868103   C  10.08, -3.99095432868103 10.08, -1.995477164340515 10.08, 0   10.08, 1.995477164340515 10.08, 3.99095432868103 10.08, 3.99095432868103   Z " style="fill : black; stroke : black; stroke-width : 3; stroke-dasharray : none;" transform="translate(519.4181462807976,170.0745391816381) rotate(180.0,0,0)" /><polyline points="550.9254608183619,170.0745391816381 550.9254608183619,304.0168772580257" style="fill : none; stroke : black; stroke-width : 3; stroke-dasharray : 12, 4;" /><circle cx="550.9254608183619" cy="304.0168772580257" r="6.0" style="fill : black; stroke : black; stroke-width : 3; stroke-dasharray : none;" /><path d=" M 10.08, 3.99095432868103  0, 0  10.08, -3.99095432868103   C  10.08, -3.99095432868103 10.08, -1.995477164340515 10.08, 0   10.08, 1.995477164340515 10.08, 3.99095432868103 10.08, 3.99095432868103   Z " style="fill : black; stroke : black; stroke-width : 3; stroke-dasharray : none;" transform="translate(550.9254608183619,201.5818537192024) rotate(270.0,0,0)" /></svg>