<?xml version="1.0" encoding="utf-8" ?>
<svg baseProfile="full" height="100%" version="1.1" viewBox="0,0,800,800" width="100%" xmlns="http://www.w3.org/2000/svg" xmlns:ev="http://www.w3.org/2001/xml-events" xmlns:xlink="http://www.w3.org/1999/xlink"><defs /><path d=" M 200, 200   C  200.0, 200.0 265.83592135001265, 100.0 400.0, 100.0   534.1640786499873, 100.0 600.0, 200.0 600, 200  " style="fill : none; stroke : black; stroke-width : 1; stroke-dasharray : none;" /><path d=" M 16.0, 6.3348481407635395  0, 0  16.0, -6.3348481407635395   C  16.0, -6.3348481407635395 13.76, -2.7239847005283218 13.76, 0   13.76, 2.7239847005283218 16.0, 6.3348481407635395 16.0, 6.3348481407635395   Z " style="fill : black; stroke : black; stroke-width : 1; stroke-dasharray : none;" transform="translate(600,200) rotate(236.6407231367706,0,0)" /><path d=" M 200, 300   C  200.0, 300.0 277.6235316737732, 260.0 400.0, 260.0   522.3764683262268, 260.0 600.0, 300.0 600, 300  " style="fill : none; stroke : black; stroke-width : 1; stroke-dasharray : none;" /><path d=" M 16.0, 6.3348481407635395  0, 0  16.0, -6.3348481407635395   C  16.0, -6.3348481407635395 13.76, -2.7239847005283218 13.76, 0   13.76, 2.7239847005283218 16.0, 6.3348481407635395 16.0, 6.3348481407635395   Z " style="fill : black; stroke : black; stroke-width : 1; stroke-dasharray : none;" transform="translate(600,300) rotate(207.26239780801336,0,0)" /><path d=" M 200, 400   C  200.0, 400.0 230.2943725152286, 200.0 400.0, 200.0   569.7056274847714, 200.0 600.0, 400.0 600, 400  " style="fill : none; stroke : black; stroke-width : 1; stroke-dasharray : none;" /><path d=" M 16.0, 6.3348481407635395  0, 0  16.0, -6.3348481407635395   C  16.0, -6.3348481407635395 13.76, -2.7239847005283218 13.76, 0   13.76, 2.7239847005283218 16.0, 6.3348481407635395 16.0, 6.3348481407635395   Z " style="fill : black; stroke : black; stroke-width : 1; stroke-dasharray : none;" transform="translate(600,400) rotate(261.3867764434512,0,0)" /><path d=" M 200, 500   C  200.0, 500.0 270.7560446287719, 580.0 400.0, 580.0   529.2439553712281, 580.0 600.0, 500.0 600, 500  " style="fill : none; stroke : black; stroke-width : 1; stroke-dasharray : none;" /><path d=" M 16.0, 6.3348481407635395  0, 0  16.0, -6.3348481407635395   C  16.0, -6.3348481407635395 13.76, -2.7239847005283218 13.76, 0   13.76, 2.7239847005283218 16.0, 6.3348481407635395 16.0, 6.3348481407635395   Z " style="fill : black; stroke : black; stroke-width : 1; stroke-dasharray : none;" transform="translate(600,500) rotate(131.49116994576642,0,0)" /><path d=" M 200, 600   C  200.0, 600.0 280.0, 600.0 400.0, 600.0   520.0, 600.0 600.0, 600.0 600, 600  " style="fill : none; stroke : black; stroke-width : 1; stroke-dasharray : none;" /><path d=" M 16.0, 6.3348481407635395  0, 0  16.0, -6.3348481407635395   C  16.0, -6.3348481407635395 13.76, -2.7239847005283218 13.76, 0   13.76, 2.7239847005283218 16.0, 6.3348481407635395 16.0, 6.3348481407635395   Z " style="fill : black; stroke : black; stroke-width : 1; stroke-dasharray : none;" transform="translate(600,600) rotate(180.0,0,0)" /><path d=" M 650.0, 650.0   C  650.0, 650.0 442.7050983124842, 692.7050983124842 275.0, 525.0   107.29490168751579, 357.2949016875158 150.0, 150.0 150.0, 150.0  " style="fill : none; stroke : black; stroke-width : 1; stroke-dasharray : 16.0, 16.0;" /><path d=" M 16.0, 6.3348481407635395  0, 0  16.0, -6.3348481407635395   C  16.0, -6.3348481407635395 13.76, -2.7239847005283218 13.76, 0   13.76, 2.7239847005283218 16.0, 6.3348481407635395 16.0, 6.3348481407635395   Z " style="fill : black; stroke : black; stroke-width : 1; stroke-dasharray : none;" transform="translate(150.0,150.0) rotate(101.6407231367706,0,0)" /></svg>