<?xml version="1.0" encoding="utf-8" ?>
<svg baseProfile="full" height="100%" version="1.1" viewBox="0,0,801,801" width="100%" xmlns="http://www.w3.org/2000/svg" xmlns:ev="http://www.w3.org/2001/xml-events" xmlns:xlink="http://www.w3.org/1999/xlink"><defs /><line style="fill : none; stroke : black; stroke-width : 1; stroke-dasharray : 16.02, 16.02;" x1="-200" x2="800" y1="801" y2="-199" /><line style="fill : none; stroke : black; stroke-width : 1; stroke-dasharray : 1, 8.01;" x1="-200" x2="800" y1="-199" y2="801" /><path d=" M 513.1983650842279, 218.78905778416117   C  502.1116901757083, 193.98929436055508 464.71782842047094, 173.13594577792762 458.3741944579583, 146.72191665430307   451.4534060675952, 117.90469498265931 501.9802446424211, 47.01450671725774 472.4058938920793, 48.93475527215844   347.47609203227313, 57.04638800115593 164.98940191008094, 86.18072054169994 73.56489340977706, 171.70740189751098   5.603708957590584, 235.2843864780333 -54.31926239421993, 414.82252027646933 15.438018463301884, 476.42347260564117   124.60706086485443, 572.8279897274441 352.4837604612209, 520.4352869359296 496.07154463989536, 544.8127145077304   522.6468832397845, 549.3245077331816 558.660659630379, 586.7843723169952 581.5407412487449, 572.5328192456664   606.7690070682174, 556.8186283952632 611.4262833828028, 505.65473079130766 605.7883128304645, 476.472296376204   590.2064597515425, 395.8197989358209 546.7230964231151, 293.78046980846926 513.1983650842279, 218.78905778416117   Z " style="fill : none; stroke : black; stroke-width : 1; stroke-dasharray : 18, 3, 1, 3, 7, 3, 1, 3;" /><line style="fill : none; stroke : black; stroke-width : 1; stroke-dasharray : none;" x1="200" x2="600" y1="601" y2="601" /></svg>