<?xml version="1.0" encoding="utf-8" ?>
<svg baseProfile="full" height="100%" version="1.1" viewBox="0,0,800,800" width="100%" xmlns="http://www.w3.org/2000/svg" xmlns:ev="http://www.w3.org/2001/xml-events" xmlns:xlink="http://www.w3.org/1999/xlink"><defs /><line style="fill : none; stroke : black; stroke-width : 1; stroke-dasharray : 16.0, 16.0;" x1="-200" x2="800" y1="800" y2="-200" /><line style="fill : none; stroke : black; stroke-width : 1; stroke-dasharray : 1, 8.0;" x1="-200" x2="800" y1="-200" y2="800" /><path d=" M 576.4832852528864, 237.0209847528015   C  573.7067289748294, 155.46331565596708 594.1356557326067, 9.501042067908578 522.500150063461, -29.584978205326706   443.6873763597423, -72.58708507954755 316.36919033772597, 14.333110293948145 234.05723669803427, 50.18526200779547   178.2454888213538, 74.49486910385224 106.80751332976033, 120.41805631558891 68.84785507185968, 168.0097839912911   14.548732630228038, 236.08703143947878 -102.92952180049957, 346.9359697436656 -65.25204704167118, 425.44274788320547   -24.499791719973224, 510.3563013446612 155.04951133148245, 466.4659069872912 235.55048393112443, 515.3601938290894   276.81950879541085, 540.4259722195072 265.9646666475647, 651.9283811935304 314.0903251428055, 655.8458617571177   390.46949686499823, 662.0632088031676 501.21657082075535, 605.2373585803176 541.9012772944469, 540.2974791809163   590.5181904831647, 462.69641595859554 579.5989834779785, 328.54050008043043 576.4832852528864, 237.0209847528015   Z " style="fill : none; stroke : black; stroke-width : 1; stroke-dasharray : 18, 3, 1, 3, 7, 3, 1, 3;" /><line style="fill : none; stroke : black; stroke-width : 1; stroke-dasharray : none;" x1="200" x2="600" y1="600" y2="600" /></svg>