<?xml version="1.0" encoding="utf-8" ?>
<svg baseProfile="full" height="100%" version="1.1" viewBox="0,0,1000,1000" width="100%" xmlns="http://www.w3.org/2000/svg" xmlns:ev="http://www.w3.org/2001/xml-events" xmlns:xlink="http://www.w3.org/1999/xlink"><defs /><polyline points="0.0,500.0 31.25,400.0034414321751 62.5,498.3408107770652 93.75,599.9690285316224 125.0,503.31792165475565 156.25,400.08602396149297 187.5,495.02425936989215 218.75,599.8314162449717 250.0,506.63218973512005 281.25,400.2786281194601 312.5,491.7131870669402 343.75,599.5838732415075 375.0,509.9391546898848 406.25,400.58104181739793 437.5,488.41123990034407 468.75,599.226672106562 500.0,513.2351750097773 531.25,400.99293204836476 562.5,485.122053853971 593.75,598.7602061770057 625.0,516.5166212373579 656.25,401.51384525385174 687.5,481.84925085960776 718.75,598.1849891081179 750.0,519.7798799636462 781.25,402.1432078232232 812.5,478.5964348086211 843.75,597.5016543079687 875.0,523.0213578070754 906.25,402.8803267253577 937.5,475.3671875834848 968.75,596.7109542399332 1000.0,526.2374853703928" style="fill : none; stroke : blue; stroke-width : 1; stroke-dasharray : none;" /><path d=" M 0.0, 500.0   C  0.0, 500.0 3.248286657785078, 483.71077140766613 4.694835680751173, 476.7408140973887   6.065232437099165, 470.13778389361244 7.900963668660156, 461.33478701180377 9.389671361502346, 454.75742093205247   10.71809946338051, 448.8881975924455 12.54382232411348, 441.07274676929273 14.084507042253518, 435.25563456207715   15.361596917807637, 430.4337686622415 17.1662245128484, 424.02523473050627 18.779342723004692, 419.3051500971228   19.986619423840352, 415.7725830676401 21.74684115518907, 411.09037917007726 23.474178403755868, 407.78086970795414   24.58335707378324, 405.6557274945928 26.29782416600948, 402.8132973920085 28.169014084507037, 401.31491324968476   29.295730829097447, 400.41267746576153 31.505022824400108, 399.7750069887974 32.863849765258216, 400.2619457705042   34.684452365278744, 400.91436292928273 36.48482842291049, 403.07128564732494 37.558685446009385, 404.6797237313715   39.34574085844493, 407.3564003483089 41.080560707569, 411.3288736767878 42.25352112676056, 414.3259269985998   43.90386301882047, 418.54274673846174 45.69517049476371, 424.32004587559317 46.948356807511736, 428.67145037813236   48.513523753266696, 434.1061366859081 50.332939917102955, 441.4277167165574 51.64319248826291, 446.9294256357731   53.15023318134619, 453.257441626932 54.98300530214541, 461.73608134442065 56.33802816901407, 468.09838211263605   57.799998937056756, 474.9628402469267 59.63879785276066, 484.13860861756905 61.03286384976525, 491.0171785270805   62.455705298747475, 498.03773164149845 64.29599255347081, 507.4099423649769 65.72769953051643, 514.4286928914727   67.11290993361516, 521.2195002298005 68.95076500725818, 530.2762026330474 70.4225352112676, 537.0487770795729   71.76780084413124, 543.2392215009243 73.59827810008488, 551.4865963418831 75.11737089201877, 557.6366938082895   76.41571065530528, 562.8930653289243 78.23030890488901, 569.8850717262509 79.81220657276995, 575.0631724854313   81.04921294556064, 579.1123241898136 82.8303007314992, 584.4846328656699 84.50704225352112, 588.372350982992   85.65675406091115, 591.0380900755024 87.37650999518509, 594.576766051176 89.2018779342723, 596.834205759417   90.26836705743342, 598.1531370518309 92.20692453411424, 599.8376534502819 93.89671361502347, 599.9845944791651   95.4636838957985, 600.1208554053884 97.51626741801282, 598.7986397371093 98.59154929577464, 597.6507147464395   100.43941534285412, 595.6780119057033 102.15231477426752, 592.4141615723544 103.28638497652582, 589.9605825126648   104.9817397324978, 586.2926553246348 106.7553134431103, 581.1863438921745 107.98122065727699, 577.3360102563007   109.57469119963888, 572.3312324426711 111.38573527274423, 565.560837379796 112.67605633802815, 560.4694700897983   114.20328129735924, 554.4433240307974 116.03206193427688, 546.3568922455121 117.37089201877933, 540.2861108785341   118.84913155141929, 533.5831923270616 120.68624740598426, 524.6169508587877 122.0657276995305, 517.8930127758447   123.50317392852197, 510.88653396892244 125.34335238073945, 501.52906244617503 126.76056338028168, 494.5184626204919   128.1602560153762, 487.5945219039909 129.99953239179695, 478.35692842303666 131.45539906103286, 471.4445810099095   132.81650458816668, 464.9821525002889 134.65054192382806, 456.36867686710985 136.15023474178403, 449.936996530703   137.4677649698917, 444.2865505465104 139.2898559847546, 436.76512349305864 140.8450704225352, 431.1754245946586   142.1079452252064, 426.63644288138283 143.90491576546458, 420.60755739677074 145.53990610328637, 416.1889587098675   146.7268362198843, 412.98125299239365 148.47190431278545, 408.73059318968524 150.23474178403754, 405.79962353417   151.32056919051115, 403.99428002894 153.06933964279517, 401.5661243874868 154.92957746478874, 400.57728588998077   156.17474569528423, 399.9153972499219 158.43057578396233, 400.05786854316506 159.6244131455399, 400.8083969224924   161.49443150467525, 401.9840192422192 163.22543139632893, 404.56126457452194 164.31924882629107, 406.4802799293469   166.06893308534572, 409.5499612740093 167.81962668476135, 413.9565273483929 169.01408450704224, 417.28182569214255   170.64092333008037, 421.8108465942503 172.4408068996451, 427.9783030218767 173.70892018779344, 432.6205571700567   175.25877087823145, 438.29418338625317 177.0822412686405, 445.92401326863074 178.4037558685446, 451.65512753777625   179.89943007843098, 458.14153321721005 181.73411499597415, 466.8262020415335 183.09859154929578, 473.3414690134807   184.5510767652289, 480.2769703466283 186.39058016527477, 489.54434937938714 187.79342723004694, 496.49006116130386   189.20748248335266, 503.49126641011816 191.04756213364814, 512.8354066812146 192.4882629107981, 519.8311774369031   193.8644948467814, 526.5138996811725 195.70114583816002, 535.4244555309857 197.18309859154928, 542.0845311290849   198.5182372099284, 548.0848061796963 200.3459777324808, 556.0764336841254 201.87793427230045, 562.0295005385611   203.16359794809958, 567.0254920144374 204.97246189739346, 573.6678102592185 206.57276995305165, 578.5720814631073   207.79216086458325, 582.3090018095144 209.56115691434627, 587.2637760118254 211.26760563380282, 590.8048945693411   212.39272176881474, 593.1396671175135 214.1038637721592, 596.2506509199245 215.96244131455398, 598.056956178697   217.0499220715075, 599.1138516620933 219.16604183648602, 600.2059097164962 220.65727699530515, 599.9304824835117   222.4040151143443, 599.6078645221323 224.2852203091589, 597.7428905000066 225.3521126760563, 596.3227084402112   227.1638452385448, 593.9110405323453 228.88868215907522, 590.2166522639354 230.0469483568075, 587.431524548551   231.7138287417094, 583.4234003649132 233.49879935779794, 577.903773541642 234.74178403755866, 573.7446223331725   236.31748222005697, 568.4721784272809 238.13391118694648, 561.3591857161714 239.43661971830986, 556.0127439101275   240.95128886141012, 549.79639525344 242.78263945205387, 541.4629340612593 244.131455399061, 535.2085029300005   245.59965874404273, 528.400474949424 247.43788223173658, 519.2977837367679 248.8262910798122, 512.4730356156199   250.25479545270255, 505.4511972367823 252.09510652749768, 496.0757514336312 253.52112676056336, 489.0534081454708   254.91201697061493, 482.20406035597586 256.75050475716944, 473.0679955176632 258.21596244131456, 466.23421365884906   259.567512253419, 459.9316116204755 261.39950536600156, 451.5333277100846 262.9107981220657, 445.2671108646365   264.2168441456238, 439.8519008989225 266.03462175053755, 432.64652844025096 267.6056338028169, 427.30216914095104   268.853151114907, 423.05829288409274 270.6409833269467, 417.4251384491503 272.30046948356807, 413.3247859248578   273.4652552040845, 410.44676729823476 275.1943702435794, 406.63073725485515 276.99530516431923, 404.10163654488576   278.0644294507353, 402.6002369325613 279.9066258748029, 400.60370387570134 281.6901408450704, 400.1386212093672   283.12217356574195, 399.76519367603527 285.28337017916, 400.66487024303797 286.38497652582157, 401.6531158060026   288.25031904916926, 403.3265052864591 289.96169455807984, 406.3193832077362 291.07981220657274, 408.5620485877786   292.7952236321603, 412.00273644551856 294.5604765691124, 416.8386139237703 295.77464788732397, 420.4864567525484   297.3804586676329, 425.310936833294 299.1875265770943, 431.8518235535482 300.4694835680751, 436.77227298271043   302.005210579308, 442.66675083878016 303.83209504844956, 450.58242307178716 305.16431924882625, 456.52620177970164   306.64920491184824, 463.15108652887693 308.48546819250157, 472.0158856487004 309.85915492957747, 478.66471773565263   311.30240628973786, 485.6502521329623 313.14239002802987, 494.9814991968621 314.5539906103286, 501.97349813140545   315.9592917235781, 508.93429427286924 317.7989518236685, 518.2223813217381 319.2488262910798, 525.1740299154651   320.6159062075684, 531.7287071599981 322.4510654192354, 540.46649799448 323.943661971831, 546.9937375955094   325.26822985433904, 552.7861748900505 327.0927169599687, 560.4984191588036 328.63849765258215, 566.2357854480434   329.91059316947104, 570.9573335759036 331.712620104711, 577.2312090474414 333.3333333333333, 581.8447253157943   334.5334924920884, 585.2610939279243 336.2884424975752, 589.7886517186872 338.0281690140845, 592.9643891366809   339.1285826874079, 594.9731099583058 340.85028245113466, 597.6662222832722 342.72300469483565, 598.9848507334484   343.88370653313837, 599.8021286139808 346.1261237024617, 600.1646423070105 347.4178403755869, 599.5758809565319   349.26458011732376, 598.7341414273078 351.03252744776967, 596.4232730156285 352.112676056338, 594.7050611275959   353.8860079348173, 591.8841901003499 355.6266066247909, 587.755244539771 356.8075117370892, 584.6395612408244   358.44908449035677, 580.3084589718137 360.2436542390959, 574.3889397544863 361.5023474178403, 569.9314853856024   363.061852031732, 564.4087569146179 364.8828081266605, 556.9737320361859 366.19718309859155, 551.3875882107789   367.7000603485215, 545.0003025051582 369.53356211100765, 536.444576008524 370.8920187793427, 530.0250235168124   372.35054321530515, 523.1325885975742 374.1896223148808, 513.9206731399825 375.5868544600939, 507.01555221572517   377.0065273834669, 499.99952897122023 378.8467639726876, 490.634189440894 380.28169014084506, 483.6212699155658   381.66368620797846, 476.8670358523794 383.5011392263132, 467.8598301755185 384.9765258215962, 461.12537954429854   386.3181933237066, 455.0012941111232 388.1477401605601, 446.8431771183893 389.6713615023474, 440.76180621324795   390.96523380185545, 435.59745392873197 392.7778829756952, 428.7290401918666 394.36619718309856, 423.64751502469676   395.59703934687514, 419.709657261484 397.3740006887879, 414.48629654398485 399.06103286384973, 410.7212442686862   400.20200854588205, 408.1748594686816 401.91745350206514, 404.79109321487425 403.7558685446009, 402.69201456268854   404.8255362242352, 401.4706817628022 406.8272712890228, 399.9826810975413 408.4507042253521, 400.000238266264   410.0895021462587, 400.01796160484844 412.0769342095001, 401.5509624248046 413.1455399061033, 402.7935623634355   414.98114164607176, 404.9280434135423 416.6974534220346, 408.345994697645 417.8403755868544, 410.9187698580902   419.5250934356772, 414.71115429792934 421.30298903978206, 419.9675985885586 422.53521126760563, 423.9301839000609   424.1220866578801, 429.0332643109644 425.9351775956827, 435.9292398446277 427.2300469483568, 441.11411366603465   428.7526571500675, 447.2109000010834 430.5824148861774, 455.38903329865815 431.92488262910797, 461.52800111098475   433.3994647877971, 468.2711146468545 435.2370097020044, 477.2895708211756 436.6197183098591, 484.05212134639305   438.05393080148207, 491.06656703900126 439.89418091686633, 500.4337396616111 441.3145539906103, 507.45100082085696   442.7110864589753, 514.3504790136193 444.5501062021345, 523.5547053730998 446.0093896713615, 530.4411844461849   447.3670899695635, 536.8482841552241 449.2004344534941, 545.3872412831548 450.7042253521126, 551.761634565228   452.01769539472923, 557.3292800560681 453.83831901093697, 564.7394500889499 455.3990610328638, 570.2429002981837   456.656549563671, 574.6770254904022 458.45041538783346, 580.5652543374342 460.093896713615, 584.8712632502427   461.2730644583535, 587.9607457645182 463.01238556453666, 592.0550883992573 464.7887323943662, 594.844341115739   465.8673803764906, 596.5380541698257 467.64171789934596, 598.8152659573021 469.4835680751173, 599.6150992580192   470.78947311066634, 600.1821955119633 473.02603183743526, 599.7579333801584 474.1784037558685, 598.9218561799453   476.05122834472274, 597.5630709529776 477.7709098618812, 594.8370015075278 478.8732394366197, 592.8026370509223   480.61018609458756, 589.5970780012817 482.36632193277, 585.0352358296392 483.5680751173709, 581.5930879832125   485.1870825491135, 576.9558105322918 486.9896991429802, 570.65195198052 488.262910798122, 565.9080654618451   489.80755184782583, 560.1528543606195 491.6323189375626, 552.4175245790788 492.9577464788732, 546.6079107687781   494.449476788758, 540.0693586869485 496.28476606972924, 531.3168515522809 497.6525821596244, 524.7512592874162   499.1017184672282, 517.7953255166216 500.9414199096125, 508.5017545887668 502.3474178403756, 501.53697315067507   503.75832149214756, 494.5478906280121 505.59827493452116, 485.22070636602865 507.0422535211267, 478.23838229272747   508.4152146549899, 471.5994614211825 510.2513635974095, 462.7480392610374 511.7370892018779, 456.13344085735775   513.0684789780133, 450.2059609368298 514.8951126461858, 442.3121996219869 516.4319248826291, 436.43462996317567   517.7128158107347, 431.5358365538369 519.5193571674965, 425.02402572630893 521.1267605633803, 420.22245173854355   522.3394255510977, 416.6000252363923 524.1035870489106, 411.7980497942485 525.8215962441315, 408.38616255386967   526.9377286386429, 406.1695749558519 528.6494891608739, 403.2100916550222 530.5164319248826, 401.57499630071413   531.6228828151346, 400.6059506795529 533.7958026290746, 399.7628759457188 535.2112676056338, 400.1625531762011   537.0039664268105, 400.66874789793735 538.8360943269637, 402.70148500800013 539.9061032863849, 404.226307288307   541.703963069245, 406.7883574745556 543.4343254856954, 410.63897870449 544.6009389671361, 413.5433571131349   546.2583689418434, 417.66966279103224 548.0469888844959, 423.3348647899983 549.2957746478874, 427.6026518964103   550.8654773574088, 432.9671885375089 552.6836262599892, 440.1985029086671 553.9906103286385, 445.6330233672048   555.5009545587909, 451.91312793395826 557.3331243792613, 460.32946751753167 558.6854460093896, 466.6454851925861   560.1501286884717, 473.4862851053638 561.9886880100224, 482.63143844346064 563.3802816901408, 489.487480000111   564.8055977356628, 496.5096633996705 566.6459058491803, 505.88470686082127 568.075117370892, 512.9060984574264   569.4628199319883, 519.7235659582471 571.3009647635329, 528.8163869796075 572.7699530516431, 535.6168027707349   574.1179875758162, 541.8572849715592 575.9491497344002, 550.1719777848294 577.4647887323943, 556.3738850402572   578.7665390519601, 561.7005721750933 580.5825728392681, 568.7870286150468 582.1596244131455, 574.0387957519492   583.4013021801406, 578.1737286858767 585.1854343539829, 583.6609130657837 586.8544600938967, 587.6425945101778   588.0108510661286, 590.4013179777011 589.7345158729026, 594.0612057710813 591.5492957746479, 596.4390975178067   592.6158373704825, 597.8365785323557 594.5090806583645, 599.6628527326412 596.244131455399, 599.9458066041115   597.7522604681186, 600.1917538372155 599.8547235886887, 599.0471101823425 600.9389671361502, 597.970374796899   602.7953461776012, 596.1268507958515 604.5067004415566, 592.9821659046155 605.6338028169014, 590.6211567721747   607.3377574563391, 587.0517805087746 609.1077883219621, 582.0633703629869 610.3286384976525, 578.3012654772214   611.9274123512259, 573.3745717309055 613.7367705128272, 566.7037094550731 615.0234741784037, 561.6864609280565   616.5543736007288, 555.7170189522849 618.3823498241676, 547.7041542620832 619.7183098591549, 541.68808400582   621.199436197302, 535.0183035667823 623.0361931753622, 526.0951314743567 624.413145539906, 519.4030683754088   625.8531244505326, 512.4046928475387 627.6932283073289, 503.0572910797383 629.1079812206572, 496.0537724293477   630.5101308663211, 489.11264433444654 632.3495865628216, 479.8515451119539 633.8028169014084, 472.92093154303575   635.1665505448482, 466.4171374488349 637.0010960006645, 457.7479295402418 638.4976525821596, 451.2734082862497   639.8182920890347, 445.55995337124637 641.6414646457034, 437.95385527233816 643.1924882629108, 432.2985938715044   644.4594550616571, 427.6790456237556 646.2587101393522, 421.5420589660196 647.887323943662, 417.0372783987982   649.0801366736105, 413.73793291125105 650.8295998665899, 409.36580848605814 652.5821596244131, 406.3265623377207   653.6741556885396, 404.4328495458564 655.4084824017332, 401.88851678086763 657.2769953051643, 400.75394061689735   658.4813399476767, 400.0226527986057 660.7388586320692, 399.94316359485487 661.9718309859155, 400.6250778605663   663.8349170374374, 401.65548616843915 665.5791302111501, 404.11671576128197 666.6666666666666, 405.94704233712343   668.4265612384204, 408.9089493049503 670.1728868255474, 413.1941410640528 671.3615023474179, 416.4279182565814   672.9946609077406, 420.8711303861384 674.7922919456842, 426.93085227169104 676.056338028169, 431.4928176828656   677.610352171378, 437.1012831241416 679.432755710776, 444.64693793203406 680.7511737089201, 450.3154137893921   682.249970882283, 456.75942138352644 684.0841552966259, 465.3889334042577 685.4460093896713, 471.8632658230788   686.901125091116, 478.7809692739173 688.7404542153839, 488.02546067783504 690.1408450704225, 494.9544496510878   691.5573575082958, 501.9632065471964 693.3975164501188, 511.31804154983695 694.8356807511738, 518.3223876405559   696.2144442743657, 525.0374318720195 698.0514604255593, 533.9916531379106 699.5305164319248, 540.6853218788501   700.8685346723355, 546.7407050638675 702.6970907760629, 554.8064307332371 704.225352112676, 560.8166200493965   705.5146525136122, 565.8870483258847 707.3252261063634, 572.6293238535752 708.9201877934272, 577.6120576060111   710.1446711509237, 581.4373999977311 711.9172543758093, 586.5103055238944 713.6150234741784, 590.1503857421449   714.7471195452837, 592.5776419088096 716.4594652022344, 595.8075633095186 718.3098591549295, 597.7438629331959   719.3873211016397, 598.8713467097738 721.4542748637165, 600.1443286397011 723.0046948356807, 599.9759783394661   724.7079670102371, 599.7910307851558 726.6332276532183, 598.0653198602267 727.6995305164319, 596.7242978983013   729.5219187046491, 594.432395036681 731.2427453242673, 590.859332790322 732.3943661971831, 588.1671799713458   734.0688899402875, 584.2526331604438 735.8508573154903, 578.8475912391624 737.0892018779342, 574.7739921860365   738.6697099099149, 569.5748285462914 740.4847230595939, 562.5558317641533 741.7840375586854, 557.2793660886796   743.3021429660079, 551.1143990394485 745.1328182242542, 542.8477062511603 746.4788732394366, 536.6429017706025   747.9498502590674, 529.8622541007405 749.7877896897922, 520.7950755068895 751.1737089201878, 513.9965327143561   752.604706091133, 506.97686281635697 754.4450009242425, 497.60362316983577 755.8685446009389, 490.5824379578743   757.2619089791283, 483.71010272350986 759.1006417638613, 474.54281150160375 760.5633802816901, 467.68490716482904   761.9176383463428, 461.33560266406374 763.7502424796425, 452.87445829687607 765.2582159624413, 446.5598958793929   766.5675454090683, 441.0771452806028 768.3866078220667, 433.7810358143663 769.9530516431925, 428.3661349395953   771.2049981546189, 424.0383919535636 772.9955556218046, 418.29281714585045 774.6478873239436, 414.1015727761285   775.819058954149, 411.130821507045 777.5526050784149, 407.192967328848 779.3427230046948, 404.5486368086274   780.4153802377344, 402.96412652725354 782.2241882152432, 400.84201593838816 784.037558685446, 400.23131641393434   785.4121541488228, 399.76838574996106 787.6119610135759, 400.4653099086798 788.7323943661971, 401.3864215142503   790.6026166838574, 402.92393686736216 792.3160838219163, 405.79953795132485 793.4272300469484, 407.95059328420825   795.1518888436252, 411.28934062314545 796.91324487834, 416.0056291044525 798.1220657276995, 419.56377945433496   799.7335432769609, 424.3071451968853 801.5387241445114, 430.74515851319444 802.8169014084506, 435.5889835865556   804.3564777989317, 441.4234158933739 806.1824638540785, 449.26129573598763 807.5117370892018, 455.1472050515782   808.9995936890092, 461.7353080763539 810.8354460010254, 470.55227055811037 812.206572769953, 477.16565321074575   813.6523900038156, 484.1392918486864 815.4922610518254, 493.45545039512245 816.9014084507043, 500.43659119978656   818.309162474317, 507.41082900130476 820.1489619601783, 516.7174393606973 821.5962441314554, 523.6835816661506   822.9659095611265, 530.2761345789871 824.8015177568122, 539.0649992884577 826.2910798122066, 545.6315008060783   827.6186596437526, 551.4839290060579 829.44411568305, 559.2768047239235 830.9859154929576, 565.0764803520267   832.2619117546511, 569.8763022049937 834.0659782328454, 576.2552439087198 835.6807511737088, 580.9519411130891   836.8864728125229, 584.4588796472696 838.6455484220746, 589.1069513046458 840.37558685446, 592.3870960537831   841.4828063095466, 594.4863789447056 843.1984752663519, 597.2956947597122 845.0704225352113, 598.7547139509677   846.2038582693535, 599.638127984941 848.4218977584633, 600.2158957593613 849.7652582159624, 599.7055237381066   851.5925542236627, 599.0112940161624 853.3849612999501, 596.8198721916783 854.4600938967136, 595.1873724195606   856.2440946593224, 592.4785150682127 857.9801916464746, 588.4714212412302 859.1549295774648, 585.448085721571   860.8033000162318, 581.2057974923322 862.5953470773361, 575.3968682329335 863.8497652582159, 571.0218745699874   865.4136642699265, 565.5675146364267 867.2334293601103, 558.2205992443685 868.544600938967, 552.7000330148537   870.0507131777935, 546.3586872309754 871.8836508711076, 537.8627121401399 873.2394366197182, 531.487534853937   874.700641623514, 524.61665502633 876.5395051562364, 515.4325835486094 877.9342723004694, 508.54790967965215   879.3564120236323, 501.52812273489354 881.1966903865589, 492.15711887472463 882.6291079812206, 485.1394219607432   884.0136087795421, 478.356478902801 885.8513778502803, 469.3104243570601 887.3239436619718, 462.54605380851115   888.6684175730923, 456.37008553906696 890.4986940342754, 448.1421838498646 892.018779342723, 442.0070771011676   893.3161395415574, 436.77089511379677 895.1303171013453, 429.80600665346833 896.7136150234742, 424.64907801520224   897.9492741095105, 420.6244370181709 899.7294703770674, 415.2849413795762 901.4084507042252, 411.42416249534745   902.5562445033793, 408.78483552317 904.2749669842281, 405.2805064748175 906.1032863849764, 403.05773216322234   907.1701363904607, 401.76071218654596 909.1222811131531, 400.11817971548004 910.7981220657276, 400.0086952153275   912.3814497395085, 399.90525470763777 914.4195860941975, 401.2757487864276 915.4929577464789, 402.44429478777727   917.3382206385348, 404.4531745354099 919.0517541720991, 407.75101455596837 920.18779342723, 410.23093548052407   921.880756225306, 413.92659463004844 923.6553078883394, 419.06624319893933 924.8826291079812, 422.94151121663174   926.4746203621864, 427.96822524482064 928.2861283969072, 434.7666176720772 929.5774647887324, 439.87883249520473   931.1036590858712, 445.92081594599085 932.9326611734194, 454.0278020058316 934.2723004694836, 460.1138680265574   935.7497262606167, 466.8259068059338 937.5869400669653, 475.80399862051377 938.9671361502346, 482.53670315256375   940.4038653253277, 489.54518053178094 942.2440619601812, 498.9051109261085 943.6619718309859, 505.91741992499306   945.060965965442, 512.8361806730701 946.9001881453948, 522.0667009599324 948.356807511737, 528.9735595004681   949.7171627995792, 535.4239622309981 951.5510508419508, 544.0212387453602 953.0516431924882, 550.4404664631388   954.3682819414161, 556.0727782288174 956.1900561259854, 563.5698378495108 957.7464788732394, 569.1406566091555   959.0081751652583, 573.6565770973092 960.804475828664, 579.6545240967513 962.4413145539907, 584.0484032912549   963.6265477693985, 587.2300066375318 965.3703523018972, 591.4461142969104 967.1361502347418, 594.3459996891818   968.2203079130945, 596.1264599309205 969.9740180367492, 598.5214537144742 971.830985915493, 599.4686109565714   973.0888142308207, 600.1101735876836 975.3420056222513, 599.9048757125927 976.525821596244, 599.1352560531507   978.3970044310411, 597.9187670652437 980.1249932041942, 595.308619754935 981.2206572769952, 593.3642198736063   982.9674864723972, 590.2642419108736 984.7194014218376, 585.8232651017549 985.9154929577464, 582.4720503003634   987.5405724619901, 577.9188950237306 989.3410757164999, 571.7210749759007 990.6103286384975, 567.0561951930721   992.1590139410843, 561.3643187886203 993.9827781210108, 553.7108991858089 995.3051643192488, 547.9622316956236   996.7999598124386, 541.4640677949222 1000.0, 526.2374853703928 1000.0, 526.2374853703928  " style="fill : none; stroke : black; stroke-width : 1; stroke-dasharray : none;" /><path d=" M 0.0, 700.0   C  0.0, 700.0 3.286643354911971, 699.3409103272555 4.694835680751173, 699.0566107375016   6.103545931526532, 698.7722065840144 7.981483738811999, 698.3913023250791 9.389671361502346, 698.1043216419973   10.798386335805763, 697.8172334876357 12.676324204712332, 697.4327357970634 14.084507042253518, 697.1430487534182   15.493226822408168, 696.8532512515894 17.371164753910335, 696.4651262287645 18.779342723004692, 696.1727073196248   20.188067392635034, 695.8801748839438 22.066005387719024, 695.4883883084219 23.474178403755868, 695.1932117889353   24.882908047803284, 694.8979185909461 26.760846107467135, 694.5024359194374 28.169014084507037, 694.2044758025828   29.57774878924559, 693.9063957694583 31.455686914499033, 693.5071821327801 32.863849765258216, 693.2064121871006   34.27258961831022, 692.90551899932 36.15052781017476, 692.5025391993235 37.558685446009385, 692.1989329466369   38.96743053636113, 691.8952000356416 40.84536879587002, 691.4884185421073 42.25352112676056, 691.181949255197   43.662271544777944, 690.8753498010233 45.54020987297608, 690.4647307485278 46.948356807511736, 690.1553714488105   48.35711264495581, 689.8458783776998 50.235051042899826, 689.4313855624542 51.64319248826291, 689.1191090176274   53.051953838305494, 688.8066949996141 54.92989230706362, 688.3882918762704 56.33802816901407, 688.0730705979372   57.74679512625324, 687.7577080444124 59.62473366690527, 687.3353577228416 61.03286384976525, 687.0171639641139   62.44163651024071, 686.6988250253667 64.31957512387805, 686.2724902674064 65.72769953051643, 685.9512960204854   67.136477991725, 685.6299525832201 69.01441667945039, 685.1995957993893 70.4225352112676, 684.8753727931241   71.83131957217834, 684.5509964779538 73.709258335106, 684.1165797241399 75.11737089201877, 683.7892994215632   76.52616125308826, 683.4618615804798 78.4041000923437, 683.0233465545916 79.81220657276995, 682.6929801504322   81.22100303595728, 682.362451864251 83.0989419526772, 681.9197999028421 84.50704225352112, 681.5863183210146   85.91584492230287, 681.2526703967959 87.79378391763507, 680.8058424716546 89.2018779342723, 680.469216362726   90.61068691365726, 680.1324193311708 92.48862598876055, 679.6813760458791 93.89671361502347, 679.3415757845119   95.30552901156736, 679.0015998973333 97.1834681676114, 678.5463014837928 98.59154929577464, 678.2032971661633   100.0003712175945, 677.8601123934325 101.87831045575972, 677.4005187083576 103.28638497652582, 677.0542801495519   104.69521353331434, 676.7078561770186 106.57315285479169, 676.2439266983968 107.98122065727699, 675.8944234297815   109.39005596031659, 675.5447296561692 111.26799536630747, 675.076423479688 112.67605633802815, 674.7236247462564   114.08489850020483, 674.3706302805314 115.96283799192092, 673.8979061159707 117.37089201877933, 673.5417808736654   118.7797411545963, 673.1854545322793 120.65768073325933, 672.7082706998717 122.0657276995305, 672.348787612881   123.4745839251216, 671.9890979169877 125.35252359196316, 671.5074123437419 126.76056338028168, 671.144539781772   128.1694268134245, 670.7814549544172 130.04736656968583, 670.2952251704089 131.45539906103286, 669.9289312059304   132.86426982116157, 669.5624191692149 134.74220966809332, 669.0716023038411 136.15023474178403, 668.7018547093103   137.5591129500019, 668.3318830815252 139.43705288886397, 667.8364358597252 140.8450704225352, 667.4632021047786   142.25395620162683, 667.0897381975145 144.13189623368805, 666.5896169359518 145.53990610328637, 666.2128641845759   146.94879957772957, 665.8358749998031 148.82673970426742, 665.3310356030156 150.23474178403754, 664.9507307106892   151.6436430800149, 664.5701829378104 153.52158330231524, 664.0605808943209 154.92957746478874, 663.6766904051314   156.3384867101986, 663.2925504180068 158.21642702955538, 662.7781407963981 159.6244131455399, 662.3906309401309   161.03333047000726, 662.0028647940742 162.91127088772222, 661.4836022390275 164.31924882629107, 661.0924389282284   165.72817436117782, 660.701012356974 167.60611487856016, 660.1768510852695 169.01408450704224, 659.7819999122792   170.42301838545706, 659.386878324921 172.30095900382298, 658.8577721213999 173.70892018779344, 658.4591983553617   175.11786254460105, 658.0603468332622 176.99580326527354, 657.5262490467527 178.4037558685446, 657.123917630592   179.81270684037486, 656.7213009242622 181.6906476646833, 656.1821644634653 183.09859154929578, 655.7760400108408   184.50755127455196, 655.3696225367898 186.38549220383155, 654.8253998661266 187.79342723004694, 654.4154466583532   189.2023958489136, 654.0051924959084 191.08033688450513, 653.455835631329 192.4882629107981, 653.0420176142719   193.89724056524835, 652.6278905023685 195.77518170849768, 652.0733510071206 197.18309859154928, 651.6556317880608   198.59208542535148, 651.2375951220001 200.47002667760904, 650.6778241023579 201.87793427230045, 650.2561669468283   203.2869304310243, 649.8341837750067 205.16487179364472, 649.2691318759596 206.57276995305165, 648.8434997045513   207.98177558407357, 648.4175327251562 209.85971705841507, 647.8471501260567 211.26760563380282, 647.4175055111957   212.6766208863108, 646.9875170688715 214.55456247373473, 646.4117534790424 215.96244131455398, 645.9780586417363   217.3714663395516, 645.5440107242173 219.2494080414219, 644.962815378517 220.65727699530515, 644.5250321850709   222.0663119456149, 644.0868864197835 223.94425376329752, 643.5002080741297 225.3521126760563, 643.0582980328322   226.76115770632225, 642.6160156834635 228.6390996411846, 642.0238026103143 230.0469483568075, 641.5777268680918   231.45600362349705, 641.1312688311265 233.33394567690732, 640.5334688149201 234.74178403755866, 640.0831881539596   236.15084969896358, 639.6325149551836 238.02879187229027, 639.0290752877333 239.43661971830986, 638.5745501220745   240.84569593454646, 638.1196219130454 242.72363822915747, 637.5104893888921 244.131455399061, 637.0516797609864   245.54054233206944, 636.59245631547 247.41848474933172, 635.9775772271912 248.8262910798122, 635.5144428044301   250.23538889335487, 635.0508835148038 252.1133314346335, 634.4302036482776 253.52112676056336, 633.9627037194866   254.9302356202224, 633.4947675931081 256.80817828688, 632.8682322227329 258.21596244131456, 632.3963256946338   259.6250825144883, 631.9239713501759 261.5030253078841, 631.2915252340445 262.9107981220657, 630.8151706276842   264.31992957796444, 630.3383562914344 266.19787249945375, 629.6999436664642 267.6056338028169, 629.2190991136097   269.014776812457, 628.7377826157349 270.89271986339037, 628.0933471927497 272.30046948356807, 627.6079704322495   273.70962421976583, 627.1221092030256 275.5875674014882, 626.4715941617932 276.99530516431923, 625.9816425359045   278.40447180168314, 625.4911936019098 280.28241511553284, 624.8345415861315 281.6901408450704, 624.3399720368122   283.0993195599923, 623.8448920170855 284.97726300730056, 623.1820451293393 286.38497652582157, 622.6828141945059   287.79416749646686, 622.1830592966677 289.67211107855667, 621.5139590933027 291.07981220657274, 621.0100229030527   292.48901561286937, 620.5055489193901 294.3669593310547, 619.8301364053739 295.77464788732397, 619.3214506781719   297.18386391095015, 618.8122129816868 299.0618077665348, 618.1304286054032 300.4694835680751, 617.616948644232   301.8787123924459, 617.1029021846514 303.7566563867229, 616.4146858326501 305.16431924882625, 615.896366521125   306.57356105907866, 615.3774658208741 308.4515051933291, 614.6827568125703 309.85915492957747, 614.1595526110159   311.2684099125544, 613.6357517611539 313.1463541880463, 612.9344888434778 314.5539906103286, 612.4063537849693   315.9632589545616, 611.8776064410856 317.8412033725493, 611.1697277830822 319.2488262910798, 610.6366154694476   320.65810818677016, 610.102874847521 322.5360527484927, 609.3883180348975 323.943661971831, 608.850181632683   325.35295761082966, 608.3114005049005 327.23090231751024, 607.5901025345241 328.63849765258215, 607.0468947709206   330.0478072283682, 606.5030254614585 331.92575208121286, 605.7749227358015 333.3333333333333, 605.2265958945325   334.74265704099076, 604.6775902752964 336.6206020411873, 603.9426185968282 338.0281690140845, 603.3891245139989   339.43750705027793, 602.8349340003257 341.3154521989947, 602.0930285658532 342.72300469483565, 601.5343186257601   344.13235725778424, 600.9748941720777 346.0103025561691, 600.2259895670313 347.4178403755869, 599.6620146979313   348.82720766503655, 599.0973067933793 350.7051531142157, 598.3413369860459 352.112676056338, 597.7720476558861   353.5220582735327, 597.2020063198947 355.40000387460947, 596.4389046555958 356.8075117370892, 595.8642508677015   358.2169090847398, 595.2888256455299 360.0948548387933, 594.5185248407447 361.5023474178403, 593.9384561294669   362.91176010009264, 593.3575960876993 364.7897060081768, 592.5800282241329 366.19718309859155, 591.9944936504539   367.60661132099193, 591.4081473724544 369.4845573841339, 590.6232438910495 370.8920187793427, 590.0321920381471   372.30146274880275, 589.4403076194715 374.179408968002, 588.6479993143638 375.5868544600939, 588.0513782831318   376.99631438485284, 587.4539033268975 378.8742607610797, 586.6541203393148 380.28169014084506, 586.0518777438417   381.691166230431, 585.4487593560538 383.56911276462534, 584.6414311681566 384.9765258215962, 584.0335141311604   386.38601828678514, 583.424698915995 388.26396497985496, 582.6097543446598 389.6713615023474, 581.9961094928788   391.08087055512055, 581.381543547923 392.95881740794096, 580.5589107384659 394.36619718309856, 579.9394841980059   395.7757230365984, 579.3191131094526 397.65367005001, 578.4887195292954 399.06103286384973, 577.8634569209314   400.4705757323335, 577.2372257587307 402.3485229071412, 576.3989981910056 403.7558685446009, 575.7678446254386   405.16542864339306, 575.1356979384033 407.04337598036466, 574.2895624754987 408.4507042253521, 573.6524625485664   409.86028177079436, 573.0143443594337 411.7382292706591, 572.160226396478 413.1455399061033, 571.5171241843201   414.5551351155031, 570.8729779847669 416.4330827789504, 570.010802213052 417.8403755868544, 569.3616412672277   419.2499886784318, 568.7114100128397 421.1279365061099, 567.841100413181 422.53521126760563, 567.1858237557403   423.94484246043777, 566.5294498609358 425.8227904529521, 565.6509296969714 427.2300469483568, 564.989479815478   428.63969646232096, 564.326905148384 430.5176446202331, 563.4400969598095 431.92488262910797, 562.7724158023158   433.3345506848226, 562.1035816795977 435.21249900864865, 561.2084072753373 436.6197183098591, 560.5344362453106   438.0294051286232, 559.8592834269544 439.90735361883253, 558.9556638782685 441.3145539906103, 558.2753438294678   442.7242597943405, 557.5938125135141 444.6022084513543, 556.6816681470406 446.0093896713615, 555.994939378344   447.4191146825279, 555.306969195574 449.2970635067175, 554.3862195863051 450.7042253521126, 553.6930218364868   452.11396979367225, 552.9985518450598 453.99191878535845, 552.0691158092521 455.3990610328638, 551.3693882517081   456.80882512819255, 550.6683569317498 458.6867742876436, 549.7301525197681 460.093896713615, 549.0238337571908   461.50368068643746, 548.3161790053323 463.38163001386795, 547.3691234944247 464.7887323943662, 546.6561515534261   466.19853646868415, 545.9418106772929 468.0764859642536, 544.9858205642994 469.4835680751173, 544.2661328899812   470.89339247513595, 543.5450426026322 472.7713421389476, 542.5800335966227 474.1784037558685, 541.8535670470934   475.58824870592093, 541.1256634614087 477.46619853802036, 540.1515504762546 478.8732394366197, 539.4182413170934   480.28310516109013, 538.6834599401122 482.1610551614637, 537.7001570869832 483.5680751173709, 536.9599409856494   484.97796184061536, 536.2182167128551 486.8559120091894, 535.2256372926508 488.262910798122, 534.4784493128388   489.6728187443883, 533.7297164223927 491.55076908102745, 532.7277729180986 492.9577464788732, 531.973547514037   494.36767587221806, 531.21773966096 496.2456263767243, 530.2063437299332 497.6525821596244, 529.4450147406293   499.0625332238299, 528.6820649509301 500.94048389594127, 527.6611274171127 502.3474178403756, 526.8926280605385   503.7573907988638, 526.1224687252893 505.63534163825295, 525.0918995713466 507.0422535211267, 524.3161624385702   508.4522485968723, 523.5387253079282 510.3301996031459, 522.4984336673149 511.7370892018779, 521.7153907165723   513.1471066173198, 520.930606893747 515.025057790017, 519.8805010426972 516.4319248826291, 519.0900835934069   517.8419648595803, 518.2978835285736 519.7199161981715, 517.2378708780159 521.1267605633803, 516.4400096047341   522.5368233229366, 515.6403230888914 524.414774826823, 514.5703101762871 525.8215962441315, 513.764935102604   527.2316820065781, 512.957691261376 529.1096336750903, 511.8775837424812 530.5164319248826, 511.0646242348568   531.9265409096007, 510.2497515222397 533.8044927419979, 509.1594541627894 535.2112676056338, 508.3388389243292   536.6214000310047, 507.5162651163814 538.4993520264735, 506.41568178369477 539.9061032863849, 505.5873388478634   541.3162593696933, 504.7569910363379 543.1942115273475, 503.64602469084497 544.6009389671361, 502.8098814151185   546.0111189244726, 501.97168600103873 547.8890712433516, 500.8502386877268 549.2957746478874, 500.0062217471827   550.7059786940495, 499.1601044343597 552.5839311731181, 498.0280772741395 553.9906103286385, 497.17611265498255   555.400838677031, 496.3219984434742 557.2787913151786, 495.17929162446404 558.6854460093896, 494.31930461748965   560.0956988719238, 493.4571177970005 561.9736516679638, 492.3036305657288 563.3802816901408, 491.43554575972087   564.7905592771331, 490.5652099029425 566.668512229802, 489.400840555467 568.075117370892, 488.5245818305315   569.4854198909611, 487.64601978642327 571.3633729989184, 486.4706656593667 572.7699530516431, 485.58615618019894   574.1802807116078, 484.6992900672076 576.0582339734353, 483.51284752870845 577.4647887323943, 482.6200097377947   578.8751417371693, 481.72476093701283 580.7530951513712, 480.5271253775914 582.1596244131455, 479.62588098834283   583.5700029656381, 478.7221701366062 585.4479565306398, 477.51323595994376 586.8544600938967, 476.6035059497632   588.2648643949017, 475.6912529326853 590.1428181090504, 474.47091354631686 591.5492957746479, 473.55261814959727   592.9597260227433, 472.63174209454104 594.8376798843075, 471.39988990046004 596.244131455399, 470.4729486015136   597.6545878468411, 469.5433678705 599.5325418540106, 468.29989425567436 600.9389671361502, 467.36422578159284   602.3494498647683, 466.42585796414517 604.2274040156543, 465.1706532909444 605.6338028169014, 464.22617560438823   607.0443120739935, 463.27893751031195 608.9222663666282, 462.0118911068429 610.3286384976525, 461.05852139876015   611.7391744718798, 460.1023290508573 613.6171289042171, 458.82332920120956 615.0234741784037, 457.86098388348296   616.4340370556862, 456.89575251020096 618.3119916256018, 455.60468644460025 619.7183098591549, 454.6332811426222   621.1288998225672, 453.658925170636 623.0068545278585, 452.35567905550437 624.413145539906, 451.37512860067886   625.8237627695731, 450.3915616474059 627.7017176079606, 449.07602057532813 629.1079812206572, 448.0862389974991   630.5186258936517, 447.0933738635465 632.3965808627784, 445.76542184314184 633.8028169014084, 444.76632236294745   635.2134891916476, 443.76407102449093 637.0914442890802, 442.42359097018965 638.4976525821596, 441.4150859913416   639.9083526603038, 440.40335959243504 641.7863078835331, 439.05023331415794 643.1924882629108, 438.032234415645   644.6032162962621, 437.01094326046024 646.481171642704, 435.6450514532013 647.887323943662, 434.6174693814171   649.2980800960645, 433.58652292641324 651.1760355630609, 432.2077451597236 652.5821596244131, 431.17048982051676   653.9929440561546, 430.12979666653825 655.8708996409738, 428.7380113739109 657.2769953051643, 427.6909918245583   658.6878081728782, 426.6404597088611 660.5657638727163, 425.23554417701615 661.9718309859155, 424.1786686181172   663.3826724424849, 423.1182044063222 665.260628254467, 421.7000347643898 666.6666666666666, 420.63321053168227   668.0775368611297, 419.5627202096552 669.955492782311, 418.1311714182573 671.3615023474179, 417.0543049743534   672.7724014248748, 415.9736936400108 674.6503574522418, 414.52863948024 676.056338028169, 413.4416364062819   677.467266129691, 412.35080826132196 679.3452222601628, 410.892121323615 680.7511737089201, 409.7948863108495   682.1621309714593, 408.6937446524072 684.0400872018898, 407.22129632531534 685.4460093896713, 406.1137331665867   686.8569959459741, 405.0021803788124 688.7349522731521, 403.51584083766414 690.1408450704225, 402.39785241882475   691.5518610489434, 401.2757899643856 693.4298174695957, 399.7754281598435 694.8356807511738, 398.6469164510812   696.2467262759925, 397.5142448625843 698.1246827867847, 395.99972850909296 699.5305164319248, 394.86059455617476   700.9415916226657, 393.7172134275112 702.8195482202045, 392.18840899163723 704.225352112676, 391.03855290706815   705.6364570844291, 389.88436088467773 707.5144137652638, 388.3411335733382 708.9201877934272, 387.1804545274356   710.3313226566723, 386.01534930149035 712.2092794172971, 384.4575630500715 713.6150234741784, 383.28595926195294   715.026188334712, 382.10983755745946 716.9041451715675, 380.5373550178227 718.3098591549295, 379.3547237463074   719.7210541137937, 378.1674813141265 721.5990110232697, 376.5801638425005 723.0046948356807, 375.3864013769236   724.4159199890956, 374.1879329847071 726.2938769675329, 372.5856406294672 727.6995305164319, 371.3806422804057   729.110785955731, 370.1708417034488 730.9887429994235, 368.5534331927794 732.3943661971831, 367.3370932826898   733.8056520087507, 366.115853294698 735.683609113948, 364.4831860241392 737.0892018779342, 363.25539787790547   738.5005181431472, 362.02261024167626 740.3784753060571, 360.3745402615532 741.7840375586854, 359.13519619694455   743.1953843538573, 357.89075165496155 745.0733415706476, 356.2271336576943 746.4788732394366, 354.9761249757322   747.8902506357654, 353.71991324067136 749.7682079025669, 352.040600547966 751.1737089201878, 350.77781752319925   752.5851169837065, 349.50972726834664 754.4630742966157, 347.81457181826437 755.8685446009389, 346.53990368895245   757.2799833924705, 345.2598225385319 759.1579407475517, 343.5486748724368 760.5633802816901, 342.2620098306395   761.974849856805, 340.9698243500496 763.8528072500932, 339.24253359943236 765.2582159624413, 337.94375878100607   766.6697163714185, 336.6393544669649 768.5476737989221, 334.8957683401438 769.9530516431925, 333.58476981464275   771.3645829309849, 332.26803108524064 773.2425403886884, 330.5079958539346 774.6478873239436, 329.18465861441723   776.0594495301465, 327.8554687990749 777.9374070140135, 326.0788292848518 779.3427230046948, 324.7430372375908   780.7543161635182, 323.4012785669232 782.6322736694935, 321.6078781275191 784.037558685446, 320.2595140816145   785.4491828256904, 318.9050676771985 787.3271403497035, 317.0947481927082 788.7323943661971, 315.73369384960324   790.1440495112336, 314.3664397136482 792.0220070492013, 312.53904157258506 793.4272300469484, 311.16517751548304   794.8389162147016, 309.7849945204041 796.7168737625309, 307.9403566056287 798.1220657276995, 306.55356228881135   799.5337829306359, 305.1603281667028 801.4117404842268, 303.29828784121844 802.8169014084506, 301.8984415792636   804.228649653569, 300.4920329112727 806.1066072088175, 298.61242600388636 807.5117370892018, 297.1994049607854   808.9235163780286, 295.77969716638506 810.8014739308295, 293.8823579572342 812.206572769953, 292.45603813540777   813.6183830985411, 291.0229054615663 815.496340644791, 289.10766666750766 816.9014084507043, 287.66792289671855   818.313249809636, 286.22123840696673 820.1912073452357, 284.28793116682795 821.5962441314554, 282.83463709299144   823.008116505849, 281.3742726563845 824.8860740267074, 279.42272651607664 826.2910798122066, 277.9557545899662   827.7029831817267, 276.48158086994056 829.5809406837628, 274.5116237674295 830.9859154929576, 273.0308452332778   832.3978498318298, 271.5427316764006 834.2758073109759, 269.55418992653625 835.6807511737088, 268.0594748105301   837.0927164507374, 266.5572896351417 838.9706739029417, 264.54998791434605 840.37558685446, 263.04120501301554   841.7875830330502, 261.52481519776154 843.66554045428, 259.498576528569 845.0704225352113, 257.97559339706777   846.4824495733944, 256.4448646693222 848.3604069596385, 254.39951040477695 849.7652582159624, 252.8621933450554   851.177316066426, 251.31699016923181 853.0552734136978, 249.2523399771358 854.4600938967136, 247.70055402600383   855.8721825068338, 246.14073959175383 857.7501398111739, 244.056611438767 859.1549295774648, 242.49022035584733   860.5670488893434, 240.91565656614569 862.4450061468218, 238.81186670173634 863.8497652582159, 237.23073295730637   865.2619152087201, 235.64128041642093 867.13987241544, 233.51764335666388 868.544600938967, 231.92162811938522   869.9567814597738, 230.31714612073077 871.8347386118726, 228.17347463195273 873.2394366197182, 226.56243775648807   874.6516476373607, 224.9427842703632 876.5296047310142, 222.7788893526346 877.9342723004694, 221.15268936715051   879.3465137363884, 219.5177210283555 881.2244707678117, 217.3334118988253 882.6291079812206, 215.69190599237982   884.0413797518173, 214.041478087715 885.9193367172686, 211.8365621637889 887.3239436619718, 210.17960617360325   888.7362456786656, 208.51357262924645 890.6142025744477, 206.28785551160632 892.018779342723, 204.61530391021972   893.4311115120115, 202.93351727898133 895.3090683344744, 200.68680273444414 896.7136150234742, 198.99850861675043   898.1259772469964, 197.3008200652054 900.0039339925394, 195.03291000942056 901.4084507042252, 193.3287250795861   902.8208428788279, 191.61498437508078 904.6987995439019, 189.32567885506407 906.1032863849764, 187.6054534133251   907.5157084027829, 185.87550891085883 909.3936649838926, 183.56460608736165 910.7981220657276, 181.82818901670112   912.21057381421, 180.08188764567984 914.0885303079154, 177.74918377539177 915.4929577464789, 175.99642252809315   916.905439108532, 174.23360977895535 918.7833955114512, 171.8788991965393 920.18779342723, 170.10963978061784   921.6003042812495, 168.33015969133018 923.4782605900597, 165.95323479128723 924.8826291079812, 164.16732175679613   926.2951693279423, 162.3710168992186 928.1731255393819, 159.97166811758245 929.5774647887324, 158.16894454279407   930.9900342442719, 156.3556560089126 932.8679903551425, 153.93367180477117 934.2723004694836, 152.11397928223107   935.6848990259845, 150.2835466702567 937.5628550331519, 147.83871350709882 938.9671361502346, 146.00189212955217   940.3797636689121, 144.15415352988506 942.2577195693087, 141.6862558567716 943.6619718309859, 139.8321442029602   945.0746281689758, 137.9669361840182 946.9525839596009, 135.47575641657554 948.356807511737, 133.60419153690532   949.769492522186, 131.7213491308146 951.6474482001086, 129.2066676320492 953.0516431924882, 127.31748503412564   954.4643567246463, 125.41684172227231 956.3423122870046, 122.87843678320264 957.7464788732394, 120.9714704172336   959.159220772553, 119.05285811567612 961.0371762165572, 116.49050593578444 962.4413145539907, 114.56558817984956   963.8540846621981, 112.62883722458865 965.7320399851305, 110.04231189208548 967.1361502347418, 108.0992735372696   968.5489483899705, 106.14421266937633 970.4269035891873, 103.5332861412813 971.830985915493, 101.57195637667223   973.2438119523572, 99.59841272727157 975.1217670252881, 96.96285480930459 976.525821596244, 94.98306120685277   977.9386753459439, 92.99086028196149 979.816630290095, 90.330438608245 981.2206572769952, 88.33200710748383   982.6335385674176, 86.32097277270225 984.5114933803699, 83.63545278527181 985.9154929577464, 81.61820767789823   987.328401613566, 79.5881621429534 989.2063562929773, 76.87730707107549 990.6103286384975, 74.84107098538857   992.0232644812789, 72.79183478852755 993.9012190248844, 70.05540562782086 995.3051643192488, 67.99999951301675   996.7181271675497, 65.93139150524988 1000.0, 61.09439010693495 1000.0, 61.09439010693495  " style="fill : none; stroke : red; stroke-width : 1; stroke-dasharray : none;" /><line style="fill : none; stroke : black; stroke-width : 1; stroke-dasharray : none;" x1="50.0" x2="950.0" y1="720.0" y2="720.0" /><path d=" M 20.0, 7.918560175954425  0, 0  20.0, -7.918560175954425   C  20.0, -7.918560175954425 17.2, -3.4049808756604025 17.2, 0   17.2, 3.4049808756604025 20.0, 7.918560175954425 20.0, 7.918560175954425   Z " style="fill : black; stroke : black; stroke-width : 1; stroke-dasharray : none;" transform="translate(950.0,720.0) rotate(180.0,0,0)" /><line style="fill : none; stroke : black; stroke-width : 1; stroke-dasharray : none;" x1="120.0" x2="120.0" y1="950.0" y2="50.0" /><path d=" M 20.0, 7.918560175954425  0, 0  20.0, -7.918560175954425   C  20.0, -7.918560175954425 17.2, -3.4049808756604025 17.2, 0   17.2, 3.4049808756604025 20.0, 7.918560175954425 20.0, 7.918560175954425   Z " style="fill : black; stroke : black; stroke-width : 1; stroke-dasharray : none;" transform="translate(120.0,50.0) rotate(90.0,0,0)" /></svg>