<?xml version="1.0" encoding="utf-8" ?>
<svg baseProfile="full" height="100%" version="1.1" viewBox="0,0,1000,1000" width="100%" xmlns="http://www.w3.org/2000/svg" xmlns:ev="http://www.w3.org/2001/xml-events" xmlns:xlink="http://www.w3.org/1999/xlink"><defs /><polyline points="250.0,500 450.0,300 250.0,600 50.0,700" style="fill : none; stroke : red; stroke-width : 1; stroke-dasharray : none;" /><polyline points="740.0,800 560.0,600 730.0,400 430.0,480.0 830.0000000000001,90.0" style="fill : none; stroke : green; stroke-width : 1; stroke-dasharray : none;" /><line style="fill : none; stroke : green; stroke-width : 1; stroke-dasharray : none;" x1="830.0000000000001" x2="740.0" y1="90.0" y2="800" /><path d=" M 250.0, 500   C  250.0, 500.0 450.0, 215.1471862576143 450.0, 300   450.0, 408.1665382639197 326.4852927038918, 523.5147072961082 250.0, 600   202.56583509747432, 647.4341649025257 50.0, 700.0 50.0, 700  " style="fill : none; stroke : black; stroke-width : 1; stroke-dasharray : none;" /><path d=" M 740.0, 800   C  702.23128707944, 871.34090218328 562.0174132638919, 680.696530555673 560.0, 600   558.0319542059837, 521.2781682393463 787.8631469068876, 453.41213560635777 730.0, 400   661.5566977491355, 336.82156715304814 401.40421127344973, 568.6469450523057 430.0, 480.0   481.45296984199064, 320.4957934898292 713.3862994167155, -30.375432860164807 830.0000000000001, 90.0   979.3903277497876, 244.20937058042577 840.4575747483699, 610.2468032530791 740.0, 800   Z " style="fill : none; stroke : black; stroke-width : 1; stroke-dasharray : none;" /></svg>