<?xml version="1.0" encoding="utf-8" ?>
<svg baseProfile="full" height="100%" version="1.1" viewBox="0,0,1001,1001" width="100%" xmlns="http://www.w3.org/2000/svg" xmlns:ev="http://www.w3.org/2001/xml-events" xmlns:xlink="http://www.w3.org/1999/xlink"><defs /><polyline points="250.0,501 450.0,301 250.0,601 50.0,701" style="fill : none; stroke : red; stroke-width : 1; stroke-dasharray : none;" /><polyline points="740.0,801 560.0,601 730.0,401 430.0,481.0 830.0000000000001,91.0" style="fill : none; stroke : green; stroke-width : 1; stroke-dasharray : none;" /><line style="fill : none; stroke : green; stroke-width : 1; stroke-dasharray : none;" x1="830.0000000000001" x2="740.0" y1="91.0" y2="801" /><path d=" M 250.0, 501   C  250.0, 501.0 450.0, 216.1471862576143 450.0, 301   450.0, 409.1665382639197 326.4852927038918, 524.5147072961082 250.0, 601   202.56583509747432, 648.4341649025257 50.0, 701.0 50.0, 701  " style="fill : none; stroke : black; stroke-width : 1; stroke-dasharray : none;" /><path d=" M 740.0, 801   C  702.23128707944, 872.34090218328 562.0174132638919, 681.696530555673 560.0, 601   558.0319542059837, 522.2781682393463 787.8631469068876, 454.41213560635777 730.0, 401   661.5566977491355, 337.82156715304814 401.40421127344973, 569.6469450523057 430.0, 481.0   481.45296984199064, 321.4957934898292 713.3862994167155, -29.375432860164807 830.0000000000001, 91.0   979.3903277497876, 245.20937058042577 840.4575747483699, 611.2468032530791 740.0, 801   Z " style="fill : none; stroke : black; stroke-width : 1; stroke-dasharray : none;" /></svg>