<?xml version="1.0" encoding="utf-8" ?>
<svg baseProfile="full" height="100%" version="1.1" viewBox="0,0,801,801" width="100%" xmlns="http://www.w3.org/2000/svg" xmlns:ev="http://www.w3.org/2001/xml-events" xmlns:xlink="http://www.w3.org/1999/xlink"><defs /><line style="fill : none; stroke : black; stroke-width : 1; stroke-dasharray : none;" x1="50.0" x2="100" y1="51.0" y2="81.0" /><line style="fill : none; stroke : black; stroke-width : 1; stroke-dasharray : none;" x1="79.99999999999999" x2="129.99999999999997" y1="51.0" y2="81.0" /><line style="fill : none; stroke : black; stroke-width : 1; stroke-dasharray : none;" x1="79.99999999999999" x2="150.0" y1="51.0" y2="81.0" /><line style="fill : none; stroke : black; stroke-width : 1; stroke-dasharray : none;" x1="79.99999999999999" x2="170.00000000000003" y1="51.0" y2="81.0" /><line style="fill : none; stroke : black; stroke-width : 1; stroke-dasharray : none;" x1="79.99999999999999" x2="190.0" y1="51.0" y2="81.0" /><line style="fill : none; stroke : black; stroke-width : 1; stroke-dasharray : none;" x1="79.99999999999999" x2="210.0" y1="51.0" y2="81.0" /><line style="fill : none; stroke : black; stroke-width : 1; stroke-dasharray : none;" x1="79.99999999999999" x2="229.99999999999997" y1="51.0" y2="81.0" /><line style="fill : none; stroke : black; stroke-width : 1; stroke-dasharray : none;" x1="79.99999999999999" x2="250.0" y1="51.0" y2="81.0" /><line style="fill : none; stroke : black; stroke-width : 1; stroke-dasharray : none;" x1="79.99999999999999" x2="270.0" y1="51.0" y2="81.0" /><path d=" M 250.0, 101   C  250.0, 101.0 259.51800311500875, 112.02248511649552 262.5015589089169, 117.4576837879514   265.3917080036048, 122.72272175098567 267.23841603444095, 130.6477598788319 269.3591946189242, 136.26700224211493   271.47835127468954, 141.8819471220921 277.42271532696964, 148.95313831471015 276.63377742958255, 154.9025927376739   275.4376045706748, 163.92304406803547 259.63577232754966, 173.79546539183488 263.2768339526357, 182.13465251973503   266.97922710576864, 190.61430831910724 284.4182500318716, 187.3249115505579 292.6417519133354, 191.56593670277698   298.6282384282724, 194.65328808291056 310.80376780839214, 199.44993746605954 309.75254041276827, 206.10310816134654   307.872863356658, 217.99949933073242 284.8115134794214, 225.91961857519811 285.3123842996951, 237.95317320846038   285.66582675680627, 246.4447222171193 303.6292571139912, 245.55424928247777 311.5254498680304, 248.69772922165396   319.5855347631941, 251.90645473852325 330.84375061140577, 255.04150962459553 338.4972989037627, 259.1261254567655   344.6491769460956, 262.40931614027966 360.4781217617404, 266.91971144855273 357.12240595804735, 273.03233085081365   347.72750108208675, 290.1456626067366 315.21138011427934, 297.3115436035368 307.65260749360306, 315.311413544332   304.25334903648786, 323.40614177518955 329.2193344325506, 319.0062982448935 335.0659478868157, 325.55585504716015   339.3323205262355, 330.33517732664694 330.2301482136479, 343.81703397776766 335.84793779841135, 346.89669258399533   347.48882195503523, 353.2781970059976 377.55680213920505, 337.1233543608879 379.97727492113967, 350.17613544952513   382.82459767793296, 365.53077232481075 349.27413243052274, 372.6905037107532 343.3072103223166, 387.12199569903476   340.8404758534297, 393.0879959382538 353.58532485397916, 398.15216298838027 358.331340713557, 402.52860803601794   363.30858214422665, 407.1182731898316 374.7708558815151, 410.2591386902792 375.6745776536058, 416.9689259776643   376.8397903590346, 425.6201830785067 360.58986139500854, 435.4646520902997 363.8576473402323, 443.55931360823655   367.0893890942939, 451.5646897408893 386.84942188674285, 446.3109410571408 390.6492475725384, 454.06281351144236   394.22427048974214, 461.35607482576137 381.80250090309227, 471.4266422828808 381.49629376196793, 479.5432109325134   381.2700842770302, 485.5392984403153 383.421795399701, 495.84813930834645 388.988338141362, 498.0881924410992   401.65027598781165, 503.18352986254445 421.19417622659313, 497.3886019096018 434.401154400489, 500.8328523331296   441.1369316915152, 502.5894770115334 455.5453011569345, 508.30917047825886 452.95305048827066, 514.7695622965539   446.8278643330036, 530.0347150849677 409.2724811629958, 536.9759377734247 413.5229271756584, 552.8654470101424   417.3888575807129, 567.3175154981598 455.4653548870019, 541.0636875757295 463.382296410025, 553.757376495823   470.35590009535645, 564.938557457712 435.9183722165369, 574.1166875228696 434.97481393262944, 587.2604941947378   434.3827170786528, 595.5084283313147 454.6645597394683, 592.2618151533275 460.1755969909051, 598.4268345871229   464.3002393407968, 603.040938808231 461.1385363134647, 612.9979115405785 463.19885029266095, 618.833812378058   465.21630507986293, 624.5483132750535 474.68248415228805, 630.2571353066444 473.51222749912284, 636.2032385420322   471.4441127575811, 646.7113811127873 449.3513821880575, 656.3463349642732 453.9085404926828, 666.0381081280489   458.6567896409009, 676.1362768975898 479.9986688435712, 668.8057247204608 490.54991710694213, 672.4375345387741   497.42182826729356, 674.8028920585456 508.57780734294937, 678.7416351480277 510.86064064224547, 685.6413997323978   512.633228161472, 690.9989685884444 500.0, 701.0 500.0, 701.0  " style="fill : none; stroke : black; stroke-width : 1; stroke-dasharray : none;" /><path d=" M 250.0, 101   C  250.0, 101.0 496.1768056833969, -26.724783592151567 464.83103723147883, 33.15373448688388   426.8150233505686, 105.77414505211458 287.41309438071124, 108.39559492630079 220.98716347928678, 156.4220152169638   195.57709682218825, 174.79367406053458 292.96771749766634, 143.0759376741174 323.3762134876868, 135.42657771346376   371.74987576458994, 123.25801944301986 480.0447295336783, 40.63733829236809 483.4332350580259, 90.4028187258225   487.09620116311356, 144.19918019589676 372.15839016766523, 149.2897225864591 326.2453580837786, 177.56443413175896   306.7251307451104, 189.5856135714245 284.76019768238876, 211.42027019813273 265.85848942231706, 224.39229607403456   236.49204989246866, 244.54614715579154 130.5643263324876, 294.6621554515473 165.52645253928654, 287.8639781086307   257.47942804322344, 269.984269334996 367.6492664175598, 195.81061792248306 460.8581414570934, 186.47577439287772   514.9082176411584, 181.0626739372881 345.9396519152305, 241.62728303382636 302.4332910333609, 274.1527954027663   295.3882713000278, 279.41967757427517 321.4252299080368, 282.07325063703087 329.91678099547124, 284.36800791855364   340.4154830879561, 287.20517780956664 357.2894830847461, 284.0900355333387 365.51803253508115, 291.20081977704956   370.6192380725108, 295.60907814365737 369.2434935550451, 309.69729175022303 363.7490945724468, 313.6045439281472   322.91039990443176, 342.6463152284402 260.7991593277348, 369.20252626546386 218.3595016902213, 395.8502076290745   199.1113531221518, 407.9360386285209 136.81792218811051, 448.90285067713455 158.60059296348598, 442.4164195985475   288.4786855358634, 403.7413964677096 449.2547309414062, 264.5913296929843 582.8505190167252, 287.3122837430311   697.7339538710851, 306.8507832873868 335.4786583066159, 400.51506125362494 232.45511713499133, 454.97703452708697   218.66380332456558, 462.26762224720903 187.04930245737577, 479.01305467763757 195.84047975641684, 491.89980010149304   205.93660685060712, 506.6994356001323 238.14477342265252, 493.2657570930916 255.47367266328544, 488.7193030569644   322.84175324693655, 471.04444225810283 407.1995663509572, 413.26494699626545 476.67116476744826, 418.22034801356324   522.4781168266502, 421.48775256459476 384.0110254002374, 472.03651429359206 344.27211462776614, 495.05328557176415   304.0273325294693, 518.3630574474962 243.89635020068366, 540.7357101344033 210.0589466205912, 572.6421055747537   198.73690038821374, 583.3180335734579 247.03217585769107, 577.1886486927275 261.93100222581, 572.6954157392458   360.72682335278995, 542.9002742840819 622.6384333284789, 362.3926763447119 586.5966401607238, 459.08473326636505   546.6438114307005, 566.269222444352 339.8555392386785, 563.4435651842244 242.80865313487388, 623.9963945271359   207.41034767243286, 646.0833221530538 336.04318701034214, 585.2474810461022 377.5474239884878, 589.5219066714635   397.5465744990353, 591.581573048965 334.8004987112497, 614.4131370300594 326.197414354026, 632.5844106858226   322.60185459849424, 640.1788846617237 343.85847966296126, 645.6222221249734 351.9897949289197, 643.5042521129501   428.9313218354918, 623.463232752942 524.3768720763453, 553.9123173302645 603.6268246495428, 560.322156396024   659.7407819227168, 564.8607261211192 480.8435114660886, 612.7929467438418 439.08357557312326, 650.5485101778654   422.1081406052282, 665.8961657248767 492.6050873749888, 634.8391570836882 514.727548867682, 640.6968546384658   523.2204232358162, 642.9456409878367 499.2081969574294, 659.3127728786553 502.67330744572314, 667.3861218976153   506.17535491132276, 675.5455302530678 531.2087813950377, 668.6050588067438 530.5048420524022, 677.4563158114992   529.5883604130287, 688.9800566211312 500.0, 701.0 500.0, 701.0  " style="fill : none; stroke : black; stroke-width : 1; stroke-dasharray : 16.02, 16.02;" /><line style="fill : none; stroke : black; stroke-width : 1; stroke-dasharray : 1, 8.01;" x1="100.0" x2="700.0" y1="691.0" y2="91.0" /><path d=" M 100.0, 681.0   C  100.0, 681.0 109.17990636027744, 681.0102467517112 111.45192294137077, 678.3097873176398   113.91552693203508, 675.3816121037054 109.79301082258333, 667.8399991762338 112.92360849250791, 665.6393372450459   116.64674859635416, 663.0221460391217 123.6751772160288, 667.8498162914556 128.0608822282797, 666.6344753570868   130.95203888309933, 665.8332949264696 134.21860298066935, 662.3786681307892 135.07062734578503, 659.5020848508613   136.322954103674, 655.2740106780522 133.56562778025958, 649.1176543529367 134.52412281204374, 644.8134446933889   135.18839509938118, 641.8304691943864 137.43663347184935, 637.626576024609 140.22203428544867, 636.369220543063   143.99377016845003, 634.6666243621896 150.4981796553551, 638.2031458172868 154.0115780017984, 636.0166286356817   156.84188173193976, 634.2552263906504 155.9423839158802, 628.378529062291 157.6563122746899, 625.5192272848423   159.19891186067144, 622.9457488104257 162.48702357988915, 620.4510057402714 164.6117912329112, 618.3325706193326   166.73667198813376, 616.2140227332765 169.05581601658483, 612.5665800580718 171.8195535425143, 611.3981973052047   175.34463538719447, 609.9079527392399 181.4602421253655, 612.2642850477902 184.49172783141782, 609.9282359703773   187.18448736326982, 607.8532077399888 187.66054274420728, 602.4852600713591 187.79399384924892, 599.0883663644775   187.9886261720882, 594.1341525166255 183.19427315498947, 587.0698807969508 185.56090590165147, 582.7131427931491   187.3286559607602, 579.4588888855227 194.12448102154173, 581.5152443152169 197.75008358966636, 580.760184857433   201.15529818866636, 580.051022879404 206.2687410494271, 580.0292099041844 208.9700449463519, 577.8380105903876   211.46098374699042, 575.8174517791844 212.12040072767675, 571.0479011310209 213.36671353382482, 568.0925435541296   214.63808627956388, 565.077761824665 215.5255940344281, 560.6529247298504 217.35981526497872, 557.9435096615525   219.04371756441265, 555.4561378071453 221.98940720549038, 552.3256043035841 224.78479530808454, 551.2263540809274   228.39701006058726, 549.8058973410251 233.92974161722233, 551.0299345464407 237.66093406799578, 549.9603572171077   240.66189682704058, 549.1001062985088 244.4213355357032, 546.9842299052252 246.76753228319876, 544.9248198085797   249.0500247637549, 542.9213271070438 252.2150688471202, 539.7329910657628 252.72366380165988, 536.7388157033099   253.53240960739654, 531.9776069174001 248.25101088712526, 524.8021498129874 250.87434955851538, 520.7473658364344   252.99509777059075, 517.4694147421252 260.9661785350126, 522.2140196151142 263.83445443357607, 519.5653350877642   266.59374374837245, 517.0172932769175 262.6927790066484, 509.57098277665875 265.57938408195827, 507.16812911241544   268.7377453801063, 504.53906146365006 275.39180223140215, 508.0756449840779 279.2699696638664, 506.7165790705926   282.10210208787686, 505.7240859131986 285.67809037914907, 502.70769400101375 286.5238660931956, 499.82833987619085   287.7918776997274, 495.5115282333941 284.7753716941622, 489.25900721869925 285.69179943768927, 484.8541375969535   286.3141903098058, 481.86257534362585 288.38731348846824, 476.95453474323637 291.39495092408254, 476.41515345961585   296.92941288570074, 475.4226185344756 304.9394166788567, 483.58451418701634 309.67499202182285, 480.5530589336252   313.5186420750349, 478.0925652655615 308.022451215461, 469.8976322091711 308.63993223985926, 465.3758635279307   309.0731575472562, 462.2033860759845 310.6803061995174, 457.79450075849473 313.07334816028396, 455.66714382462436   315.5707424757282, 453.44702014912184 320.8476298243158, 453.9403410524455 323.6132674482149, 452.0649274888244   326.1103812519631, 450.371603295884 327.1026645135733, 445.29574833652345 329.92816004792127, 444.2376844647998   333.9355781063562, 442.73702583165806 341.8876682548825, 447.96498529137835 344.1915755789075, 444.358964372055   347.04695785649795, 439.8897879784195 340.1723838209656, 432.2251537170274 340.9544089292135, 426.9796620986301   341.39689470260447, 424.0116558401321 345.20768268112, 421.1455959264048 347.86124773199003, 419.74436527767574   351.0122170412108, 418.0804773817159 355.90303244258433, 417.3233861630305 359.46438063481986, 417.20536255677456   364.21918020971987, 417.04778779503766 371.0988326605944, 421.18192121919606 375.23824135822485, 418.83708765644866   378.39081709196535, 417.0512612426883 375.3547926404828, 409.8819653937369 377.52048552826346, 406.9771962027563   379.4424205599947, 404.3993710186139 385.21576047874873, 405.06573512017434 387.3190032543186, 402.63357830508045   389.5406027072836, 400.0645556926179 390.1548095446309, 395.17142444566326 390.63701208216236, 391.8094515091933   391.22965251254186, 387.6774925647344 387.18653165475166, 379.86676913497985 390.866902526866, 377.89720633016594   395.7973749339344, 375.2586474999401 403.5278126004472, 382.75635025916637 409.06140677253245, 381.94957495210144   412.0400019257764, 381.5153080101014 414.83081970965617, 377.22057219105164 415.55216401696003, 374.2981965727981   416.6348598663646, 369.9118807451867 411.89435865628474, 362.83664784774663 414.6608212356167, 359.2647181677238   417.09798929642665, 356.1179584766121 425.2721683237972, 361.3507932539281 427.8971522707705, 358.3589135791467   430.6987848483037, 355.1656949788608 424.5343529695066, 346.8175672343901 427.8791870312299, 344.1988127158751   431.65318478335934, 341.2440551751789 440.91504777788026, 349.7952316208432 443.7611228660981, 345.9386129270124   447.04337872671545, 341.4909406353024 436.90358915347446, 332.57654124528824 439.8891583059721, 327.9245127431554   442.3114267469295, 324.1502033061344 450.3928711321149, 329.44214472767305 454.8175638513209, 328.71078266477326   457.92654096723135, 328.1968966027806 461.73923413641546, 325.9281464536123 464.1614390216516, 323.9125222113729   466.48936471754206, 321.97535186902525 468.07473554455237, 317.96591267061666 470.25535967964237, 315.8643072456328   472.448318773235, 313.75081384083217 477.82237718302673, 312.9851795275918 478.56453527335833, 310.0313472156178   479.8055946487817, 305.0918588074728 471.6279117739372, 295.97779902099546 475.9348659690371, 293.2595422875656   481.2125240771669, 289.9286432254194 490.97141480171604, 302.909677730239 495.9048061839278, 299.0873468787253   500.3199237642054, 295.66656818255194 489.66815134505725, 286.04422154803905 491.8715729932613, 280.91197806432785   493.36664916059556, 277.4296237343214 500.6435910410283, 279.79589795375375 504.40058324703114, 279.2988526943668   508.1374909472406, 278.80446458938536 513.7980186131298, 279.8180290253909 516.8510865715339, 277.6072203951385   519.5064710817016, 275.6843850466629 520.3258904635255, 270.6627526860354 520.8055655481979, 267.4195637480716   521.4400696676719, 263.12954159114537 518.4203065290548, 256.77526088560404 520.4953937831406, 252.9672563592835   522.0723364469256, 250.07339982885674 528.8788751739472, 251.80231859662115 530.7820087089505, 249.11173566136245   532.9979739063012, 245.97888237731328 529.1805639224744, 238.7520147746581 532.2133013798853, 236.40089270856606   535.6525542537543, 233.7346205909896 543.4554179379796, 239.6436660494669 546.7145880218549, 236.76004372680484   549.7806036799457, 234.04731902518702 543.7263948210809, 225.2573197056287 547.220035222272, 223.12335530349105   551.6492253820022, 220.4179440287817 560.2910395645229, 229.36287895645904 564.2735809152314, 226.03476537271945   567.9275839220516, 222.98120334508098 559.7157277138539, 214.01465751675832 562.6281321476094, 210.24718098136657   565.1928708038523, 206.92944372111 574.0370330465902, 213.39724765527075 576.6054229595916, 210.08233616961775   579.5187816198255, 206.32218821242904 572.9164644013443, 198.59840887865883 574.9757975222224, 194.31057510851736   576.4446755455391, 191.2521555023144 582.7988302905981, 192.59068589642143 585.7822316964483, 190.97487365901247   588.4259972785961, 189.54300841550275 590.9440925936602, 186.21208890780525 593.3231371216347, 184.37364346046797   595.7393772681435, 182.50645449246457 600.3808706895267, 181.3813949974569 601.7371103405985, 178.64548105570088   603.4981653482256, 175.09294154414897 599.8683129256473, 168.2417882107356 602.697235453308, 165.46347054467958   605.5515689802654, 162.66019644112217 613.099427439163, 167.37912174523424 616.0068775248318, 164.63097699247214   618.8345699347501, 161.95821982389816 615.3489542816427, 155.12145524681182 617.2377230962184, 151.71968694012787   618.7402331968334, 149.01359014241416 623.187253990697, 147.47861202758725 626.104613964584, 146.44444218476235   629.5548002136366, 145.22139168607973 634.5428240354819, 145.09591473842534 638.1196105310374, 144.31730312748493   641.5168141126444, 143.57778396505958 646.606329642323, 143.54579829290017 649.3325249295228, 141.38808190223938   651.8271021981892, 139.41368546569507 653.4408341339156, 134.9681969695994 653.907866351931, 131.82128770091663   654.5724545348653, 127.34322680477564 650.5770446839979, 120.59089235731122 652.9877213360703, 116.75900706132495   654.9149078119028, 113.6956524164713 661.2569648527899, 115.03322004705238 664.830342233543, 114.45949233506667   668.5720665044113, 113.85873549466984 675.1125897975387, 115.8980789608269 677.3590292355808, 112.84604371337355   679.9711971666193, 109.29712605158915 673.4339395079144, 100.98449856025218 676.8222656035869, 98.16714445764887   680.5327825510724, 95.08189237458382 688.4497293794627, 102.08869401983789 692.802353948234, 100.00509717856471   695.8969061423735, 98.52373827085529 694.7349627030914, 92.2191367672195 695.9500746235447, 89.01068223014465   696.9038176415675, 86.49236185004568 700.0, 81.0 700.0, 81.0  " style="fill : none; stroke : black; stroke-width : 1; stroke-dasharray : none;" /><line style="fill : none; stroke : black; stroke-width : 1; stroke-dasharray : 1, 8.01;" x1="100.0" x2="700.0" y1="671.0" y2="71.0" /></svg>