<?xml version="1.0" encoding="utf-8" ?>
<svg baseProfile="full" height="100%" version="1.1" viewBox="0,0,800,800" width="100%" xmlns="http://www.w3.org/2000/svg" xmlns:ev="http://www.w3.org/2001/xml-events" xmlns:xlink="http://www.w3.org/1999/xlink"><defs /><line style="fill : none; stroke : black; stroke-width : 1; stroke-dasharray : none;" x1="50.0" x2="100" y1="50.0" y2="80.0" /><line style="fill : none; stroke : black; stroke-width : 1; stroke-dasharray : none;" x1="79.99999999999999" x2="129.99999999999997" y1="50.0" y2="80.0" /><line style="fill : none; stroke : black; stroke-width : 1; stroke-dasharray : none;" x1="79.99999999999999" x2="150.0" y1="50.0" y2="80.0" /><line style="fill : none; stroke : black; stroke-width : 1; stroke-dasharray : none;" x1="79.99999999999999" x2="170.00000000000003" y1="50.0" y2="80.0" /><line style="fill : none; stroke : black; stroke-width : 1; stroke-dasharray : none;" x1="79.99999999999999" x2="190.0" y1="50.0" y2="80.0" /><line style="fill : none; stroke : black; stroke-width : 1; stroke-dasharray : none;" x1="79.99999999999999" x2="210.0" y1="50.0" y2="80.0" /><line style="fill : none; stroke : black; stroke-width : 1; stroke-dasharray : none;" x1="79.99999999999999" x2="229.99999999999997" y1="50.0" y2="80.0" /><line style="fill : none; stroke : black; stroke-width : 1; stroke-dasharray : none;" x1="79.99999999999999" x2="250.0" y1="50.0" y2="80.0" /><line style="fill : none; stroke : black; stroke-width : 1; stroke-dasharray : none;" x1="79.99999999999999" x2="270.0" y1="50.0" y2="80.0" /><path d=" M 250.0, 100   C  250.0, 100.0 248.78737672127406, 116.18019640848787 253.41575037113583, 120.24343734536012   260.49873621490883, 126.46157793056648 275.1301526004479, 125.00136673103931 283.4732806014854, 129.38613308271454   289.2895675284006, 132.4429073771584 300.77590607628656, 137.98769808401758 299.4063802953571, 144.41400821026787   296.79984787036284, 156.64480075933022 276.84808023751935, 164.9394282000752 273.3384757472784, 176.94230177196732   271.6165418010286, 182.8313287302633 282.9751097574961, 187.9596728576033 284.9780033055353, 193.75916528936034   287.045790055808, 199.74655968704778 281.0332869624048, 211.49373408143438 286.42132814621954, 214.82444660574185   296.8116606314811, 221.24741357272364 319.60083677632883, 209.81494610893355 326.8526632791569, 219.64472363368463   332.64465138151144, 227.49570496231235 311.5103054236424, 238.23382817520658 310.8736447973174, 247.96931466778437   310.46585766953064, 254.20498546359156 319.9544581607455, 259.37840735407667 323.9394624575463, 264.19189064268903   327.9573177020941, 269.0450545630443 335.0644595148027, 274.39795625612743 337.54743848673536, 280.1885672971937   340.0160045189752, 285.9455655978127 339.9944054654624, 294.6994792783007 339.7039795792682, 300.95667517530495   339.37300807278365, 308.0874222982231 329.75484875994096, 320.13490490977483 335.4964700906977, 324.3764707955426   345.61457433821874, 331.8511200858104 375.8774264383424, 316.1540460563524 377.20880885781366, 328.66299630924436   378.8814953580537, 344.3786553972594 346.6415616530429, 351.56921465858613 339.912774002349, 365.86967749902124   337.29169141477587, 371.4401749037708 347.21892813295034, 378.5039423047922 351.8469025241859, 382.56379061492254   357.487557067548, 387.5120033490435 366.32719154339367, 392.75195075536357 373.4030597428394, 395.2487251071503   383.44351505561764, 398.79157675426956 400.037893693288, 395.54805115977683 408.158745285154, 402.4338561311859   413.1642960226972, 406.67814575565563 407.0584377004834, 417.77000239977974 407.66994754008215, 424.3041885249658   408.237885028657, 430.37278958010813 413.4133471749126, 438.19744036241343 412.0619461094776, 444.14085578771767   409.9385023792678, 453.4796883102691 393.52887362177603, 463.16618755204917 396.78572763203033, 472.17261348665403   399.8928157326724, 480.7648803683186 421.30366003682326, 473.77948710754583 425.68003291491937, 481.7999862854503   429.62087916815, 489.02230371925054 410.75098155996056, 501.185557425373 416.05056492002086, 507.47893128332464   423.23839330815764, 516.0146383757456 445.23634597947256, 505.57584842245217 452.6926430284661, 513.8780654048057   457.99990513466196, 519.787438555894 442.3949145189872, 531.3190728765256 444.3708379795338, 539.012150841861   446.0953646020788, 545.7264381234467 464.22443929474576, 546.2493868680396 462.74660444361075, 553.0222481484956   459.91455115110193, 566.001441374511 438.3960539033405, 574.1536597350091 433.9699115817663, 586.6792035075974   431.9423489057901, 592.4170047811396 438.95247880934863, 602.1181830611441 444.79006536310584, 603.8374727653726   459.2126472521276, 608.0852207553751 495.37119910615763, 589.5968898560244 494.9008831751404, 604.6246320103583   494.27066769234676, 624.7615551985799 444.4518954000474, 627.6232165336736 443.4159645551459, 647.7433481020225   442.6567295937843, 662.489416711783 478.91700810997884, 643.4100159719712 492.6208541765167, 648.9079774264513   498.3131637888416, 651.1917230759262 496.2693180614144, 662.8682726850856 496.39943797854517, 669.0002341756062   496.5460796944493, 675.9107931019904 492.7348589187191, 684.9955730330273 493.53232643459455, 691.8615306522523   493.89213113125237, 694.9593418474063 500.0, 700.0 500.0, 700.0  " style="fill : none; stroke : black; stroke-width : 1; stroke-dasharray : none;" /><path d=" M 250.0, 100   C  250.0, 100.0 220.53309066517247, 126.02694891746118 209.36788780131837, 138.59671341611738   202.09892574324402, 146.78009730387976 178.06321383229576, 170.38690208402 188.89238369787952, 168.79484012588352   244.99034982189653, 160.5475378023032 314.1083146693705, 124.09927398465278 370.06967493605225, 114.9709687766449   378.3318030346472, 113.6232669589581 358.0144922323092, 132.73802411229875 359.7997445508666, 140.91677310380555   361.29807083847095, 147.7810322823594 383.3244706716108, 149.36773725608361 378.73989415983215, 154.6917107667366   360.32915500262254, 176.07171987612713 324.2862637126598, 191.7182559007037 301.60393226298413, 208.49836155709   284.033487496455, 221.49675725843997 262.85091222510584, 241.83228294277825 244.63114405194074, 253.903689978358   209.8723428107077, 276.93294226432977 91.07617731602897, 301.5408643401896 125.36464187154488, 325.26473255352295   165.93298153290948, 353.33358766955445 236.26548278328002, 294.4264491292149 283.7209885475595, 280.9495881051836   334.24828868419644, 266.60037001353834 401.02107804316415, 245.27652709575756 451.971733504749, 232.51177770635456   479.35910610679434, 225.6503753449484 564.7746193231716, 195.8993665538573 544.5529429275088, 215.60294044687134   502.9037235587951, 256.185059127883 424.7221929279382, 279.2974638014499 374.27335387781653, 308.2194358842432   341.68991823933857, 326.89929519599633 230.9954372994339, 381.26327507898236 267.88617420172636, 374.21409408261405   360.8999709181142, 356.4407682217126 500.7399665695532, 203.24573068504492 566.3673699842371, 271.5135958399012   628.7674986094612, 336.4243395991055 377.2108474910895, 363.03520759662945 297.6296772012527, 405.1543011661447   261.668727524382, 424.18697684523283 173.75246632092254, 435.2657904469311 181.49990810669135, 475.208371622212   188.7820077315447, 512.7518425427003 268.4927065357598, 455.2437293691871 305.4063085273571, 445.2473714469346   357.64107281737995, 431.10197864710915 431.03744016527105, 368.91227700701376 478.5833869777553, 394.75692209260194   517.7001472717938, 416.0196974598599 306.59291847837744, 462.6074463780451 350.53397848767685, 469.777508963468   413.39024822812155, 480.03405233838504 585.670980235958, 352.09442726235096 553.3164902337215, 406.951462402616   512.8561974572784, 475.55188548050495 385.1261612028773, 486.5611817243398 316.6489248312519, 527.2296146536451   309.9080472600424, 531.2330023765612 312.748438689749, 545.3797516280715 308.81372878943284, 552.1609463377363   302.64354036488663, 562.7948304517357 275.3694895422904, 575.1474666511222 283.4880974387755, 584.3799594005102   294.03039475049286, 596.3686752903935 345.91824220496954, 570.8394232848608 336.7011232228791, 583.8745319904671   316.8180729907097, 611.9937004289957 206.91495926216848, 655.2028531925977 240.0488347563832, 645.8129855181737   369.66166246620844, 609.0817766586587 530.4747104226703, 521.5793352989726 661.8436288196781, 491.7318213251342   725.7407957916339, 477.21414387634445 524.9596991589826, 560.1456024816268 468.7655644421595, 593.8476814824336   453.56740663800525, 602.9626810738232 407.57588781127777, 635.9789560563684 425.1491102320183, 633.6878707366591   485.79823132081907, 625.7808228627399 584.1082433254332, 524.6816938528175 620.1256475696465, 574.1143135126474   654.4605746279985, 621.2377924512001 491.19808785341644, 626.3107795120844 449.36942832581934, 666.929404864242   429.11130610493547, 686.601493000019 514.5132100881602, 656.636970431261 541.9637717357662, 650.0150951100974   588.6820314139193, 638.7452896036787 727.2715095199006, 570.5383998292147 696.3709315864745, 607.3454451723023   654.4873919021251, 657.2347821164913 500.0, 700.0 500.0, 700.0  " style="fill : none; stroke : black; stroke-width : 1; stroke-dasharray : 16.0, 16.0;" /><line style="fill : none; stroke : black; stroke-width : 1; stroke-dasharray : 1, 8.0;" x1="100.0" x2="700.0" y1="690.0" y2="90.0" /><path d=" M 100.0, 680.0   C  100.0, 680.0 107.7379130490116, 678.1627826154371 109.9119661368539, 675.769830513123   112.1652690606313, 673.2896491418599 112.86869694901864, 668.4775893913957 113.46429545896987, 665.1800242115079   114.17827371486376, 661.2270428045774 112.01604620086043, 655.1584008790197 114.23905617265495, 651.8126493014621   116.08584149619222, 649.0331363941731 122.03006181168075, 650.1127856155055 124.75517521218245, 648.1866327172586   127.23015142942305, 646.4372807038516 128.12019915020227, 641.4956072435733 130.81042440857408, 640.0997462899193   134.1829993021373, 638.3498386966614 139.59693766867767, 638.9068570132804 143.3771662755661, 638.5243525331804   147.30463827730847, 638.1269491503806 155.1469050463637, 641.2107090421 156.49571555271518, 637.5007661865985   158.59633896592413, 631.7229398816906 149.75914987698266, 623.8190077294521 150.91857410753394, 617.7814891176863   151.5351349175756, 614.570846052083 157.80193452315723, 614.1245152376878 161.05229883346195, 613.7730782198834   165.6578600441519, 613.275114132575 174.16384644160433, 619.0546189533409 176.44307627489607, 615.0217200375864   179.39542509981786, 609.7977956219603 169.26643774286646, 601.3596317469007 171.26539134205058, 595.7018994810101   172.53072196777265, 592.12057477638 180.06133511433947, 594.6158695992381 183.82733453058742, 594.121707045816   187.56246388439783, 593.6315951645244 192.75762573413937, 593.7859830642927 196.2687949133919, 592.4210318048895   199.08527510706014, 591.3261377706891 203.7765127543614, 589.197032366805 204.19411232270525, 586.2042135904719   204.9872835934462, 580.5197779447749 198.63443400541806, 573.2336735592986 199.7321528566472, 567.6001185006828   200.32850770848833, 564.5395917651185 206.6491772883777, 564.7836513529936 208.80663859298627, 562.532468613291   210.98980984010063, 560.2544590754975 211.17442866685033, 555.2065645504194 213.57364700589545, 553.1573414024692   216.1071677184884, 550.9934077555953 220.75820298207555, 549.9387690151694 224.06145142615958, 549.5030101990025   228.3754333617801, 548.9339171704116 234.59343393019373, 551.6465636763264 238.56155649285267, 549.8609796419646   241.4115625780157, 548.5785279829888 241.99147366903452, 543.4238011454847 243.56808649919816, 540.7253740245791   245.12199846748592, 538.0658002100666 246.8679337688011, 534.2379490689406 248.99265081032755, 532.0078027119775   251.09690892033944, 529.7991304669517 256.43091778539844, 529.144016739651 257.3678472787174, 526.2408635566364   258.81311864776706, 521.7625712141541 253.86903320963975, 514.8724469360686 255.89363971145295, 510.624520365641   257.33647381216423, 507.5972391099296 263.14598646986315, 507.20926176365106 266.49725621241976, 507.0860012428769   271.55448867982943, 506.89999499584366 279.4833665273638, 513.0831501264103 283.1745137398795, 509.6211231466056   286.7537366683607, 506.2640729853112 279.91286407061045, 498.160183582904 281.09237247356054, 493.39684625655576   281.8162702693925, 490.473450897334 286.11925692124134, 488.3458510432589 288.7882444553224, 486.9505826145866   291.80775765057916, 485.3720696475892 296.5115863062399, 484.9733076812054 299.66658828621354, 483.68679082174685   302.5691855405672, 482.5031971734236 307.2584553871757, 481.4406197986492 308.87977958416167, 478.757846495964   310.86319793839704, 475.47592310353554 308.0750293013982, 469.16510180655314 310.3210805162636, 466.057011804335   312.26575322430097, 463.36596996101724 318.27337324081867, 464.5556702655714 320.7449731271045, 462.3387687914449   323.1227459141541, 460.2060255323127 322.5454029755568, 454.41154923636657 325.2314743127062, 452.6831343533157   328.46129846193094, 450.60482911549525 334.6489309063612, 453.21924582848277 337.95503257690393, 451.2645569937825   340.64070787464067, 449.6766870365786 342.06662410552053, 445.1489196189434 343.0064981096285, 442.1738869027761   344.13838439129034, 438.5910676055014 343.47786361625697, 433.30775760615154 344.74539903262337, 429.77065220204   345.7756708333329, 426.89563986949304 347.46419233350474, 421.90137630548173 350.4683078206624, 421.3514253663481   355.96553830614874, 420.3450702241936 365.08018392190155, 429.69133985676945 368.65300432353945, 425.3939862454941   372.52840083961, 420.7326970282065 361.58146777462116, 411.718004813232 363.30850947218664, 405.9073557704104   364.33842208003057, 402.4422045135565 371.6350795189555, 404.5006769068968 375.13351904774925, 403.5902297222421   378.38168603642606, 402.7449144135768 382.57076737159247, 401.1365753148858 385.7520012211163, 400.0665762718781   388.92042819824, 399.0008847843222 393.51681531373146, 398.3246253574514 396.2988805737225, 396.4713200007534   398.8058903988021, 394.80124604349135 400.96213255656403, 391.1987058615942 402.72770714599295, 388.7580109492929   404.5320236365399, 386.2637600096689 407.8660252803192, 383.1226135419149 408.1711561315515, 380.0593243111205   408.6845560885828, 374.9051665027164 401.7167560283401, 366.7858058727454 405.2898590011831, 363.03589155702116   408.78197572912825, 359.37097100761923 418.68105002409715, 369.4224521823905 421.9718355095428, 365.57573244164996   425.51190472643697, 361.4376158125223 415.1321010100258, 352.19978717279264 418.33047562253023, 347.79223693090637   421.0786840993627, 344.0050423698127 430.2554158198572, 352.1621301249272 433.8656810080096, 349.18530669265476   437.1467440366706, 346.4799250108511 431.7476092956914, 338.71646375065467 433.8325776498725, 335.01006771078676   435.44232628515664, 332.1484578666684 441.68244817439364, 333.3602373215248 444.0483955566969, 331.0837499938802   446.3817288413556, 328.83864357544167 445.42446263273484, 322.7269302620531 448.24723325609847, 321.1404520695508   451.88518589991617, 319.0958181602268 458.69330337764643, 323.2363393047091 462.1557905608739, 320.9068737505952   465.02795428825834, 318.9745614806388 464.0536052756181, 313.04629494256426 465.15585304677387, 309.7648006127643   466.1913817873921, 306.68193505421516 466.2181320285969, 300.8645360637737 469.2675855121514, 299.734397454411   473.9640829314305, 297.99385834111627 481.5661898100051, 304.8052513663245 485.79221362165777, 302.11688994018624   489.18440524735206, 299.9589661983843 485.7938459220255, 292.68501426998824 486.5547339246698, 288.7372746194673   487.18004107709305, 285.49297344663137 487.1783248689226, 279.28391129705557 490.36279431755617, 278.40319938862274   495.8058066399355, 276.8978541977235 504.1751647244337, 285.9734897227055 508.711284826843, 282.60955427417866   512.6598771079323, 279.6813228238957 502.84416820609516, 269.5272178161092 506.6032942178898, 266.35942804149454   510.6797213557779, 262.92425077852255 520.620860587117, 273.7471927634838 524.060704835615, 269.67470303548873   527.7746011403657, 265.2777584475062 517.3465588485285, 256.34152004579977 519.5544606700179, 251.0263232461607   521.0363513383767, 247.45889082628867 528.5573006504236, 250.36178428323487 532.361658624973, 249.69138557738495   535.7913104757077, 249.08701706694774 541.2208847021332, 249.3308152455777 543.601241435983, 246.78883276466388   546.0527306070022, 244.17088796829614 545.7454727703441, 238.65938661238474 546.039435102465, 235.0848908074148   546.3943453391606, 230.76928634524828 542.5378310672208, 223.55711657220127 545.7505500348077, 220.6538701160266   549.1293108082019, 217.60057621121092 556.3983085545226, 222.36464524411346 560.8971735664611, 221.65835802394918   564.0045966917414, 221.1705164827595 567.3215563149568, 218.09124380459318 570.1969278983767, 216.81597673213378   573.2107821133052, 215.47929069696053 579.4940332023369, 216.1106875788813 580.4912159646095, 212.96812917463546   582.1211841561874, 207.83138751313402 574.7792610650584, 200.25059206664224 577.0100562068624, 195.34483379315748   578.5568866447953, 191.94318741318952 586.3788805752672, 195.81424497676406 589.3325166901293, 193.52515865269345   591.9722314788434, 191.4793633050921 590.1840441779885, 184.87456097236165 592.9448011818541, 182.99530752068733   596.2304946339594, 180.7587286575832 603.7594556213112, 185.2365775492942 606.161358067509, 182.06972878261138   608.9157487137107, 178.4381330720135 603.6917484270151, 171.23087514889423 605.1443155255841, 166.91055061695556   606.111115200904, 164.03502881911933 610.7762404269649, 162.6179665009547 613.2782077246109, 160.90230719225133   615.8129197511671, 159.1641940333242 619.4990158566195, 157.29442912292953 621.9230226762749, 155.40498652018425   624.2898936792592, 153.56007961976684 626.5670186734396, 150.00100876961088 629.1729730687405, 148.51280128891892   632.110125862889, 146.83545314803462 638.630882716294, 148.2483378096343 639.9261019896279, 145.12379458607552   641.8547505243998, 140.47118800893858 633.1581696788708, 131.13373582173386 637.4617291450395, 128.51728611775616   642.8212525889622, 125.25883839824613 651.2780009153372, 135.08369135182556 657.5161138346733, 134.42953518365903   660.568414528855, 134.1094574050076 661.4669075953369, 128.455047154426 663.0614954401091, 125.8327811653636   664.6767016853522, 123.17660865275573 667.7816794236904, 119.91969170807842 668.2117074944678, 116.84085759599157   668.8721745619254, 112.11216969075107 663.8256971280764, 104.95124927512936 666.5278699980174, 101.01488447581028   668.7742191793687, 97.74253652841807 676.800940269568, 102.75397949154055 679.724633114345, 100.06951196840691   682.5285075577058, 97.49505894554832 677.7695884855203, 88.96388738050607 681.273261720249, 87.47600495057998   686.4568222320536, 85.2747355703406 694.3477112415613, 93.72652434790947 699.577931522947, 91.63853912954698   702.8227732270002, 90.34314789371281 700.0, 80.0 700.0, 80.0  " style="fill : none; stroke : black; stroke-width : 1; stroke-dasharray : none;" /><line style="fill : none; stroke : black; stroke-width : 1; stroke-dasharray : 1, 8.0;" x1="100.0" x2="700.0" y1="670.0" y2="70.0" /></svg>