<?xml version="1.0" encoding="utf-8" ?>
<svg baseProfile="full" height="100%" version="1.1" viewBox="0,0,800,800" width="100%" xmlns="http://www.w3.org/2000/svg" xmlns:ev="http://www.w3.org/2001/xml-events" xmlns:xlink="http://www.w3.org/1999/xlink"><defs /><line style="fill : none; stroke : black; stroke-width : 1; stroke-dasharray : none;" x1="50.0" x2="100" y1="50.0" y2="80.0" /><line style="fill : none; stroke : black; stroke-width : 1; stroke-dasharray : none;" x1="79.99999999999999" x2="129.99999999999997" y1="50.0" y2="80.0" /><line style="fill : none; stroke : black; stroke-width : 1; stroke-dasharray : none;" x1="79.99999999999999" x2="150.0" y1="50.0" y2="80.0" /><line style="fill : none; stroke : black; stroke-width : 1; stroke-dasharray : none;" x1="79.99999999999999" x2="170.00000000000003" y1="50.0" y2="80.0" /><line style="fill : none; stroke : black; stroke-width : 1; stroke-dasharray : none;" x1="79.99999999999999" x2="190.0" y1="50.0" y2="80.0" /><line style="fill : none; stroke : black; stroke-width : 1; stroke-dasharray : none;" x1="79.99999999999999" x2="210.0" y1="50.0" y2="80.0" /><line style="fill : none; stroke : black; stroke-width : 1; stroke-dasharray : none;" x1="79.99999999999999" x2="229.99999999999997" y1="50.0" y2="80.0" /><line style="fill : none; stroke : black; stroke-width : 1; stroke-dasharray : none;" x1="79.99999999999999" x2="250.0" y1="50.0" y2="80.0" /><line style="fill : none; stroke : black; stroke-width : 1; stroke-dasharray : none;" x1="79.99999999999999" x2="270.0" y1="50.0" y2="80.0" /><path d=" M 250.0, 100   C  250.0, 100.0 220.68636997927808, 122.6068685358253 228.5441577326571, 130.6066009447262   239.40418980104667, 141.66281081268042 265.37288318133153, 126.24931959785101 280.2031093894264, 130.74870442107226   285.95046273264836, 132.49241042011278 287.42295433230015, 143.00149427405205 288.7243670152507, 148.8648470769789   290.12527575866034, 155.17646699195691 288.8953454828296, 163.9494752864271 289.0070431962206, 170.41373200157477   289.11837236986736, 176.85666029876322 285.7541976011656, 186.62221058085927 289.4677835167899, 191.8884235346709   293.97844155140956, 198.28495947374455 309.31503672267684, 196.81358935026213 312.62502246337584, 203.90624064026008   315.802742128797, 210.71547163091728 302.71247921914517, 221.61923579939054 306.3983663922639, 228.16734733655676   310.5415525439433, 235.52786700690896 325.37849791320957, 234.28693381875712 332.3830377527553, 239.00706760301864   337.6198523404159, 242.53598827780397 346.2204230781167, 248.62979310191943 346.13423448296487, 254.94406896543126   346.0067094455657, 264.28670025236846 334.8283168224064, 273.7531938807797 331.7881631717871, 282.58826534508876   329.52889404245104, 289.1539875120343 327.5705732674408, 298.6837075491037 328.7275141176496, 305.53020245097935   329.7343714368913, 311.48853947560804 336.21945906677786, 317.5296224395202 338.62909063408114, 323.0712122357995   341.031091639971, 328.5952535230694 342.87054864920617, 336.4712076073828 344.6798058660034, 342.216747555832   346.4894006783215, 347.96335958432246 345.94498128698945, 357.6682819152352 350.6919242459013, 361.3783648975412   358.1367089010086, 367.19700841083454 373.84720414833373, 364.1313447498954 380.843964404216, 370.4816814982433   385.45470731219496, 374.6664425955107 379.81066587895634, 385.9994424783874 383.4141649074708, 391.0774312885539   387.71258436796165, 397.1346900109942 403.6748182757199, 396.5537489358981 404.5772098836797, 403.92616254846683   405.7668247820697, 413.6451503950328 393.78543315278455, 424.0907786045335 388.46083070859544, 432.30798720475195   382.22924921827473, 441.92489392256863 356.2753069000751, 457.4093156244925 366.11292823772345, 463.28627990094856   382.93257785200524, 473.3342860736757 415.0261838752114, 446.76861343325095 431.1931955104064, 457.8361685373307   441.4330465176233, 464.846129180473 411.50038988875036, 479.3825628342005 405.462399282264, 490.2240002990567   401.85615138204196, 496.6991529849563 396.79248468891524, 507.475154607164 399.76651073436307, 514.263953860682   402.7925445753471, 521.1714711341897 416.50900077614574, 521.2289244546861 421.5155675489682, 526.8685135212633   425.50968983792956, 531.3676462430466 426.3920737375706, 540.0591755287496 427.8484179621666, 545.896492515764   429.33850203319395, 551.8690455104384 426.54428602436406, 562.2236781038487 431.30870926439445, 566.1213711398357   438.9138730580574, 572.3430253596047 457.8180547332921, 566.223670999028 462.94325465744606, 574.6069772260641   467.33951990562167, 581.7979626268566 446.1982726477856, 594.9743063440152 452.42251178028727, 600.6572867582136   462.00841980289215, 609.4096059389316 490.6274164297354, 592.3434404553582 495.53189136436816, 604.3617119315134   500.46587972275603, 616.4523051839253 471.70518679320446, 625.3179405047018 467.5363098983452, 637.6932042090228   465.59008290337806, 643.4705569346182 477.3918676317908, 648.7853650620236 478.5505604625066, 654.7705998072889   479.8762452028148, 661.6184322600524 469.2221977044174, 674.3683969343589 475.2991176940588, 677.7920342941421   487.71553501482526, 684.7872407945562 512.1681803897754, 670.1526198494838 522.7659773966066, 679.6808427514139   529.5735643072752, 685.8013794504375 500.0, 700.0 500.0, 700.0  " style="fill : none; stroke : black; stroke-width : 1; stroke-dasharray : none;" /><path d=" M 250.0, 100   C  250.0, 100.0 144.73251356782492, 146.26365203282177 110.06769597120876, 179.97179334532973   96.71207449975937, 192.95882766683522 154.19459795566638, 181.21759567902515 172.02524620194808, 175.82281408252163   268.66024320540265, 146.58525097142592 550.2766957244155, -15.781760342423482 489.81824748585785, 65.07573021422581   417.22405126827175, 162.16364275822542 208.272694219351, 150.70212605389742 124.96161761515894, 238.76599266035043   60.17112681880009, 307.2526978071912 423.3081164943872, 42.333703558155136 422.1503087373237, 136.60403802611518   420.9290836835301, 236.03789790434016 207.84313461531423, 228.19018592815058 124.4266694856135, 282.32222104766106   95.77327161619857, 300.9164726423407 202.13687876904396, 264.5942071007376 235.58613295699215, 257.67244460125323   264.12761256365104, 251.76626379043117 302.12701059047845, 243.26138710218927 331.0381464579499, 239.5674389758542   347.2722958126132, 237.49321726882076 369.36789979772504, 240.7361249752833 385.5815970913034, 238.50766787862358   416.09560140796657, 234.3137355363746 506.97195541100587, 195.4673217056053 486.23026804893203, 218.23738831294497   448.3787489141627, 259.7904980885576 371.3449585776662, 281.5041923943767 321.9614288199114, 308.3494046583702   268.9336144205961, 337.17567407305756 84.56975938061386, 401.01197348386887 144.86143901305667, 403.8077337445597   230.45241958501614, 407.7766373082926 336.2860579961544, 280.1411168856308 415.54641248863186, 312.68899479640345   483.716728786879, 340.68280262405693 257.27038963542645, 382.57108332119475 197.23991825931742, 425.3167007252844   179.62604500859217, 437.8589291922639 247.76262053465925, 421.91931635558694 268.8520000631354, 417.1449999736936   316.26308470392104, 406.4118478779576 377.4326005731872, 383.9097069867224 424.97233109801033, 373.7615287091624   441.74688899116137, 370.18070900009695 465.631894393169, 366.85015974501147 482.10726585323727, 371.6219725611512   487.97159083565583, 373.32047515193875 490.87330947773216, 387.4584922322121 486.3249404666844, 391.53127480554826   461.1276067485322, 414.0939255958775 420.4126597186969, 434.95646484357036 391.59781411232063, 452.6675774531998   354.738915519589, 475.3229861463605 224.23433424022875, 524.0821637883726 267.4538974761377, 526.0608760516093   335.94573930117747, 529.1966237825876 418.2206552025817, 471.1383082689872 485.3017476870772, 456.95760513038454   492.75369021430197, 455.3822911205698 473.5773860207039, 475.6715306778418 478.55772328492304, 481.4342819646154   485.4361878196686, 489.3933574741023 513.2109493994961, 478.3052665046895 512.8365261603192, 488.818114099867   512.2894832129319, 504.1776819155299 469.24868589325894, 512.1436851330877 476.99112475663, 525.4203646847375   485.4849225296816, 539.9854691950007 544.8283019344697, 511.5026922325435 533.1668824408521, 523.680465649645   503.0040012071371, 555.1789237466343 435.7031006985414, 563.8843409103615 407.9463605136586, 597.5223497859756   394.3597855895561, 613.9877317019351 458.66638017362, 582.2774559821758 478.67458882358187, 589.7189213235076   487.770612287065, 593.101919998283 453.38457602517354, 619.8823987763202 462.8969463704932, 617.9596056789612   530.0763121110865, 604.3802331312427 613.1681235044539, 560.7848467354011 680.6659724267408, 548.8891781555246   696.3014869768823, 546.133610353972 657.1514657510997, 578.7477192957552 643.130392282346, 586.1956698823559   542.9600540481507, 639.4058417763962 390.9263484416622, 679.073428163665 302.30877550421246, 749.8713435399115   246.31022808165665, 794.6094275361096 460.2681752853887, 694.2962939077472 529.7660673635013, 676.7641385985412   540.7503626906143, 673.9931427326424 500.0, 700.0 500.0, 700.0  " style="fill : none; stroke : black; stroke-width : 1; stroke-dasharray : 16.0, 16.0;" /><line style="fill : none; stroke : black; stroke-width : 1; stroke-dasharray : 1, 8.0;" x1="100.0" x2="700.0" y1="690.0" y2="90.0" /><path d=" M 100.0, 680.0   C  100.0, 680.0 102.69574561407188, 672.9588036436094 104.32726712203188, 670.185131498301   105.86119268667773, 667.5773775760408 107.64272288120469, 663.2537023377067 110.47545250206454, 662.1911812546026   114.52690194797006, 660.6715337662912 121.08158916929864, 664.5122968584591 124.89633932207926, 662.4699324508864   127.7797079673892, 660.9262168052367 128.38344450409036, 655.5585387333473 128.8970536079913, 652.3285111130675   129.56899760232912, 648.1027338740978 126.56176653905149, 641.7270435405685 128.77680644007384, 638.066128321419   130.53073855769458, 635.1673106613898 136.6059184905968, 636.366907830722 139.55928436080808, 634.7064706184224   142.17598085858208, 633.235315187928 145.00361661609475, 630.2286474031743 146.88200076071905, 627.8870513946024   148.8193239160172, 625.4719819420931 150.48018056325643, 621.6197859255126 152.14908922357412, 619.0120042337264   153.79333131593523, 616.4427657084094 155.34707936099642, 612.2795520626983 157.9194763199312, 610.6402557063526   160.90566025492822, 608.7372677452544 166.42510794090077, 609.8852955268577 169.42441482211237, 608.0030585848028   172.00167536028894, 606.3856799082012 173.9409430246583, 602.4577645501463 175.29783293290166, 599.7343410718611   176.79384537029392, 596.7316837663207 176.23083508773414, 591.2452527827596 178.83022231337216, 589.1245948286007   181.67209410505643, 586.8061107026907 187.38632852299062, 588.1603420719936 190.8743307346232, 587.0265676261208   193.86598629232898, 586.0541305643358 198.58891944371192, 584.9021465222488 200.1760397287066, 582.1861409964732   202.15290988807155, 578.803164717146 198.57983071554472, 571.9883246800864 201.30640793087488, 569.1743735749105   203.99110464516227, 566.4036450425384 211.03496555172862, 570.1704050151958 214.09515449076312, 567.8209845110678   216.8061332605379, 565.7396656007478 215.76336703181457, 559.9398783637968 217.30667836251132, 556.890372759085   218.6695165766948, 554.1974729599294 220.95315457360604, 550.4922790657621 223.59943844342322, 549.0409972162661   226.8002394097158, 547.2856056654153 232.22953726250827, 548.3377179452988 235.57318484437397, 546.8726079934859   238.3315812522698, 545.6639417302794 240.6635127969134, 541.9386337262754 243.2661890539625, 540.4234765793434   246.09898511706888, 538.774354377075 252.5139321678778, 539.606687217545 253.4502561101845, 536.4654080118345   255.0106877949335, 531.230305733922 248.29121829016987, 523.8952846805141 249.7609948009547, 518.6340110788738   250.62890163149416, 515.527215411169 256.41158881668076, 514.6232891792547 259.6263440622631, 514.3572247164511   264.5277636695481, 513.9515659725764 271.52113545069875, 518.7436136833171 275.88329270141514, 516.4720377318723   279.0843612562745, 514.8050940775713 275.55686391207905, 507.1019289754439 278.22528905196344, 504.67189845868967   281.014362403393, 502.131998329532 287.5871859254146, 505.1413030562335 290.6866891694736, 502.99116295246876   293.34210570443247, 501.1490879054563 293.78742952022725, 496.11226282765284 294.92493599534976, 493.087274154614   296.1084719826445, 489.9398784834687 297.497097838465, 485.670833114309 298.41607756343274, 482.436280098966   299.37592124497166, 479.05789732290566 299.1836858564702, 473.94851234484656 301.1829032336099, 471.0609701454123   302.9411856689553, 468.5214190247394 307.28649843065466, 467.22197763897555 309.98742779902216, 465.72335908709357   312.7477326874696, 464.19179585440594 316.30492624395237, 461.7069713906931 319.3738657671686, 460.967661431509   323.2899503028968, 460.0242735685782 329.83570916441795, 462.98057797176045 332.78076587150383, 460.2324259121133   335.62682000836867, 457.57665717283095 333.89261510128944, 451.2057203059505 334.0051196268743, 447.3146440437529   334.13151701247773, 442.94306997445875 332.03620837950604, 436.8364976790796 333.57558148454734, 432.7429702776949   334.64396576324395, 429.90190445308707 338.71563745934503, 427.07344259480703 341.7347158454415, 426.7599690148581   347.039544979829, 426.20916391240297 354.098446938882, 431.63990658546385 359.1993175462039, 430.0824350918896   362.29549080032047, 429.13706675113383 361.12884925717543, 422.44794471727437 363.40293379961963, 420.14391572157433   365.6668025302896, 417.8502370563494 370.3375591954107, 417.22977290849826 373.24895251096393, 415.84779880918774   376.09451873075704, 414.49707137822924 380.660262156917, 413.5346406248167 382.58289914804726, 411.0396098225401   384.69899241522853, 408.29352831757365 385.17130414513076, 403.3183808866539 385.5587025217486, 399.8732775725104   386.0367254743845, 395.6222570268384 382.06693815351707, 388.24288535859733 385.4419404868939, 385.6143799139248   389.2589319708508, 382.64164629574935 396.7717076272241, 388.6866444889431 401.4593201251895, 387.4896239284895   404.3750698922378, 386.74506314796224 407.3204266663233, 382.79870026832384 407.97277666295065, 379.86094484251964   408.98578671755354, 375.2990136710785 405.4227178747987, 368.8674622889854 406.59879155619603, 364.3448241120341   407.3539541803615, 361.4408161677362 410.8786834618452, 358.0550915559299 413.80995317555335, 357.4138501076605   418.52936032390295, 356.3814376139796 426.3619554552183, 362.6555645421546 429.8062285446076, 359.26798985298376   433.22274618771024, 355.9077137098014 426.0712251743489, 347.7446669778911 428.069456236547, 343.3890819211922   429.47008337545753, 340.33610634111346 435.57996480697096, 341.11942423531497 438.7014355069594, 339.8789255678736   441.66342287580454, 338.7018069154242 446.7104528096208, 338.1022311154929 448.3099752619018, 335.3453296990851   450.325601760845, 331.87124057832204 445.9698733801625, 324.513252953304 449.0864045252148, 321.9796233386671   452.54096940165067, 319.17118425391175 460.3216719268846, 325.2960722879757 463.9110910543438, 322.6621742440651   466.99263903615247, 320.4009495407667 463.009855598808, 312.99159327600785 465.39990766610293, 310.0088552320933   467.5580957469754, 307.31547888986705 473.7966776338214, 309.11427497833097 476.4931721644711, 306.95998410673064   478.972784441744, 304.9789654051092 478.26594682141604, 298.829973459564 481.12280125913156, 297.44747757766004   485.020521284939, 295.5612835128332 493.88575124183023, 301.732197014437 495.55365071395664, 297.73619140875417   497.9968949898054, 291.8825905260241 488.50508009121427, 283.7642903447526 489.45191702555763, 277.4923220966243   489.9321891804527, 274.3109382735996 496.13172769844635, 273.8992815158542 499.26348800712947, 273.16175745446515   503.09595951003297, 272.25921713548144 508.8310756463452, 273.8773694568976 512.3449250293027, 272.1010588529074   515.071731296148, 270.72261192506903 516.8487326367685, 266.4736917435124 518.0505699319692, 263.664568131843   519.431812711268, 260.43610973712475 519.2035413839689, 255.40919479700088 520.8199744855434, 252.29183706168624   522.2014020812472, 249.62769711240566 525.0251428005554, 246.38173183330386 527.7087136636334, 245.03844061604548   530.9702487354807, 243.40584299133897 536.2402213786054, 244.09997670128246 539.669104326301, 242.85669565498188   542.5722590678018, 241.80403876361393 546.106257985491, 239.50336303758962 548.466430107886, 237.51188581283589   550.7656499417031, 235.5718391991583 554.0423113338327, 232.76141650478263 555.0094369623068, 229.91275704352574   556.3144073397441, 226.068979045199 553.0514532091959, 219.52716991201592 555.6351890822187, 216.3963735397067   557.9882031225404, 213.54515027871105 565.0819852596112, 216.9249418268712 567.7977253343029, 214.41677416805987   570.414987170328, 211.99955775146128 568.5377513240107, 205.88986326112035 570.3392636617815, 202.81617687180744   571.8668768720541, 200.20980896962587 575.9411859173192, 198.5332373237519 578.2494969378038, 196.58427452409887   580.5446021386338, 194.64646171724024 582.8173746690554, 190.79294223527663 585.6751095070882, 189.8677514696525   589.6545409449765, 188.57941177845038 595.6262681706037, 190.9219772598648 599.6162791008217, 189.66678543965497   602.4852628334735, 188.76425033974664 605.8605430760589, 185.79662476936974 607.19087482644, 183.09924554154225   608.8496137172798, 179.73598834854576 606.2759955726133, 173.34524895775556 608.9584251188622, 170.72466021023376   611.6711802319046, 168.07444502230382 618.3596013783757, 171.25124957760542 621.497928033749, 169.12202750138943   624.1627975376615, 167.31402610413195 624.3141200549608, 162.14365088554473 625.8097703852851, 159.2917342291944   627.2406441528162, 156.5633339821448 629.1054592419831, 152.80086454853827 631.2282852114324, 150.56811343161087   633.3298237263443, 148.35775208595007 636.9908837106739, 146.38038293979938 639.5949897351757, 144.79268233162315   642.2705027286756, 143.16144552060427 647.6890860661259, 142.7853089487351 648.7995253969804, 139.8550823696969   650.4621521363403, 135.467744018719 645.9161069900193, 128.7429029854778 647.367957839478, 124.2813791884638   648.3119629001696, 121.38046065103404 653.0868715478307, 120.01409556270357 655.7438753987922, 118.51516112404693   658.5324050895125, 116.94202708996384 662.4653235976432, 115.23639577490871 665.4508581110919, 114.08000821261555   668.5917375321868, 112.86345088230985 674.5627756142053, 113.59912602066574 676.131431333658, 110.61844581145067   678.2409305441988, 106.61008217229133 673.6353812662228, 99.79787908284186 675.2035526930185, 95.54843154708055   676.2647124314093, 92.67288965267969 680.8389884298296, 90.90074724588683 683.7556133716159, 89.95835660194689   687.4360159757846, 88.76918176825147 693.2832074779326, 90.66272581444062 696.5806653654132, 88.64127297201333   698.9575437329611, 87.18416640806728 700.0, 80.0 700.0, 80.0  " style="fill : none; stroke : black; stroke-width : 1; stroke-dasharray : none;" /><line style="fill : none; stroke : black; stroke-width : 1; stroke-dasharray : 1, 8.0;" x1="100.0" x2="700.0" y1="670.0" y2="70.0" /></svg>