<?xml version="1.0" encoding="utf-8" ?>
<svg baseProfile="full" height="100%" version="1.1" viewBox="0,0,800,800" width="100%" xmlns="http://www.w3.org/2000/svg" xmlns:ev="http://www.w3.org/2001/xml-events" xmlns:xlink="http://www.w3.org/1999/xlink"><defs /><circle cx="420.0" cy="420.0" r="6" style="fill : black; stroke : black; stroke-width : 1; stroke-dasharray : none;" /><path d=" M 420.0, 420.0   C  420.0, 420.0 594.3769410125094, 604.1640786499875 695.0, 470.0   795.6230589874906, 335.8359213500126 570.0, 220.0 570.0, 220.0  " style="fill : none; stroke : black; stroke-width : 1; stroke-dasharray : 1, 8.0;" /><path d=" M 16.0, 6.3348481407635395  0, 0  16.0, -6.3348481407635395   C  16.0, -6.3348481407635395 13.76, -2.7239847005283218 13.76, 0   13.76, 2.7239847005283218 16.0, 6.3348481407635395 16.0, 6.3348481407635395   Z " style="fill : black; stroke : black; stroke-width : 1; stroke-dasharray : none;" transform="translate(570.0,220.0) rotate(27.1761737505292,0,0)" /><path d=" M 129.99999999999997, 200   C  129.99999999999997, 200.0 1.7662023334720658, 140.0 57.999999999999964, 140.0   248.6301130461816, 140.0 370.0, 200.0 370.0, 200  " style="fill : none; stroke : black; stroke-width : 1; stroke-dasharray : none;" /><path d=" M 16.0, 6.3348481407635395  0, 0  16.0, -6.3348481407635395   C  16.0, -6.3348481407635395 13.76, -2.7239847005283218 13.76, 0   13.76, 2.7239847005283218 16.0, 6.3348481407635395 16.0, 6.3348481407635395   Z " style="fill : black; stroke : black; stroke-width : 1; stroke-dasharray : none;" transform="translate(370.0,200) rotate(206.30579153582394,0,0)" /><path d=" M 129.99999999999997, 300   C  129.99999999999997, 300.0 145.76620233347208, 240.0 202.0, 240.0   309.0356949806932, 240.0 370.0, 300.0 370.0, 300  " style="fill : none; stroke : black; stroke-width : 1; stroke-dasharray : none;" /><path d=" M 16.0, 6.3348481407635395  0, 0  16.0, -6.3348481407635395   C  16.0, -6.3348481407635395 13.76, -2.7239847005283218 13.76, 0   13.76, 2.7239847005283218 16.0, 6.3348481407635395 16.0, 6.3348481407635395   Z " style="fill : black; stroke : black; stroke-width : 1; stroke-dasharray : none;" transform="translate(370.0,300) rotate(224.5432583404131,0,0)" /><path d=" M 129.99999999999997, 400   C  129.99999999999997, 400.0 190.96430501930678, 340.00000000000006 298.0, 340.00000000000006   354.2337976665279, 340.00000000000006 370.0, 400.0 370.0, 400  " style="fill : none; stroke : black; stroke-width : 1; stroke-dasharray : none;" /><path d=" M 16.0, 6.3348481407635395  0, 0  16.0, -6.3348481407635395   C  16.0, -6.3348481407635395 13.76, -2.7239847005283218 13.76, 0   13.76, 2.7239847005283218 16.0, 6.3348481407635395 16.0, 6.3348481407635395   Z " style="fill : black; stroke : black; stroke-width : 1; stroke-dasharray : none;" transform="translate(370.0,400) rotate(255.27722236843698,0,0)" /><path d=" M 129.99999999999997, 500   C  129.99999999999997, 500.0 221.56819747776424, 440.0 370.0, 440.0   406.0, 440.0 370.0, 500.0 370.0, 500  " style="fill : none; stroke : black; stroke-width : 1; stroke-dasharray : none;" /><path d=" M 16.0, 6.3348481407635395  0, 0  16.0, -6.3348481407635395   C  16.0, -6.3348481407635395 13.76, -2.7239847005283218 13.76, 0   13.76, 2.7239847005283218 16.0, 6.3348481407635395 16.0, 6.3348481407635395   Z " style="fill : black; stroke : black; stroke-width : 1; stroke-dasharray : none;" transform="translate(370.0,500) rotate(300.9637565320735,0,0)" /><path d=" M 129.99999999999997, 600   C  129.99999999999997, 600.0 291.5117041318189, 648.0 538.0, 648.0   642.8335824056394, 648.0 370.0, 600.0 370.0, 600  " style="fill : none; stroke : black; stroke-width : 1; stroke-dasharray : none;" /><path d=" M 16.0, 6.3348481407635395  0, 0  16.0, -6.3348481407635395   C  16.0, -6.3348481407635395 13.76, -2.7239847005283218 13.76, 0   13.76, 2.7239847005283218 16.0, 6.3348481407635395 16.0, 6.3348481407635395   Z " style="fill : black; stroke : black; stroke-width : 1; stroke-dasharray : none;" transform="translate(370.0,600) rotate(9.978018043263447,0,0)" /></svg>