<?xml version="1.0" encoding="utf-8" ?>
<svg baseProfile="full" height="100%" version="1.1" viewBox="0,0,1261,1261" width="100%" xmlns="http://www.w3.org/2000/svg" xmlns:ev="http://www.w3.org/2001/xml-events" xmlns:xlink="http://www.w3.org/1999/xlink"><defs /><path d=" M 840.4203192562056, 254.49000994588096   C  770.104588085526, 187.27170219107467 577.434304847872, 207.46396698587006 517.5220962160256, 284.10031739702447   457.6252680345218, 360.71699399529734 570.4781596477806, 507.3236405137495 566.7884885409418, 604.5045619247563   565.9692884479585, 626.0811787967968 522.8574129944092, 629.169885977672 504.0201398876217, 639.7234932441695   457.1357384743819, 665.9905413798078 321.45154615362924, 680.3543596803241 347.71625822236217, 727.2400698016852   389.3983817189959, 801.647737184129 535.5417639198945, 794.2692070305584 611.8889511199312, 832.2824598659522   655.9576898730921, 854.224278154184 698.0152969863146, 933.3522532771428 746.6741017302115, 925.8811190939382   827.0620350136996, 913.5382545408016 900.118920925388, 812.6808587409256 973.1155813316298, 776.819267971644   1011.7511145933071, 757.8385135744912 1134.0134431334022, 783.4959384750255 1113.211927146547, 745.809463440236   1080.4941323677401, 686.534055008272 939.1471131238715, 714.9283706306582 906.281506072622, 655.7347897868106   847.0678650488775, 549.0862972903258 928.5964289493934, 338.7819426229562 840.4203192562056, 254.49000994588096   Z " style="fill : none; stroke : black; stroke-width : 1; stroke-dasharray : none;" /><circle cx="735.0" cy="631.0" r="6" style="fill : black; stroke : black; stroke-width : 1; stroke-dasharray : none;" /></svg>