<?xml version="1.0" encoding="utf-8" ?>
<svg baseProfile="full" height="100%" version="1.1" viewBox="0,0,361,361" width="100%" xmlns="http://www.w3.org/2000/svg" xmlns:ev="http://www.w3.org/2001/xml-events" xmlns:xlink="http://www.w3.org/1999/xlink"><defs /><path d=" M 120.00000000000001, 111.0   C  120.00000000000001, 111.0 172.01143986676166, 113.76164587383995 192.12024473438146, 122.45439743467901   203.738642939569, 127.47686643755954 220.87721660423787, 141.57235261295648 219.91889981715698, 154.19352532688444   218.64771579989068, 170.93520537401545 199.0761331384417, 188.0383784181119 186.31226582407953, 198.9463319744677   166.18721743961714, 216.14512350766682 134.60900291958916, 232.76607078664927 111.95334312832743, 246.46048870425355   91.46238576614331, 258.84643271272563 62.3792533378009, 272.4467739565265 42.53950381723459, 285.8510748171101   34.79566595466636, 291.0830326307831 14.973726576359546, 300.73103436953494 20.72911259019461, 308.0941817426052   27.970756703082643, 317.35877193661565 48.37962077001742, 310.3213764572437 59.92577357620211, 308.0941817426052   83.28481183487747, 303.5883409294737 114.20938727582828, 295.3021257116299 136.04112808577602, 285.85107481711015   157.2625704492832, 276.66422464429957 186.43468700728417, 263.2857930894586 202.29838658936558, 246.4604887042536   212.59568199524418, 235.53900543663187 222.45890151296686, 213.27267680096708 217.9790652042268, 198.94633197446777   212.3263588800843, 180.86919378872574 189.49031025412916, 164.26004494111186 173.44658261278008, 154.19352532688444   152.19334240013535, 140.85833513610376 120.04440988084812, 129.8489952575483 96.0684335712442, 122.45439743467901   77.80460080537708, 116.82152158162637 52.51020086072609, 111.00000000000001 33.39745962155622, 111.0   28.942768329686075, 111.0 20.916098806329984, 119.19085571553285 23.948188836862784, 122.45439743467898   35.968856472123875, 135.39265122154652 58.376608125675986, 145.11939739101658 73.527682795623, 154.19352532688436   96.70332555257545, 168.0736461733411 129.26966575072004, 183.84214126143348 151.66679938014724, 198.94633197446763   170.44640756560176, 211.61093398302455 197.21321284807425, 228.0045722440298 210.3450434610382, 246.46048870425355   217.217981325341, 256.1199467644768 221.0724228742718, 276.728278459893 213.5016242685416, 285.8510748171101   202.25875235426685, 299.3987117687222 176.55955880596818, 305.18378397819555 159.19666098600754, 308.0941817426052   136.0022540342652, 311.9820667511522 103.99774596573508, 311.9820667511522 80.80333901399273, 308.09418174260526   63.440441194032076, 305.1837839781956 37.74124764573342, 299.3987117687222 26.498375731458612, 285.8510748171101   18.927577125728398, 276.72827845989303 22.78201867465902, 256.1199467644769 29.65495653896182, 246.4604887042536   42.78678715192575, 228.00457224402987 69.55359243439833, 211.61093398302472 88.33320061985283, 198.9463319744678   110.73033424928002, 183.84214126143368 143.2966744474245, 168.07364617334113 166.4723172043769, 154.19352532688438   181.6233918743239, 145.11939739101658 204.031143527876, 135.39265122154657 216.05181116313713, 122.4543974346791   219.08390119366993, 119.19085571553299 211.05723167031414, 111.0 206.60254037844402, 111.0   187.48979913927406, 110.99999999999997 162.19539919462295, 116.82152158162636 143.93156642875576, 122.45439743467898   119.95559011915184, 129.84899525754824 87.8066575998646, 140.85833513610362 66.55341738721988, 154.1935253268843   50.509689745870816, 164.26004494111172 27.67364111991577, 180.86919378872565 22.02093479577324, 198.94633197446768   17.54109848703316, 213.2726768009669 27.40431800475565, 235.53900543663167 37.70161341063416, 246.46048870425335   53.56531299271553, 263.28579308945837 82.73742955071644, 276.66422464429945 103.95887191422362, 285.85107481711003   125.79061272417147, 295.30212571162986 156.7151881651224, 303.5883409294736 180.07422642379788, 308.09418174260514   191.62037922998257, 310.3213764572436 212.02924329691731, 317.3587719366156 219.2708874098054, 308.0941817426052   225.02627342364048, 300.731034369535 205.2043340453337, 291.0830326307832 197.4604961827655, 285.85107481711015   177.6207466621993, 272.4467739565266 148.53761423385703, 258.8464327127258 128.04665687167304, 246.4604887042538   105.39099708041127, 232.7660707866495 73.81278256038325, 216.14512350766697 53.68773417592082, 198.94633197446782   40.923866861558594, 188.038378418112 21.352284200109448, 170.93520537401554 20.08110018284305, 154.19352532688444   19.1227833957621, 141.57235261295654 36.26135706043098, 127.47686643755962 47.87975526561847, 122.4543974346791   67.98856013323825, 113.76164587384004 119.99999999999989, 111.0 119.99999999999989, 111.0  " style="fill : none; stroke : black; stroke-width : 1; stroke-dasharray : none;" /><polyline points="120.00000000000001,111.0 192.12024473438146,122.45439743467901 219.91889981715698,154.19352532688444 186.31226582407953,198.9463319744677 111.95334312832743,246.46048870425355 42.53950381723459,285.8510748171101 20.72911259019461,308.0941817426052 59.92577357620211,308.0941817426052 136.04112808577602,285.85107481711015 202.29838658936558,246.4604887042536 217.9790652042268,198.94633197446777 173.44658261278008,154.19352532688444 96.0684335712442,122.45439743467901 33.39745962155622,111.0 23.948188836862784,122.45439743467898 73.527682795623,154.19352532688436 151.66679938014724,198.94633197446763 210.3450434610382,246.46048870425355 213.5016242685416,285.8510748171101 159.19666098600754,308.0941817426052 80.80333901399273,308.09418174260526 26.498375731458612,285.8510748171101 29.65495653896182,246.4604887042536 88.33320061985283,198.9463319744678 166.4723172043769,154.19352532688438 216.05181116313713,122.4543974346791 206.60254037844402,111.0 143.93156642875576,122.45439743467898 66.55341738721988,154.1935253268843 22.02093479577324,198.94633197446768 37.70161341063416,246.46048870425335 103.95887191422362,285.85107481711003 180.07422642379788,308.09418174260514 219.2708874098054,308.0941817426052 197.4604961827655,285.85107481711015 128.04665687167304,246.4604887042538 53.68773417592082,198.94633197446782 20.08110018284305,154.19352532688444 47.87975526561847,122.4543974346791 119.99999999999989,111.0" style="fill : none; stroke : blue; stroke-width : 1; stroke-dasharray : none;" /><polyline points="220.00000000000003,111.0 224.72244242565037,111.30981295978324 229.43434723566628,112.23733215773206 234.1252003279542,113.77681044448696 238.78453457503463,115.91870881355706 243.40195318029626,118.64975550747695 247.9671528773146,121.95302825305552 252.46994692046835,125.80805911616727 256.9002878155519,130.19096132637702 261.24828973966396,135.0745772855611 265.5042506003437,140.4286468434243 269.65867368473306,146.21999479723448 273.7022888504566,152.4127364539775 277.62607321093367,158.96849998121644 281.4212712689668,165.84666416891108 285.07941445367936,173.004610128964 288.5923400172088,180.39798537289823 291.9522092489888,187.98097863137153 295.15152496697766,195.7066037126754 298.183148246803,203.52699064135757 301.04031435149363,211.39368227299752 303.7166478262529,219.25793454723322 306.206176724591,227.07101851859343 308.5033459340731,234.78452229367412 310.6030295719473,242.3506510037781 312.50054242299325,249.72252295430985 314.1916503940694,256.8544601159066 315.6725799620305,263.70227115734787 316.94002659393306,270.223525266498 317.9911621207408,276.3778150626158 318.8236410480754,282.1270069709595 319.4356057899317,287.4354775082992 319.8256908136785,292.270334015253 319.9930256870955,296.60161846773 319.9372370206485,300.4024931046125 319.65844930066703,303.6494067214802 319.1572846115666,306.3222405999769 318.43486124773545,308.40443316860467 317.4927912181824,309.88308262251286 316.3331766495142,310.7490268664256 314.9586050952693,310.99690028535855 313.37214376207424,310.62516699136035 311.57733266550576,309.63613034027225 309.57817673093257,308.03591865953837 307.3791368569603,305.83444727550057 304.9851199614225,303.04535707546603 302.40146803212855,299.6859299852344 299.63394620679946,295.7769818858056 296.6887299087918,291.3427336327861 293.57239106731316,286.41066097768964 290.2918834528787,281.01132432105896 286.85452716072945,275.1781793523032 283.2679922768381,268.9473697495747 279.54028176294753,262.3575032241707 275.6797135988342,255.44941229714755 271.6949022216426,248.26590129043637 267.5947393037074,240.8514811001695 263.3883739117558,233.25209339563145 259.0851920917624,225.51482595276804 254.69479592500957,217.68762088612118 250.22698210209074,209.81897758706157 245.69172006266194,201.95765220898843 241.09912974972426,194.15235556156586 236.45945902807338,186.45145128592011 231.78306081730668,178.90265618098425 227.08036999041076,171.55274453784344 222.36188008947985,164.44725831410372 217.63811991052026,157.63022494411865 212.91963000958933,151.14388453359427 208.2169391826934,145.02842812894536 203.54054097192665,139.32174868315488 198.90087025027586,134.05920626121573 194.30827993733814,129.27340894000224 189.7730178979094,124.99401076017463 185.30520407499054,121.2475279820566 180.91480790823775,118.05717478401345 176.6116260882442,115.44271942138593 172.4052606962927,113.42036173725646 168.30509777835752,112.00263278402215 164.32028640116587,111.19831717774656 160.45971823705253,111.01239866640117 156.73200772316198,111.44602924927162 153.14547283927058,112.49652203887126 149.7081165471214,114.15736790959261 146.4276089326869,116.41827582993653 143.31127009120829,119.26523662841106 140.36605379320062,122.680609797989 137.59853196787154,126.64323280126172 135.0148800385775,131.12855219900612 132.62086314303977,136.10877578965864 130.42182326906746,141.5530448169991 128.4226673344943,147.42762517900314 126.62785623792585,153.69611645308208 125.04139490473072,160.31967744253595 123.66682335048588,167.25726684667583 122.50720878181767,174.46589756336041 121.56513875226457,181.90090304822348 120.84271538843345,189.51621408015959 120.34155069933303,197.2646442181591 120.0627629793515,205.09818218072766 120.00697431290455,212.96828933623001 120.1743091863216,220.82620046083295 120.56439421006834,228.6232259004722 121.17635895192464,236.31105326456813 122.00883787925922,243.84204678212154 123.05997340606697,251.16954246529696 124.32742003796953,258.2481372515859 125.80834960593059,265.03397033295164 127.49945757700674,271.48499492876374 129.3969704280527,277.56123881854853 131.4966540659269,283.22505202022904 133.793823275409,288.44134007917194 136.28335217374715,293.17778152252447 138.95968564850634,297.4050281314387 141.81685175319703,301.0968867902419 144.84847503302234,304.23048178577017 148.04779075101115,306.786396551217 151.40765998279116,308.74879397621385 154.92058554632058,310.10551453767033 158.57872873103324,310.8481516433316 162.3739267890663,310.97210372120276 166.2977111495434,310.47660273208135 170.3413263152669,309.3647189285278 174.49574939965626,307.64334183078427 178.75171026033604,305.323137537522 183.09971218444804,302.41848263592874 187.53005307953163,298.9473751206489 192.03284712268535,294.9313228735432 196.59804681970377,290.39521039527784 201.21546542496534,285.367144614509 205.87479967204575,279.8782807300672 210.56565276433378,273.96262916526996 215.2775575743496,267.6568448305243 220.00000000000003,261.0000000000001 224.72244242565029,254.03334220969253 229.43434723566617,246.8000386769981 234.12520032795413,239.3449088254461 238.7845345750345,231.714146571934 243.40195318029623,223.95503409724537 247.96715287731453,216.1156488734015 252.46994692046835,208.24456576318386 256.90028781555185,200.39055603769432 261.24828973966385,192.60228517691712 265.50425060034365,184.9280113257915 269.658673684733,177.41528627423787 273.7022888504566,170.11066081394114 277.62607321093367,163.05939629758086 281.42127126896673,156.30518418775742 285.0794144536793,149.8898753333657 288.59234001720876,143.85322065088798 291.95220924898877,138.23262481741148 295.1515249669776,133.06291450155442 298.18314824680294,128.37612256840055 301.04031435149363,124.20128959556376 303.7166478262528,120.56428393024228 306.20617672459093,117.48764140223466 308.5033459340731,114.99042568609678 310.6030295719473,113.08811017767329 312.50054242299325,111.79248211692641 314.19165039406937,111.11156955114166 315.6725799620305,111.04959159106613 316.940026593933,111.60693226820504 317.9911621207408,112.78013815526242 318.8236410480754,114.5619397644723 319.4356057899317,116.94129659122862 319.8256908136784,119.90346552391384 319.9930256870955,123.43009219603985 319.9372370206485,127.49932471465965 319.65844930066703,132.08594906036058 319.1572846115666,137.16154531986342 318.43486124773545,142.69466378317165 317.4927912181824,148.6510198141266 316.3331766495142,154.99370628689846 314.9586050952693,161.68342227210528 313.37214376207424,168.67871655555746 311.57733266550576,175.93624448072444 309.57817673093257,183.41103652346231 307.3791368569603,191.0567769348407 304.9851199614226,198.82609072552762 302.4014680321286,206.6708372135037 299.63394620679946,214.54240831620533 296.6887299087918,222.39202973880265 293.5723910673132,230.17106319237365 290.2918834528788,237.83130776934837 286.8545271607296,245.3252986088254 283.2679922768381,252.60660100115354 279.54028176294753,259.63009810942805 275.67971359883427,266.3522705251058 271.6949022216427,272.7314659255415 267.5947393037074,278.728157162574 263.3883739117559,284.30518718298254 259.0851920917624,289.42799926321857 254.69479592500966,294.06485113182225 250.22698210209083,298.1870116527638 245.69172006266191,301.76893885100935 241.09912974972428,304.7884381772185 236.45945902807347,307.226800030925 231.78306081730682,309.06891569007047 227.08036999041087,310.3033709285624 222.36188008947983,310.92251674177766 217.63811991052026,310.92251674177766 212.9196300095896,310.30337092856246 208.2169391826935,309.0689156900705 203.54054097192665,307.226800030925 198.90087025027583,304.78843817721855 194.30827993733834,301.7689388510095 189.77301789790943,298.1870116527639 185.30520407499046,294.0648511318222 180.91480790823792,289.4279992632188 176.61162608824438,284.3051871829828 172.40526069629274,278.7281571625741 168.3050977783574,272.73146592554156 164.32028640116596,266.352270525106 160.45971823705267,259.63009810942833 156.732007723162,252.60660100115396 153.14547283927052,245.3252986088255 149.70811654712145,237.83130776934848 146.42760893268698,230.17106319237428 143.31127009120829,222.39202973880293 140.36605379320065,214.54240831620524 137.59853196787157,206.67083721350417 135.01488003857756,198.8260907255281 132.62086314303983,191.05677693484083 130.4218232690675,183.4110365234626 128.4226673344943,175.93624448072472 126.62785623792594,168.6787165555577 125.04139490473074,161.6834222721057 123.66682335048584,154.9937062868986 122.50720878181767,148.6510198141267 121.56513875226463,142.69466378317213 120.84271538843348,137.1615453198636 120.34155069933303,132.08594906036058 120.0627629793515,127.4993247146599 120.00697431290455,123.4300921960401 120.1743091863216,119.90346552391398 120.56439421006834,116.9412965912287 121.17635895192463,114.56193976447236 122.0088378792592,112.7801381552625 123.05997340606696,111.6069322682051 124.32742003796957,111.04959159106613 125.80834960593057,111.1115695511416 127.4994575770067,111.79248211692632 129.3969704280527,113.08811017767326 131.4966540659269,114.99042568609676 133.793823275409,117.4876414022346 136.28335217374706,120.56428393024206 138.95968564850628,124.20128959556365 141.816851753197,128.3761225684006 144.84847503302234,133.06291450155425 148.047790751011,138.23262481741116 151.40765998279107,143.8532206508879 154.92058554632064,149.8898753333656 158.57872873103318,156.3051841877572 162.37392678906613,163.0593962975806 166.29771114954332,170.11066081394088 170.34132631526694,177.41528627423776 174.49574939965632,184.92801132579137 178.75171026033587,192.60228517691647 183.099712184448,200.39055603769404 187.5300530795317,208.2445657631839 192.03284712268524,216.11564887340103 196.59804681970357,223.9550340972449 201.21546542496534,231.7141465719339 205.8747996720459,239.34490882544583 210.56565276433363,246.8000386769978 215.2775575743495,254.03334220969228 219.99999999999997,260.9999999999997 224.72244242565029,267.6568448305242 229.43434723566614,273.9626291652699 234.12520032795402,279.87828073006676 238.78453457503443,285.36714461450885 243.40195318029618,290.39521039527784 247.9671528773145,294.93132287354297 252.46994692046803,298.9473751206487 256.90028781555174,302.4184826359287 261.2482897396639,305.3231375375219 265.50425060034365,307.6433418307842 269.65867368473283,309.36471892852774 273.7022888504565,310.47660273208135 277.62607321093367,310.97210372120276 281.4212712689668,310.8481516433316 285.0794144536792,310.1055145376704 288.59234001720876,308.7487939762139 291.9522092489888,306.7863965512171 295.1515249669775,304.23048178577034 298.1831482468029,301.0968867902421 301.04031435149363,297.4050281314389 303.71664782625294,293.17778152252464 306.2061767245909,288.4413400791721 308.503345934073,283.2250520202294 310.6030295719473,277.56123881854865 312.50054242299325,271.48499492876385 314.19165039406937,265.0339703329519 315.67257996203045,258.2481372515862 316.940026593933,251.16954246529718 317.9911621207408,243.84204678212168 318.8236410480754,236.31105326456827 319.4356057899316,228.62322590047265 319.8256908136784,220.82620046083323 319.9930256870955,212.96828933622996 319.9372370206485,205.09818218072803 319.65844930066703,197.26464421815956 319.1572846115666,189.5162140801597 318.43486124773545,181.90090304822368 317.4927912181824,174.4658975633607 316.33317664951426,167.2572668466761 314.9586050952693,160.31967744253632 313.3721437620742,153.69611645308217 311.5773326655058,147.42762517900326 309.5781767309327,141.5530448169995 307.3791368569603,136.1087757896588 304.9851199614225,131.12855219900618 302.40146803212866,126.64323280126195 299.6339462067996,122.6806097979892 296.6887299087918,119.26523662841115 293.5723910673133,116.41827582993659 290.2918834528788,114.1573679095927 286.8545271607296,112.49652203887138 283.26799227683824,111.4460292492717 279.5402817629476,111.01239866640117 275.67971359883427,111.19831717774653 271.6949022216427,112.00263278402207 267.59473930370757,113.42036173725637 263.38837391175593,115.44271942138593 259.0851920917624,118.05717478401326 254.69479592500983,121.24752798205637 250.22698210209086,124.99401076017455 245.69172006266194,129.27340894000207 241.09912974972428,134.05920626121548 236.45945902807367,139.32174868315462 231.78306081730682,145.02842812894497 227.0803699904107,151.1438845335941 222.36188008948002,157.63022494411848 217.6381199105205,164.44725831410346 212.9196300095894,171.5527445378431 208.21693918269335,178.90265618098422 203.54054097192682,186.45145128592 198.90087025027603,194.15235556156532 194.3082799373382,201.95765220898824 189.7730178979093,209.81897758706165 185.30520407499048,217.68762088612078 180.9148079082381,225.51482595276755 176.61162608824426,233.25209339563133 172.40526069629274,240.85148110016928 168.30509777835758,248.2659012904361 164.320286401166,255.4494122971473 160.4597182370527,262.3575032241704 156.7320077231619,268.9473697495746 153.1454728392708,275.17817935230306 149.7081165471216,281.0113243210585 146.42760893268684,286.4106609776895 143.31127009120829,291.3427336327861 140.36605379320065,295.7769818858054 137.59853196787157,299.68592998523417 135.0148800385776,303.045357075466 132.62086314303986,305.83444727550045 130.42182326906757,308.0359186595383 128.42266733449438,309.6361303402722 126.62785623792594,310.6251669913603 125.0413949047307,310.99690028535855 123.66682335048587,310.7490268664256 122.50720878181775,309.8830826225129 121.5651387522646,308.4044331686047 120.8427153884335,306.3222405999769 120.34155069933306,303.6494067214803 120.0627629793515,300.40249310461274 120.00697431290455,296.6016184677301 120.17430918632161,292.2703340152531 120.5643942100683,287.4354775082994 121.1763589519246,282.12700697095977 122.00883787925925,276.3778150626162 123.05997340606696,270.22352526649814 124.3274200379695,263.70227115734804 125.80834960593054,256.85446011590716 127.49945757700667,249.72252295431014 129.3969704280526,242.35065100377818 131.4966540659268,234.78452229367423 133.79382327540893,227.07101851859397 136.28335217374718,219.25793454723348 138.95968564850637,211.39368227299747 141.81685175319697,203.5269906413579 144.8484750330223,195.70660371267581 148.04779075101112,187.98097863137164 151.40765998279107,180.3979853728984 154.9205855463205,173.00461012896423 158.57872873103304,165.84666416891133 162.3739267890661,158.96849998121678 166.29771114954343,152.41273645397757 170.34132631526694,146.21999479723456 174.495749399656,140.42864684342476 178.751710260336,135.07457728556128 183.09971218444798,130.19096132637702 187.5300530795315,125.8080591161675 192.0328471226852,121.95302825305575 196.59804681970354,118.64975550747698 201.21546542496546,115.91870881355715 205.87479967204553,113.77681044448701 210.5656527643334,112.23733215773214 215.27755757434966,111.3098129597833 219.99999999999994,111.0" style="fill : none; stroke : red; stroke-width : 1; stroke-dasharray : none;" /><line style="fill : none; stroke : red; stroke-width : 1; stroke-dasharray : none;" x1="219.99999999999994" x2="220.00000000000003" y1="111.0" y2="111.0" /><path d=" M 220.00000000000003, 111.0   C  233.9416951613131, 120.21826939471201 256.1024203132683, 128.6198343698407 266.4723172043769, 141.72756464904006   281.65814202059124, 160.92271170289177 293.87905860734315, 192.04447352350877 302.29838658936563, 215.02659401094152   309.81411864759093, 235.54218148801976 316.7291318993676, 264.1504979393899 319.2708874098054, 285.8510748171101   320.16035585315376, 293.4450303552889 320.7133830300136, 313.2153863794141 313.5016242685415, 310.675730813421   300.6383194811345, 306.1458561072771 293.52074057681784, 285.821336195008 286.3122658240796, 274.2445375595378   272.61074564559095, 252.23991861487949 257.7526364326904, 220.87605915123586 243.9315664287558, 198.94633197446768   230.64464672288625, 177.86413471431385 214.0436119157373, 148.31533663532028 196.06843357124427, 131.05572365964986   186.03904646479947, 121.42559167859783 166.88142766655267, 107.90697877510709 153.68773417592053, 112.29497373620873   139.46923640736412, 117.02380092983418 130.50704197113586, 139.7554478786752 126.49837573145855, 154.19352532688436   120.31649800785402, 176.45889340999662 118.90304005704371, 207.96721205088275 120.7291125901946, 231.00256937760432   122.31067132499291, 250.95345847312876 126.39278618032888, 279.006899954669 137.70161341063437, 295.5190085543795   144.13804269644902, 304.9168901558352 163.02356194000836, 312.50000125739575 173.52768279562318, 308.0941817426052   191.83167978422173, 300.416803669796 208.15131619076917, 276.92441935583054 220.00000000000003, 261.0000000000001   236.23239946614612, 239.1839451189603 252.58489383975638, 206.55710121239363 266.4723172043768, 183.17825360835474   277.2744954605606, 164.9932762650154 289.2105997239685, 139.07036237873444 302.2983865893656, 122.4543974346791   305.65956302198396, 118.18712212300417 317.9768996089133, 110.8706813301153 319.2708874098054, 116.14635580528545   323.0087125126405, 131.38571777924042 317.3490111945992, 152.9186728726853 313.5016242685415, 168.13074385969455   307.40253373672067, 192.24576007963134 297.7156820074575, 224.35404141049227 286.3122658240796, 246.46048870425335   276.59445733737056, 265.2992487449014 261.89493076615634, 291.74395736858753 243.9315664287559, 302.9979443658824   231.7634015837884, 310.62125848310984 208.2365984162119, 310.6212584831099 196.06843357124438, 302.9979443658825   178.10506923384395, 291.74395736858776 163.40554266262956, 265.2992487449018 153.6877341759205, 246.4604887042538   142.28431799254255, 224.3540414104926 132.59746626327941, 192.24576007963142 126.49837573145857, 168.1307438596945   122.65098880540086, 152.91867287268525 116.99128748735959, 131.3857177792404 120.7291125901946, 116.14635580528542   122.02310039108671, 110.87068133011529 134.34043697801602, 118.18712212300412 137.7016134106344, 122.45439743467901   150.7894002760314, 139.07036237873427 162.7255045394392, 164.99327626501517 173.527682795623, 183.17825360835442   187.41510616024348, 206.55710121239332 203.76760053385388, 239.18394511895988 219.99999999999997, 260.9999999999997   231.84868380923086, 276.9244193558302 248.16832021577818, 300.4168036697959 266.4723172043768, 308.0941817426052   276.9764380599916, 312.50000125739575 295.8619573035509, 304.9168901558351 302.2983865893656, 295.51900855437947   313.6072138196711, 279.006899954669 317.6893286750071, 250.95345847312885 319.2708874098054, 231.00256937760446   321.09695994295635, 207.96721205088295 319.68350199214603, 176.45889340999693 313.50162426854155, 154.1935253268847   309.4929580288642, 139.75544787867545 300.53076359263605, 117.02380092983431 286.3122658240796, 112.29497373620876   273.1185723334475, 107.90697877510706 253.9609535352007, 121.42559167859785 243.93156642875593, 131.05572365964986   225.95638808426287, 148.31533663532028 209.3553532771138, 177.86413471431376 196.06843357124424, 198.94633197446763   182.24736356730966, 220.87605915123578 167.3892543544091, 252.2399186148794 153.68773417592053, 274.24453755953766   146.4792594231823, 285.8213361950079 139.36168051886557, 306.1458561072769 126.49837573145861, 310.67573081342096   119.28661696998667, 313.2153863794141 119.8396441468463, 293.44503035528913 120.72911259019459, 285.85107481711043   123.27086810063244, 264.15049793939016 130.18588135240907, 235.54218148801993 137.7016134106344, 215.0265940109416   146.12094139265685, 192.04447352350888 158.34185797940867, 160.92271170289183 173.52768279562298, 141.72756464904015   183.89757968673163, 128.61983436984076 206.05830483868684, 120.21826939471202 219.99999999999994, 111.0   219.99999999999997, 110.99999999999999 220.0, 110.99999999999999 220.00000000000003, 111.0   Z " style="fill : none; stroke : black; stroke-width : 1; stroke-dasharray : 1, 3.61;" /><path d=" M 160.0, 211.0   C  159.33359208679212, 206.57867238383645 159.0965696641477, 200.53486337357555 157.77864028930705, 196.2622412794548   156.4607109144664, 191.98961918533405 153.83069365688866, 186.52833207661934 151.31193871579976, 182.8339970968189   148.79318377471085, 179.13966211701847 144.67026817038408, 174.69621586680128 141.17449009293668, 171.9084258765985   137.67871201548928, 169.12063588639572 132.42923720897502, 166.08985019375058 128.26705121831975, 164.4563125677898   124.10486522766448, 162.82277494182904 118.19527009246231, 161.47394841593135 113.73650467932124, 161.139810140941   109.27773926618016, 160.80567186595064 103.23311726388386, 161.2586536628542 98.87395330218429, 162.25360439090883   94.51478934048473, 163.24855511896348 88.87223166238509, 165.46309581813543 85.00000000000001, 167.69872981077805   81.12776833761494, 169.93436380342067 76.38864099536762, 173.71369174538788 73.3474064085087, 176.991363111454   70.30617182164978, 180.26903447752014 66.89156707693125, 185.2773397893313 64.95155660487906, 189.3058130441221   63.01154613282687, 193.33428629891287 61.224866601951476, 199.12655907502773 60.558458688743585, 203.54788669119128   59.892050775535694, 207.96921430735483 59.89205077553569, 214.03078569264514 60.55845868874358, 218.4521133088087   61.22486660195147, 222.87344092497227 63.011546132826865, 228.66571370108713 64.95155660487906, 232.6941869558779   66.89156707693125, 236.7226602106687 70.30617182164978, 241.73096552247986 73.3474064085087, 245.008636888546   76.38864099536761, 248.2863082546121 81.12776833761492, 252.0656361965793 84.99999999999999, 254.30127018922192   88.87223166238505, 256.53690418186454 94.51478934048468, 258.75144488103655 98.87395330218423, 259.74639560909117   103.2331172638838, 260.7413463371458 109.2777392661801, 261.19432813404933 113.7365046793212, 260.860189859059   118.19527009246228, 260.5260515840687 124.10486522766446, 259.177225058171 128.26705121831975, 257.5436874322102   132.42923720897502, 255.91014980624945 137.67871201548928, 252.87936411360428 141.17449009293668, 250.0915741234015   144.67026817038408, 247.30378413319872 148.79318377471085, 242.86033788298155 151.31193871579973, 239.16600290318115   153.83069365688863, 235.47166792338072 156.4607109144664, 230.010380814666 157.77864028930705, 225.73775872054523   159.0965696641477, 221.46513662642448 159.33359208679212, 215.42132761616358 160.0, 211.00000000000003   160.0, 211.00000000000003 160.0, 211.0 160.0, 211.0   Z " style="fill : none; stroke : black; stroke-width : 1; stroke-dasharray : none;" /><path d=" M 135.0, 211.0   C  134.66679604339606, 208.7893361919182 134.54828483207385, 205.76743168678777 133.88932014465354, 203.6311206397274   133.2303554572332, 201.49480959266702 131.9153468284443, 198.76416603830967 130.65596935789986, 196.91699854840945   129.3965918873554, 195.06983105850924 127.33513408519204, 192.84810793340066 125.58724504646834, 191.45421293829926   123.83935600774464, 190.06031794319787 121.21461860448753, 188.5449250968753 119.13352560915989, 187.7281562838949   117.05243261383225, 186.9113874709145 114.09763504623116, 186.23697420796566 111.86825233966063, 186.0699050704705   109.63886963309008, 185.90283593297534 106.61655863194194, 186.1293268314271 104.43697665109215, 186.62680219545442   102.25739467024238, 187.12427755948173 99.43611583119255, 188.23154790906776 97.50000000000001, 189.34936490538905   95.56388416880748, 190.46718190171035 93.1943204976838, 192.35684587269395 91.67370320425435, 193.995681555727   90.15308591082488, 195.63451723876005 88.44578353846563, 198.13866989466567 87.47577830243954, 200.15290652206104   86.50577306641344, 202.16714314945642 85.61243330097574, 205.06327953751384 85.2792293443718, 207.27394334559563   84.94602538776786, 209.4846071536774 84.94602538776786, 212.51539284632256 85.2792293443718, 214.72605665440432   85.61243330097575, 216.9367204624861 86.50577306641344, 219.83285685054355 87.47577830243954, 221.84709347793896   88.44578353846563, 223.86133010533433 90.15308591082488, 226.36548276123995 91.67370320425435, 228.004318444273   93.1943204976838, 229.64315412730605 95.56388416880746, 231.53281809828965 97.5, 232.65063509461095   99.43611583119254, 233.76845209093224 102.25739467024235, 234.87572244051827 104.43697665109212, 235.37319780454558   106.61655863194191, 235.8706731685729 109.63886963309005, 236.09716406702466 111.8682523396606, 235.9300949295295   114.09763504623113, 235.76302579203434 117.05243261383222, 235.08861252908548 119.13352560915986, 234.2718437161051   121.2146186044875, 233.45507490312474 123.83935600774464, 231.93968205680216 125.58724504646834, 230.54578706170076   127.33513408519204, 229.15189206659937 129.3965918873554, 226.93016894149076 130.65596935789986, 225.08300145159055   131.9153468284443, 223.23583396169033 133.2303554572332, 220.50519040733298 133.8893201446535, 218.36887936027262   134.54828483207385, 216.23256831321223 134.66679604339606, 213.2106638080818 135.0, 211.0   135.0, 211.0 135.0, 211.0 135.0, 211.0   Z " style="fill : none; stroke : black; stroke-width : 1; stroke-dasharray : none;" /></svg>