<?xml version="1.0" encoding="utf-8" ?>
<svg baseProfile="full" height="100%" version="1.1" viewBox="0,0,360,300" width="100%" xmlns="http://www.w3.org/2000/svg" xmlns:ev="http://www.w3.org/2001/xml-events" xmlns:xlink="http://www.w3.org/1999/xlink"><defs /><path d=" M 120.00000000000001, 50.0   C  120.00000000000001, 50.0 172.01143986676166, 52.76164587383995 192.12024473438146, 61.45439743467901   203.738642939569, 66.47686643755954 220.87721660423787, 80.5723526129565 219.91889981715698, 93.19352532688444   218.64771579989068, 109.93520537401545 199.0761331384417, 127.03837841811192 186.31226582407953, 137.9463319744677   166.18721743961714, 155.14512350766682 134.60900291958916, 171.76607078664927 111.95334312832743, 185.46048870425355   91.46238576614331, 197.8464327127256 62.3792533378009, 211.4467739565265 42.53950381723459, 224.8510748171101   34.79566595466636, 230.08303263078312 14.973726576359546, 239.73103436953494 20.72911259019461, 247.0941817426052   27.970756703082643, 256.35877193661565 48.37962077001742, 249.3213764572437 59.92577357620211, 247.0941817426052   83.28481183487747, 242.58834092947367 114.20938727582828, 234.30212571162988 136.04112808577602, 224.85107481711015   157.2625704492832, 215.66422464429957 186.43468700728417, 202.28579308945856 202.29838658936558, 185.4604887042536   212.59568199524418, 174.53900543663187 222.45890151296686, 152.27267680096708 217.9790652042268, 137.94633197446777   212.3263588800843, 119.86919378872572 189.49031025412916, 103.26004494111186 173.44658261278008, 93.19352532688444   152.19334240013535, 79.85833513610376 120.04440988084812, 68.84899525754831 96.0684335712442, 61.45439743467901   77.80460080537708, 55.82152158162638 52.51020086072609, 50.00000000000001 33.39745962155622, 50.0   28.942768329686075, 50.0 20.916098806329984, 58.19085571553284 23.948188836862784, 61.45439743467898   35.968856472123875, 74.39265122154653 58.376608125675986, 84.11939739101656 73.527682795623, 93.19352532688436   96.70332555257545, 107.0736461733411 129.26966575072004, 122.8421412614335 151.66679938014724, 137.94633197446763   170.44640756560176, 150.61093398302455 197.21321284807425, 167.0045722440298 210.3450434610382, 185.46048870425355   217.217981325341, 195.11994676447682 221.0724228742718, 215.72827845989298 213.5016242685416, 224.85107481711006   202.25875235426685, 238.3987117687222 176.55955880596818, 244.18378397819555 159.19666098600754, 247.09418174260517   136.0022540342652, 250.98206675115216 103.99774596573508, 250.98206675115222 80.80333901399273, 247.09418174260523   63.440441194032076, 244.1837839781956 37.74124764573341, 238.39871176872222 26.498375731458612, 224.85107481711012   18.92757712572839, 215.72827845989306 22.782018674659017, 195.11994676447688 29.65495653896182, 185.4604887042536   42.78678715192574, 167.00457224402987 69.55359243439833, 150.61093398302472 88.33320061985283, 137.9463319744678   110.73033424928002, 122.84214126143367 143.2966744474245, 107.07364617334115 166.4723172043769, 93.19352532688438   181.6233918743239, 84.11939739101659 204.031143527876, 74.39265122154659 216.05181116313713, 61.454397434679095   219.08390119366993, 58.190855715533 211.05723167031414, 50.00000000000001 206.60254037844402, 50.0   187.48979913927406, 49.99999999999997 162.19539919462295, 55.82152158162635 143.93156642875576, 61.45439743467898   119.95559011915184, 68.84899525754824 87.8066575998646, 79.85833513610362 66.55341738721988, 93.1935253268843   50.509689745870816, 103.26004494111172 27.67364111991577, 119.86919378872567 22.02093479577324, 137.94633197446768   17.54109848703316, 152.2726768009669 27.40431800475565, 174.53900543663167 37.70161341063416, 185.46048870425335   53.56531299271553, 202.28579308945834 82.73742955071644, 215.66422464429945 103.95887191422362, 224.85107481711003   125.79061272417147, 234.30212571162986 156.7151881651224, 242.58834092947362 180.07422642379788, 247.09418174260517   191.62037922998257, 249.32137645724367 212.02924329691731, 256.3587719366156 219.2708874098054, 247.0941817426052   225.02627342364048, 239.731034369535 205.2043340453337, 230.08303263078318 197.4604961827655, 224.85107481711015   177.6207466621993, 211.44677395652664 148.53761423385703, 197.8464327127258 128.04665687167304, 185.4604887042538   105.39099708041127, 171.7660707866495 73.81278256038325, 155.14512350766697 53.68773417592082, 137.94633197446782   40.923866861558594, 127.03837841811198 21.352284200109448, 109.93520537401552 20.08110018284305, 93.19352532688444   19.1227833957621, 80.57235261295654 36.26135706043098, 66.47686643755962 47.87975526561847, 61.454397434679095   67.98856013323825, 52.76164587384004 119.99999999999989, 50.0 119.99999999999989, 50.0  " style="fill : none; stroke : black; stroke-width : 1; stroke-dasharray : none;" /><polyline points="120.00000000000001,50.0 192.12024473438146,61.45439743467901 219.91889981715698,93.19352532688444 186.31226582407953,137.9463319744677 111.95334312832743,185.46048870425355 42.53950381723459,224.8510748171101 20.72911259019461,247.0941817426052 59.92577357620211,247.0941817426052 136.04112808577602,224.85107481711015 202.29838658936558,185.4604887042536 217.9790652042268,137.94633197446777 173.44658261278008,93.19352532688444 96.0684335712442,61.45439743467901 33.39745962155622,50.0 23.948188836862784,61.45439743467898 73.527682795623,93.19352532688436 151.66679938014724,137.94633197446763 210.3450434610382,185.46048870425355 213.5016242685416,224.85107481711006 159.19666098600754,247.09418174260517 80.80333901399273,247.09418174260523 26.498375731458612,224.85107481711012 29.65495653896182,185.4604887042536 88.33320061985283,137.9463319744678 166.4723172043769,93.19352532688438 216.05181116313713,61.454397434679095 206.60254037844402,50.0 143.93156642875576,61.45439743467898 66.55341738721988,93.1935253268843 22.02093479577324,137.94633197446768 37.70161341063416,185.46048870425335 103.95887191422362,224.85107481711003 180.07422642379788,247.09418174260517 219.2708874098054,247.0941817426052 197.4604961827655,224.85107481711015 128.04665687167304,185.4604887042538 53.68773417592082,137.94633197446782 20.08110018284305,93.19352532688444 47.87975526561847,61.454397434679095 119.99999999999989,50.0" style="fill : none; stroke : blue; stroke-width : 1; stroke-dasharray : none;" /><polyline points="220.00000000000003,50.0 224.72244242565037,50.309812959783244 229.43434723566628,51.237332157732055 234.1252003279542,52.776810444486955 238.78453457503463,54.91870881355706 243.40195318029626,57.649755507476954 247.9671528773146,60.95302825305552 252.46994692046835,64.80805911616727 256.9002878155519,69.19096132637702 261.24828973966396,74.0745772855611 265.5042506003437,79.4286468434243 269.65867368473306,85.21999479723448 273.7022888504566,91.41273645397749 277.62607321093367,97.96849998121644 281.4212712689668,104.84666416891108 285.07941445367936,112.004610128964 288.5923400172088,119.39798537289823 291.9522092489888,126.98097863137153 295.15152496697766,134.7066037126754 298.183148246803,142.52699064135757 301.04031435149363,150.39368227299752 303.7166478262529,158.25793454723322 306.206176724591,166.07101851859343 308.5033459340731,173.78452229367412 310.6030295719473,181.3506510037781 312.50054242299325,188.72252295430985 314.1916503940694,195.8544601159066 315.6725799620305,202.70227115734787 316.94002659393306,209.22352526649797 317.9911621207408,215.37781506261584 318.8236410480754,221.12700697095948 319.4356057899317,226.4354775082992 319.8256908136785,231.270334015253 319.9930256870955,235.60161846773002 319.9372370206485,239.40249310461252 319.65844930066703,242.64940672148018 319.1572846115666,245.3222405999769 318.43486124773545,247.40443316860467 317.4927912181824,248.88308262251286 316.3331766495142,249.74902686642557 314.9586050952693,249.99690028535855 313.37214376207424,249.62516699136035 311.57733266550576,248.63613034027225 309.57817673093257,247.0359186595384 307.3791368569603,244.83444727550054 304.9851199614225,242.04535707546603 302.40146803212855,238.6859299852344 299.63394620679946,234.77698188580558 296.6887299087918,230.34273363278615 293.57239106731316,225.41066097768964 290.2918834528787,220.01132432105894 286.85452716072945,214.17817935230318 283.2679922768381,207.94736974957468 279.54028176294753,201.35750322417073 275.6797135988342,194.44941229714755 271.6949022216426,187.26590129043637 267.5947393037074,179.8514811001695 263.3883739117558,172.25209339563145 259.0851920917624,164.51482595276804 254.69479592500957,156.68762088612118 250.22698210209074,148.81897758706157 245.69172006266194,140.95765220898843 241.09912974972426,133.15235556156586 236.45945902807338,125.45145128592011 231.78306081730668,117.90265618098425 227.08036999041076,110.55274453784344 222.36188008947985,103.44725831410372 217.63811991052026,96.63022494411865 212.91963000958933,90.14388453359427 208.2169391826934,84.02842812894536 203.54054097192665,78.32174868315488 198.90087025027586,73.05920626121573 194.30827993733814,68.27340894000224 189.7730178979094,63.99401076017463 185.30520407499054,60.247527982056596 180.91480790823775,57.057174784013455 176.6116260882442,54.44271942138593 172.4052606962927,52.42036173725646 168.30509777835752,51.002632784022154 164.32028640116587,50.19831717774656 160.45971823705253,50.01239866640117 156.73200772316198,50.44602924927162 153.14547283927058,51.49652203887126 149.7081165471214,53.15736790959261 146.4276089326869,55.41827582993653 143.31127009120829,58.26523662841106 140.36605379320062,61.68060979798901 137.59853196787154,65.64323280126172 135.0148800385775,70.12855219900612 132.62086314303977,75.10877578965864 130.42182326906746,80.55304481699909 128.4226673344943,86.42762517900314 126.62785623792585,92.69611645308208 125.04139490473072,99.31967744253595 123.66682335048588,106.25726684667583 122.50720878181767,113.46589756336041 121.56513875226457,120.90090304822348 120.84271538843345,128.51621408015959 120.34155069933303,136.2646442181591 120.0627629793515,144.09818218072766 120.00697431290455,151.96828933623001 120.1743091863216,159.82620046083295 120.56439421006834,167.6232259004722 121.17635895192464,175.31105326456813 122.00883787925922,182.84204678212154 123.05997340606697,190.16954246529696 124.32742003796953,197.2481372515859 125.80834960593059,204.03397033295167 127.49945757700674,210.48499492876374 129.3969704280527,216.56123881854853 131.4966540659269,222.22505202022904 133.793823275409,227.44134007917194 136.28335217374715,232.17778152252447 138.95968564850634,236.4050281314387 141.81685175319703,240.09688679024188 144.84847503302234,243.23048178577017 148.04779075101115,245.78639655121702 151.40765998279116,247.74879397621385 154.92058554632058,249.10551453767033 158.57872873103324,249.84815164333162 162.3739267890663,249.97210372120276 166.2977111495434,249.47660273208137 170.3413263152669,248.36471892852776 174.49574939965626,246.64334183078427 178.75171026033604,244.32313753752197 183.09971218444804,241.41848263592874 187.53005307953163,237.94737512064893 192.03284712268535,233.9313228735432 196.59804681970377,229.39521039527784 201.21546542496534,224.36714461450902 205.87479967204575,218.87828073006722 210.56565276433378,212.96262916526996 215.2775575743496,206.6568448305243 220.00000000000003,200.0000000000001 224.72244242565029,193.03334220969253 229.43434723566617,185.8000386769981 234.12520032795413,178.3449088254461 238.7845345750345,170.714146571934 243.40195318029623,162.95503409724537 247.96715287731453,155.1156488734015 252.46994692046835,147.24456576318386 256.90028781555185,139.39055603769432 261.24828973966385,131.60228517691712 265.50425060034365,123.92801132579149 269.658673684733,116.41528627423787 273.7022888504566,109.11066081394114 277.62607321093367,102.05939629758086 281.42127126896673,95.30518418775742 285.0794144536793,88.8898753333657 288.59234001720876,82.85322065088798 291.95220924898877,77.23262481741148 295.1515249669776,72.06291450155442 298.18314824680294,67.37612256840055 301.04031435149363,63.201289595563765 303.7166478262528,59.56428393024228 306.20617672459093,56.48764140223466 308.5033459340731,53.990425686096785 310.6030295719473,52.088110177673286 312.50054242299325,50.79248211692641 314.19165039406937,50.111569551141656 315.6725799620305,50.04959159106613 316.940026593933,50.60693226820504 317.9911621207408,51.78013815526242 318.8236410480754,53.5619397644723 319.4356057899317,55.94129659122862 319.8256908136784,58.90346552391384 319.9930256870955,62.43009219603985 319.9372370206485,66.49932471465965 319.65844930066703,71.08594906036058 319.1572846115666,76.16154531986342 318.43486124773545,81.69466378317165 317.4927912181824,87.65101981412661 316.3331766495142,93.99370628689846 314.9586050952693,100.68342227210528 313.37214376207424,107.67871655555746 311.57733266550576,114.93624448072444 309.57817673093257,122.41103652346231 307.3791368569603,130.0567769348407 304.9851199614226,137.82609072552762 302.4014680321286,145.6708372135037 299.63394620679946,153.54240831620533 296.6887299087918,161.39202973880265 293.5723910673132,169.17106319237365 290.2918834528788,176.83130776934837 286.8545271607296,184.3252986088254 283.2679922768381,191.60660100115354 279.54028176294753,198.63009810942805 275.67971359883427,205.35227052510578 271.6949022216427,211.7314659255415 267.5947393037074,217.728157162574 263.3883739117559,223.3051871829825 259.0851920917624,228.4279992632186 254.69479592500966,233.06485113182222 250.22698210209083,237.18701165276374 245.69172006266191,240.76893885100932 241.09912974972428,243.7884381772185 236.45945902807347,246.22680003092498 231.78306081730682,248.06891569007047 227.08036999041087,249.3033709285624 222.36188008947983,249.92251674177766 217.63811991052026,249.92251674177766 212.9196300095896,249.30337092856243 208.2169391826935,248.06891569007053 203.54054097192665,246.226800030925 198.90087025027583,243.78843817721855 194.30827993733834,240.76893885100952 189.77301789790943,237.18701165276389 185.30520407499046,233.0648511318222 180.91480790823792,228.4279992632188 176.61162608824438,223.30518718298282 172.40526069629274,217.72815716257412 168.3050977783574,211.73146592554156 164.32028640116596,205.352270525106 160.45971823705267,198.6300981094283 156.732007723162,191.60660100115396 153.14547283927052,184.3252986088255 149.70811654712145,176.83130776934848 146.42760893268698,169.17106319237428 143.31127009120829,161.39202973880293 140.36605379320065,153.54240831620524 137.59853196787157,145.67083721350417 135.01488003857756,137.8260907255281 132.62086314303983,130.05677693484083 130.4218232690675,122.4110365234626 128.4226673344943,114.93624448072472 126.62785623792594,107.67871655555771 125.04139490473074,100.6834222721057 123.66682335048584,93.9937062868986 122.50720878181767,87.6510198141267 121.56513875226463,81.69466378317213 120.84271538843348,76.16154531986359 120.34155069933303,71.08594906036058 120.0627629793515,66.4993247146599 120.00697431290455,62.43009219604011 120.1743091863216,58.90346552391398 120.56439421006834,55.941296591228706 121.17635895192463,53.561939764472356 122.0088378792592,51.780138155262506 123.05997340606696,50.6069322682051 124.32742003796957,50.04959159106613 125.80834960593057,50.1115695511416 127.4994575770067,50.79248211692632 129.3969704280527,52.08811017767326 131.4966540659269,53.990425686096756 133.793823275409,56.4876414022346 136.28335217374706,59.564283930242055 138.95968564850628,63.20128959556365 141.816851753197,67.3761225684006 144.84847503302234,72.06291450155425 148.047790751011,77.23262481741116 151.40765998279107,82.85322065088789 154.92058554632064,88.88987533336561 158.57872873103318,95.30518418775719 162.37392678906613,102.0593962975806 166.29771114954332,109.11066081394088 170.34132631526694,116.41528627423776 174.49574939965632,123.92801132579137 178.75171026033587,131.60228517691647 183.099712184448,139.39055603769404 187.5300530795317,147.2445657631839 192.03284712268524,155.11564887340103 196.59804681970357,162.9550340972449 201.21546542496534,170.7141465719339 205.8747996720459,178.34490882544583 210.56565276433363,185.8000386769978 215.2775575743495,193.03334220969228 219.99999999999997,199.99999999999972 224.72244242565029,206.65684483052422 229.43434723566614,212.9626291652699 234.12520032795402,218.87828073006676 238.78453457503443,224.36714461450885 243.40195318029618,229.39521039527784 247.9671528773145,233.93132287354294 252.46994692046803,237.9473751206487 256.90028781555174,241.41848263592868 261.2482897396639,244.3231375375219 265.50425060034365,246.6433418307842 269.65867368473283,248.3647189285277 273.7022888504565,249.47660273208132 277.62607321093367,249.97210372120276 281.4212712689668,249.84815164333162 285.0794144536792,249.1055145376704 288.59234001720876,247.7487939762139 291.9522092489888,245.78639655121708 295.1515249669775,243.23048178577034 298.1831482468029,240.0968867902421 301.04031435149363,236.40502813143888 303.71664782625294,232.17778152252464 306.2061767245909,227.4413400791721 308.503345934073,222.22505202022938 310.6030295719473,216.56123881854865 312.50054242299325,210.48499492876385 314.19165039406937,204.03397033295192 315.67257996203045,197.24813725158617 316.940026593933,190.16954246529718 317.9911621207408,182.84204678212168 318.8236410480754,175.31105326456827 319.4356057899316,167.62322590047265 319.8256908136784,159.82620046083323 319.9930256870955,151.96828933622996 319.9372370206485,144.09818218072803 319.65844930066703,136.26464421815956 319.1572846115666,128.5162140801597 318.43486124773545,120.90090304822368 317.4927912181824,113.4658975633607 316.33317664951426,106.25726684667609 314.9586050952693,99.31967744253632 313.3721437620742,92.69611645308217 311.5773326655058,86.42762517900326 309.5781767309327,80.55304481699949 307.3791368569603,75.10877578965881 304.9851199614225,70.12855219900618 302.40146803212866,65.64323280126195 299.6339462067996,61.680609797989206 296.6887299087918,58.265236628411145 293.5723910673133,55.41827582993659 290.2918834528788,53.15736790959269 286.8545271607296,51.496522038871376 283.26799227683824,50.4460292492717 279.5402817629476,50.01239866640117 275.67971359883427,50.19831717774653 271.6949022216427,51.00263278402207 267.59473930370757,52.42036173725637 263.38837391175593,54.44271942138593 259.0851920917624,57.057174784013256 254.69479592500983,60.24752798205637 250.22698210209086,63.99401076017455 245.69172006266194,68.27340894000207 241.09912974972428,73.05920626121548 236.45945902807367,78.32174868315462 231.78306081730682,84.02842812894497 227.0803699904107,90.1438845335941 222.36188008948002,96.63022494411848 217.6381199105205,103.44725831410346 212.9196300095894,110.5527445378431 208.21693918269335,117.90265618098422 203.54054097192682,125.45145128592 198.90087025027603,133.15235556156532 194.3082799373382,140.95765220898824 189.7730178979093,148.81897758706165 185.30520407499048,156.68762088612078 180.9148079082381,164.51482595276755 176.61162608824426,172.25209339563133 172.40526069629274,179.85148110016928 168.30509777835758,187.2659012904361 164.320286401166,194.4494122971473 160.4597182370527,201.3575032241704 156.7320077231619,207.9473697495746 153.1454728392708,214.17817935230306 149.7081165471216,220.01132432105854 146.42760893268684,225.41066097768947 143.31127009120829,230.34273363278615 140.36605379320065,234.77698188580538 137.59853196787157,238.68592998523417 135.0148800385776,242.04535707546597 132.62086314303986,244.83444727550045 130.42182326906757,247.0359186595383 128.42266733449438,248.6361303402722 126.62785623792594,249.62516699136032 125.0413949047307,249.99690028535855 123.66682335048587,249.7490268664256 122.50720878181775,248.88308262251294 121.5651387522646,247.40443316860473 120.8427153884335,245.32224059997694 120.34155069933306,242.64940672148032 120.0627629793515,239.40249310461274 120.00697431290455,235.6016184677301 120.17430918632161,231.27033401525313 120.5643942100683,226.43547750829939 121.1763589519246,221.12700697095977 122.00883787925925,215.3778150626162 123.05997340606696,209.22352526649814 124.3274200379695,202.70227115734804 125.80834960593054,195.85446011590716 127.49945757700667,188.72252295431014 129.3969704280526,181.35065100377818 131.4966540659268,173.78452229367423 133.79382327540893,166.07101851859397 136.28335217374718,158.25793454723348 138.95968564850637,150.39368227299747 141.81685175319697,142.5269906413579 144.8484750330223,134.70660371267581 148.04779075101112,126.98097863137164 151.40765998279107,119.3979853728984 154.9205855463205,112.00461012896423 158.57872873103304,104.84666416891133 162.3739267890661,97.96849998121678 166.29771114954343,91.41273645397757 170.34132631526694,85.21999479723456 174.495749399656,79.42864684342476 178.751710260336,74.07457728556128 183.09971218444798,69.19096132637702 187.5300530795315,64.8080591161675 192.0328471226852,60.95302825305575 196.59804681970354,57.64975550747698 201.21546542496546,54.918708813557146 205.87479967204553,52.77681044448701 210.5656527643334,51.23733215773214 215.27755757434966,50.3098129597833 219.99999999999994,50.0" style="fill : none; stroke : red; stroke-width : 1; stroke-dasharray : none;" /><line style="fill : none; stroke : red; stroke-width : 1; stroke-dasharray : none;" x1="219.99999999999994" x2="220.00000000000003" y1="50.0" y2="50.0" /><path d=" M 220.00000000000003, 50.0   C  233.9416951613131, 59.21826939471201 256.1024203132683, 67.6198343698407 266.4723172043769, 80.72756464904006   281.65814202059124, 99.92271170289176 293.87905860734315, 131.04447352350877 302.29838658936563, 154.02659401094152   309.81411864759093, 174.54218148801976 316.7291318993676, 203.15049793938994 319.2708874098054, 224.85107481711012   320.16035585315376, 232.4450303552889 320.7133830300136, 252.21538637941413 313.5016242685415, 249.675730813421   300.6383194811345, 245.1458561072771 293.52074057681784, 224.821336195008 286.3122658240796, 213.24453755953778   272.61074564559095, 191.23991861487949 257.7526364326904, 159.87605915123586 243.9315664287558, 137.94633197446768   230.64464672288625, 116.86413471431383 214.0436119157373, 87.31533663532029 196.06843357124427, 70.05572365964986   186.03904646479947, 60.425591678597826 166.88142766655267, 46.90697877510709 153.68773417592053, 51.29497373620873   139.46923640736412, 56.02380092983418 130.50704197113586, 78.7554478786752 126.49837573145855, 93.19352532688436   120.31649800785402, 115.45889340999663 118.90304005704371, 146.96721205088275 120.7291125901946, 170.00256937760432   122.31067132499291, 189.95345847312873 126.3927861803289, 218.006899954669 137.70161341063437, 234.5190085543795   144.13804269644902, 243.91689015583515 163.02356194000836, 251.50000125739572 173.52768279562318, 247.0941817426052   191.83167978422176, 239.41680366979602 208.15131619076917, 215.92441935583054 220.00000000000003, 200.0000000000001   236.23239946614612, 178.1839451189603 252.58489383975638, 145.55710121239363 266.4723172043768, 122.17825360835474   277.2744954605606, 103.99327626501541 289.2105997239685, 78.07036237873443 302.2983865893656, 61.454397434679095   305.65956302198396, 57.18712212300418 317.9768996089133, 49.8706813301153 319.2708874098054, 55.14635580528545   323.0087125126405, 70.38571777924041 317.3490111945992, 91.9186728726853 313.5016242685415, 107.13074385969455   307.40253373672067, 131.24576007963134 297.7156820074575, 163.35404141049227 286.3122658240796, 185.46048870425335   276.59445733737056, 204.29924874490138 261.89493076615634, 230.74395736858753 243.9315664287559, 241.9979443658824   231.7634015837884, 249.62125848310984 208.2365984162119, 249.6212584831099 196.06843357124438, 241.99794436588252   178.10506923384395, 230.74395736858776 163.40554266262956, 204.29924874490177 153.6877341759205, 185.4604887042538   142.28431799254255, 163.3540414104926 132.59746626327941, 131.24576007963142 126.49837573145857, 107.13074385969449   122.65098880540086, 91.91867287268525 116.99128748735959, 70.38571777924038 120.7291125901946, 55.146355805285424   122.02310039108671, 49.87068133011529 134.34043697801602, 57.18712212300411 137.7016134106344, 61.45439743467901   150.7894002760314, 78.07036237873427 162.7255045394392, 103.99327626501518 173.527682795623, 122.17825360835442   187.41510616024348, 145.55710121239332 203.76760053385388, 178.18394511895988 219.99999999999997, 199.99999999999972   231.84868380923086, 215.92441935583022 248.16832021577818, 239.4168036697959 266.4723172043768, 247.0941817426052   276.9764380599916, 251.50000125739578 295.8619573035509, 243.91689015583512 302.2983865893656, 234.51900855437947   313.6072138196711, 218.00689995466902 317.6893286750071, 189.95345847312885 319.2708874098054, 170.00256937760446   321.09695994295635, 146.96721205088295 319.68350199214603, 115.45889340999692 313.50162426854155, 93.1935253268847   309.4929580288642, 78.75544787867545 300.53076359263605, 56.0238009298343 286.3122658240796, 51.29497373620876   273.1185723334475, 46.90697877510707 253.9609535352007, 60.42559167859786 243.93156642875593, 70.05572365964986   225.95638808426287, 87.31533663532028 209.3553532771138, 116.86413471431378 196.06843357124424, 137.94633197446763   182.24736356730966, 159.87605915123578 167.3892543544091, 191.2399186148794 153.68773417592053, 213.24453755953766   146.4792594231823, 224.8213361950079 139.36168051886557, 245.14585610727693 126.49837573145861, 249.67573081342096   119.28661696998665, 252.2153863794141 119.8396441468463, 232.4450303552891 120.72911259019459, 224.8510748171104   123.27086810063244, 203.15049793939016 130.1858813524091, 174.5421814880199 137.7016134106344, 154.0265940109416   146.12094139265685, 131.04447352350888 158.34185797940867, 99.92271170289185 173.52768279562298, 80.72756464904015   183.89757968673163, 67.61983436984075 206.05830483868684, 59.21826939471203 219.99999999999994, 50.0   219.99999999999997, 49.999999999999986 220.0, 49.999999999999986 220.00000000000003, 50.0   Z " style="fill : none; stroke : black; stroke-width : 1; stroke-dasharray : 1, 3.0;" /></svg>