<?xml version="1.0" encoding="utf-8" ?>
<svg baseProfile="full" height="100%" version="1.1" viewBox="0,0,800,800" width="100%" xmlns="http://www.w3.org/2000/svg" xmlns:ev="http://www.w3.org/2001/xml-events" xmlns:xlink="http://www.w3.org/1999/xlink"><defs /><circle cx="400" cy="400" r="6" style="fill : black; stroke : black; stroke-width : 1; stroke-dasharray : none;" /><circle cx="500" cy="400" r="6" style="fill : black; stroke : black; stroke-width : 1; stroke-dasharray : none;" /><line style="fill : none; stroke : black; stroke-width : 1; stroke-dasharray : none;" x1="394" x2="406" y1="294" y2="306" /><line style="fill : none; stroke : black; stroke-width : 1; stroke-dasharray : none;" x1="406" x2="394" y1="294" y2="306" /><line style="fill : none; stroke : black; stroke-width : 1; stroke-dasharray : none;" x1="394" x2="406" y1="494" y2="506" /><line style="fill : none; stroke : black; stroke-width : 1; stroke-dasharray : none;" x1="406" x2="394" y1="494" y2="506" /><line style="fill : none; stroke : black; stroke-width : 1; stroke-dasharray : none;" x1="294" x2="306" y1="394" y2="406" /><line style="fill : none; stroke : black; stroke-width : 1; stroke-dasharray : none;" x1="306" x2="294" y1="394" y2="406" /><ellipse cx="400" cy="400" rx="250.0" ry="250.0" style="fill : none; stroke : black; stroke-width : 1; stroke-dasharray : none;" /><path d=" M 682.2591744182776, 342.7832327310224   A 288.0 288.0 -0.0 0,0 530.6356829705662 143.33228030230657" style="fill : none; stroke : black; stroke-width : 1; stroke-dasharray : none;" /><line style="fill : none; stroke : black; stroke-width : 1; stroke-dasharray : none;" x1="261.0" x2="273.0" y1="338.99999999999994" y2="338.99999999999994" /><line style="fill : none; stroke : black; stroke-width : 1; stroke-dasharray : none;" x1="267.0" x2="267.0" y1="332.99999999999994" y2="344.99999999999994" /><line style="fill : none; stroke : black; stroke-width : 1; stroke-dasharray : none;" x1="527.0" x2="539.0" y1="461.0" y2="461.0" /><line style="fill : none; stroke : black; stroke-width : 1; stroke-dasharray : none;" x1="533.0" x2="533.0" y1="455.0" y2="467.0" /><path d=" M 521.879007646967, 429.25704051633346   A 152.01131536829752 41.199999999999996 24.638396724613845 1,0 426.3621934975463 455.1991651133793" style="fill : none; stroke : black; stroke-width : 1; stroke-dasharray : 16.0, 16.0;" /><ellipse cx="400.0" cy="400.0" rx="161.35055004554525" ry="68.0" style="fill : none; stroke : black; stroke-width : 1; stroke-dasharray : 1, 8.0;" transform="rotate(24.638396724613845,400.0,400.0)" /></svg>