<?xml version="1.0" encoding="utf-8" ?>
<svg baseProfile="full" height="100%" version="1.1" viewBox="0,0,401,401" width="100%" xmlns="http://www.w3.org/2000/svg" xmlns:ev="http://www.w3.org/2001/xml-events" xmlns:xlink="http://www.w3.org/1999/xlink"><defs /><ellipse cx="100.0" cy="101.0" rx="60.0" ry="60.0" style="fill : none; stroke : black; stroke-width : 1; stroke-dasharray : none;" /><ellipse cx="300.0" cy="101.0" rx="60.0" ry="60.0" style="fill : none; stroke : black; stroke-width : 1; stroke-dasharray : none;" /><ellipse cx="100.0" cy="301.0" rx="60.0" ry="60.0" style="fill : none; stroke : black; stroke-width : 1; stroke-dasharray : none;" /><line style="fill : none; stroke : black; stroke-width : 1; stroke-dasharray : none;" x1="100.0" x2="100.0" y1="231.0" y2="171.00000000000003" /><path d=" M 8.02, 3.175342630557724  0, 0  8.02, -3.175342630557724   C  8.02, -3.175342630557724 6.8972, -1.3653973311398213 6.8972, 0   6.8972, 1.3653973311398213 8.02, 3.175342630557724 8.02, 3.175342630557724   Z " style="fill : black; stroke : black; stroke-width : 1; stroke-dasharray : none;" transform="translate(100.0,171.00000000000003) rotate(90.0,0,0)" /><line style="fill : none; stroke : black; stroke-width : 1; stroke-dasharray : none;" x1="150.0" x2="250.0" y1="251.0" y2="151.0" /><path d=" M 8.02, 3.175342630557724  0, 0  8.02, -3.175342630557724   C  8.02, -3.175342630557724 6.8972, -1.3653973311398213 6.8972, 0   6.8972, 1.3653973311398213 8.02, 3.175342630557724 8.02, 3.175342630557724   Z " style="fill : black; stroke : black; stroke-width : 1; stroke-dasharray : none;" transform="translate(250.0,151.0) rotate(135.0,0,0)" /><line style="fill : none; stroke : black; stroke-width : 1; stroke-dasharray : none;" x1="170.0" x2="229.99999999999997" y1="101.0" y2="101.0" /><path d=" M 8.02, 3.175342630557724  0, 0  8.02, -3.175342630557724   C  8.02, -3.175342630557724 6.8972, -1.3653973311398213 6.8972, 0   6.8972, 1.3653973311398213 8.02, 3.175342630557724 8.02, 3.175342630557724   Z " style="fill : black; stroke : black; stroke-width : 1; stroke-dasharray : none;" transform="translate(229.99999999999997,101.0) rotate(180.0,0,0)" /><text font-size="30" x="90.0" y="311.0">Z</text><text font-size="30" x="90.0" y="111.0">A</text><text font-size="30" x="290.0" y="111.0">B</text></svg>