<?xml version="1.0" encoding="utf-8" ?>
<svg baseProfile="full" height="100%" version="1.1" viewBox="0,0,1260.0,1260.0" width="100%" xmlns="http://www.w3.org/2000/svg" xmlns:ev="http://www.w3.org/2001/xml-events" xmlns:xlink="http://www.w3.org/1999/xlink"><defs /><path d=" M 1082.3778302814, 437.01135870511223   C  1100.9857576306988, 403.3199180115728 997.4919441475906, 473.06561136011595 959.0123901127478, 472.23371141260384   904.306754674725, 471.0510153967326 836.1734780581942, 430.4825515024503 781.4550644660648, 430.505627561235   701.4283811632629, 430.53937672037557 595.3965700275731, 452.0227048360746 518.0128888140457, 472.4196914099746   508.9448797573799, 474.80986019078574 549.5880301132122, 491.1452237320992 540.6484123869483, 493.9780544649183   487.52582160980086, 510.8118064628759 392.59068771981293, 480.29401687808644 357.2348970927964, 523.3678247703959   327.7696564156014, 559.2652009546621 386.74799721283324, 627.9795292485007 392.87000612185744, 674.0158522119779   394.5875238341701, 686.9312532305827 372.5715787476837, 708.3275031193933 382.88927624330034, 716.2837942749778   454.821953286548, 771.7532749803238 575.4806080418753, 809.526442703299 644.7704260609195, 868.2639472061007   669.9162659184748, 889.580266458865 660.0058338554776, 994.2402846123425 683.4855489476346, 971.1015355575921   825.9250940852288, 830.7304587589422 985.6928891417069, 612.0687360915888 1082.3778302814, 437.01135870511223   Z " style="fill : none; stroke : black; stroke-width : 1; stroke-dasharray : none;" /></svg>