<?xml version="1.0" encoding="utf-8" ?>
<svg baseProfile="full" height="100%" version="1.1" viewBox="0,0,401,151" width="100%" xmlns="http://www.w3.org/2000/svg" xmlns:ev="http://www.w3.org/2001/xml-events" xmlns:xlink="http://www.w3.org/1999/xlink"><defs /><path d=" M 20, 76   C  20.0, 76.0 20.417021977585765, 140.4147874118116 22.0, 125.60543012131944   24.7756285132475, 99.6383770249857 22.79949638542578, 64.66585685604603 24.0, 38.578489199979956   24.027620325944028, 37.978289759566145 25.778218844654738, 39.242421316575076 26.0, 38.68401700981157   27.148499411708542, 35.79230595882076 27.77197268679101, 25.40415160237654 28.0, 28.50722221800035   29.421200928914892, 47.84739151329515 29.07047326620654, 73.74730468631479 30.0, 93.11733154489647   30.271068940317303, 98.766026158601 26.382385871929227, 111.21070687951973 32.0, 111.8615837629615   37.48030090535023, 112.49655104484962 33.72623444293486, 99.090952276007 34.0, 93.58078586454394   34.926858259324575, 74.92561498231994 32.998374637138426, 49.787731993610706 36.0, 31.35231195340326   37.81823119330021, 20.185076963510625 37.34158544944104, 57.71842239696459 38.0, 69.01353604275782   38.54160495276967, 78.30477890405916 39.06574217175967, 109.2323900191736 40.0, 99.9723850438553   42.127106013421354, 78.88932673605336 38.62268983725004, 50.28628998131799 42.0, 29.36707145702566   44.19338120329143, 15.781164777560962 41.86327269427357, 61.60126421864391 44.0, 75.19619628272716   44.95380840907079, 81.26480433051931 44.15039779143195, 60.67512798388826 46.0, 54.81708003350393   46.71949083164373, 52.53831340351923 45.70002836951112, 61.87890511958671 48.0, 62.527422590205276   49.98642498186593, 63.08753006620027 49.635059793249674, 57.976310364040835 50.0, 55.94495041594115   50.838650688788434, 51.27678454071177 51.33809954418209, 44.9587838581955 52.0, 40.26229629800231   52.538227507120155, 36.44332507729202 53.66764523423687, 23.720749130445398 54.0, 27.563114332207036   55.524721052927816, 45.19046835167268 54.89429451520346, 68.84784780998227 56.0, 86.50643777061343   56.0998895329872, 88.10171637656555 57.143123181844516, 92.79414286390586 58.0, 91.44482678977177   59.83561497773661, 88.55430070375519 59.15599497144984, 76.88919903220177 60.0, 80.2076744219275   61.99939884320796, 88.06894968805875 60.6657673885863, 99.17103793041275 62.0, 107.17210460197276   62.17699181708668, 108.23348124403418 63.86221615123695, 105.26187100173028 64.0, 104.19469618444435   65.07848623284036, 95.8415157586594 64.80564482529736, 84.52837701001073 66.0, 76.19097504676077   66.0851528387067, 75.59655099297265 67.95629315518286, 76.87090694220788 68.0, 76.27200739021453   69.19938188764404, 59.83729840620683 68.18634442084678, 5.002075549621988 70.0, 21.380379177948043   73.00588801696146, 48.52519497452146 68.8001969205593, 85.27155822519212 72.0, 112.39419909316838   74.00852609869435, 129.4191630351264 71.0428757286207, 72.17182577511377 74.0, 55.28576672163044   75.7763182538157, 45.14246120619407 74.1231438841689, 79.4278248107166 76.0, 89.55300947267651   76.70233302293651, 93.34192621032194 77.65405197052006, 80.7026996560245 78.0, 76.86479896934489   78.85512385598977, 67.37817047479058 79.10245009293924, 54.66025857909573 80.0, 45.17755004370839   80.3041934263321, 41.96371471533721 81.06308969483158, 31.51513033139288 82.0, 34.60438108822366   84.07625018578543, 41.45034854361916 83.23641622596105, 51.253631320424354 84.0, 58.36664931944085   84.43696981981448, 62.43715775485046 85.425796786181, 67.81218566043499 86.0, 71.86561287890203   86.62581910434433, 76.28340806070605 84.91785834656288, 83.37723913800977 88.0, 86.60353215754179   90.2253924768505, 88.93300595241918 88.70714233893524, 79.00351240049152 90.0, 76.05269236103308   90.29538802830767, 75.37849833364994 91.92503734883175, 78.20616470899185 92.0, 77.47392685504245   93.23869134929882, 65.37434551445523 82.79941957653948, 32.23911268529538 94.0, 36.98054949853112   105.66783011125219, 41.91978274613983 95.41048862277276, 66.5107185325824 96.0, 79.16720939361676   96.61048902069011, 92.27407892931346 86.12602293272981, 117.27525418555611 98.0, 122.85838901073264   109.36392462396515, 128.2016975719077 99.49007047665904, 93.59510560815524 100.0, 81.0480062971466   100.69009333113932, 64.06787637068163 99.85939389439736, 7.577374668109716 102.0, 24.436166043115534   105.33057129729224, 50.666777323570955 101.68795932534812, 86.2109090814368 104.0, 112.55084342515636   105.1172741606199, 125.27939459525795 105.09589624740302, 82.7516513651597 106.0, 70.00618500082356   106.29693647159951, 65.82016785373709 107.6565172130407, 60.343901468126475 108.0, 56.16144639975687   108.85742727061321, 45.720891094260736 109.35675567967365, 10.843818382330474 110.0, 21.299755134046336   111.84029283567257, 51.213716107173624 82.26037092184876, 117.46847102714396 112.0, 121.18144841958681   141.59099381103664, 124.87586877538789 112.31656153856154, 51.572323741283554 114.0, 21.799153076459902   114.48619257190552, 13.200386474119377 114.63081937021867, 41.934767283525616 116.0, 50.43773821735425   116.20469752664127, 51.70896356293581 117.28669975548831, 45.56823344569545 118.0, 46.64020253006382   119.66370361928104, 49.140466421942826 119.2236753733308, 53.54792967816346 120.0, 56.4490586542467   120.42765669956161, 58.047213859289556 121.30498864191584, 63.089538278500676 122.0, 61.58822234765216   123.7548615667657, 57.79749059057473 123.17634156507317, 51.90374607911883 124.0, 47.80853263471809   124.38019900532468, 45.918190701545605 125.4510559047476, 43.54870735538324 126.0, 41.7003014778099   126.65144503726486, 39.50675418180936 127.63741190308808, 32.08039562748233 128.0, 34.339723015964594   129.53768239598088, 43.92119571629584 126.89303622089749, 75.8180042153008 130.0, 66.62475330316708   134.2422027760008, 54.07242333967106 130.38492354288482, 9.353051235368227 132.0, 22.50405119517589   134.8054248395697, 45.3476396766304 123.92212232868616, 78.503892114574 134.0, 99.19534747379294   142.9994475905121, 117.67261760446276 133.53216072508792, 51.12033524468488 136.0, 30.716675334528603   137.2775028646403, 20.154506943193702 131.57536820774328, 74.6043548343551 138.0, 66.1240528922069   145.37980853123344, 56.38294917704475 138.94002713840575, 13.26195074742889 140.0, 25.43680734124122   142.25477299720077, 51.33514765462555 116.45287232580941, 116.87976791664705 142.0, 112.0680842346726   167.76917826537183, 107.21457834787786 141.6459404050502, 50.79980898493914 144.0, 24.68342578800531   145.15954035071846, 11.819265425779593 145.48462814893807, 54.78529874411424 146.0, 67.6913263089824   146.68464757451613, 84.83638467939713 145.8021942593427, 141.86947648946816 148.0, 124.85209071043167   151.3874491123118, 98.62341759129386 148.90304635355892, 63.143488539739124 150.0, 36.71973411731376   150.10527976116626, 34.18372308007952 150.0001583015715, 26.9358372068376 152.0, 28.498869193174343   154.72347157671837, 30.62747426808348 152.3426669156197, 42.87944364138681 154.0, 39.84604553999287   156.7006132908826, 34.90314341224971 155.66644959150517, 15.555051321192058 156.0, 21.1777141882269   157.52995925495375, 46.968254004153664 142.16443192328032, 86.86018443538225 158.0, 107.2740890840843   172.88767477442977, 126.46604808509363 158.5555857993799, 50.580581403237005 160.0, 26.33418335934887   160.24867018393476, 22.1599262392372 161.75039146868158, 35.95461057321232 162.0, 40.12881168794962   162.9515087854844, 56.040884132238475 163.24805776369206, 77.30339456839111 164.0, 93.22614562825532   164.44814940522912, 102.71593230671957 164.49379724488614, 115.45059748453194 166.0, 124.83080229853532   166.33228035074342, 126.90015035613234 167.90925253476607, 120.23090473480922 168.0, 118.13701445293569   169.11222872086543, 92.47365400714301 166.7294965473391, 58.013941001330764 170.0, 32.53553977079184   172.0807797474051, 16.325515215204543 171.29557053159593, 70.64773327356349 172.0, 86.97557206423014   172.49560540877607, 98.46311706516761 166.2470159855959, 133.74199553038446 174.0, 125.25079103737133   182.6380755111526, 115.79021876545451 175.3563282542553, 95.38940617898372 176.0, 82.59470169110024   176.55633634053407, 71.5360229156811 177.06938580560197, 34.70656190871089 178.0, 45.74004928138184   180.12559941293807, 70.9414425367031 177.48053060544913, 104.85417262536905 180.0, 130.0192410505404   181.32607734677686, 143.2644216591574 180.31387708947045, 98.89719135497903 182.0, 85.69301474244062   182.49988612713514, 81.77836257347305 183.63995478701304, 94.76490813541842 184.0, 98.69488971154698   184.84091934962646, 107.87373012335303 183.28694860071283, 120.54504275438495 186.0, 129.35399324594783   187.5704197589082, 134.4529566901455 186.45863302768805, 116.79022789859387 188.0, 111.68240700499362   188.42017839965882, 110.29000918710234 189.91328423081163, 117.55051908938871 190.0, 116.09869198322824   191.277359160006, 94.71267799573266 185.37172782346894, 65.08594776644325 192.0, 44.71294482993849   197.4876880145724, 27.845700839662737 191.85288119785497, 86.19702461361604 194.0, 103.80408343734496   194.95747297666145, 111.65566715286505 194.40553183816237, 69.7668470269256 196.0, 77.51422029944472   198.76788384854828, 90.96311182510954 195.56917847821623, 109.72583266448505 198.0, 123.23971334315712   199.2519682753674, 130.19989110000964 199.42040140559683, 106.79986283657155 200.0, 99.75177341894376   200.62040610330283, 92.2074526881061 201.0064025688516, 67.09424161851449 202.0, 74.59853659989531   204.18151123369913, 91.07473036778084 193.83797620801386, 116.81105855766012 204.0, 129.9623788256322   213.21315196105763, 141.8857038047486 204.33512596076787, 94.7510392213834 206.0, 79.77519059605828   206.47554450978012, 75.49758014310396 207.38620554539003, 89.72167141830163 208.0, 93.98164209138096   208.58621212979114, 98.05018077295055 208.9031739806264, 103.5752181824586 210.0, 107.5367361172618   210.17530411652834, 108.16989979992903 211.96453899741067, 109.08487449931918 212.0, 108.42884835684019   213.2131287146233, 85.98604942637928 212.21410642366456, 55.9415045253413 214.0, 33.53700744896521   214.59097756172972, 26.123041001341726 214.98843304380017, 50.87944262234859 216.0, 58.24781321957559   216.19816230965264, 59.69125038107438 217.89899665197535, 61.21999882220446 218.0, 62.67346965570968   219.10585435039226, 78.5870712920404 214.0742540126644, 100.99859784801554 220.0, 115.80910646108097   224.81258480386816, 127.8374365381934 214.90057298814818, 83.50783258099429 222.0, 72.67086653685726   228.0969001868266, 63.36421401562818 221.98173731823897, 98.76195590410966 224.0, 109.70328072272447   224.84229670689555, 114.26950589602681 225.6823834348364, 98.98789187643244 226.0, 94.35550633620797   226.8831897336505, 81.47432884053802 225.94241545428667, 64.11035171410202 228.0, 51.363936389869835   228.87593175426534, 45.93767579765763 229.63620633436528, 64.09167816502686 230.0, 69.57613024536903   230.83669199116108, 82.18986590105354 231.13717528431147, 99.05484838960415 232.0, 111.66682342088124   232.3378405338696, 116.6050644103234 233.11505021078065, 132.91447025030914 234.0, 128.04443696842156   236.06188216994758, 116.69753919715558 235.5585703280767, 101.17838545998852 236.0, 89.65412466117567   236.75863646823802, 69.84864925356811 228.49159642583967, 41.00804185557405 238.0, 23.617738612583054   246.45605194136184, 8.152123764430035 237.94020348656738, 64.83272703894812 240.0, 82.3383631424912   240.8696556282079, 89.72932378521762 241.09065181651232, 50.22644093801821 242.0, 57.6126230380745   244.09867661421376, 74.65912725196038 242.9674781505483, 97.6842263925113 244.0, 114.82836965123035   244.16981305865477, 117.6479704241579 245.33479506942942, 126.7744723231993 246.0, 124.02920596200083   247.821763683673, 116.51088141417962 247.42561789096766, 106.03511543701143 248.0, 98.32057642820834   248.6256239669467, 89.91780687470762 249.29567741063127, 78.70165534960198 250.0, 70.30511610969118   250.4958088685303, 64.39436060795205 248.33384795531296, 45.97196612118868 252.0, 50.6348178474062   256.6056399611152, 56.49257169428884 252.895781855115, 82.76183130043373 254.0, 75.39257747995802   256.28911133419155, 60.11566637038568 253.77359655029073, 39.2260734560638 256.0, 23.93989762856458   257.0408509896201, 16.7935597805717 257.7008666880991, 40.71359370471519 258.0, 47.92913489591906   258.9012137632312, 69.66775367211562 258.75616295328535, 98.70414954139687 260.0, 120.42585762214097   260.0568425234455, 121.41852519392403 261.94082510226474, 118.77553693320667 262.0, 117.78300566819819   263.151240453661, 98.47343036630197 263.15495390462223, 72.65988241268924 264.0, 53.334485909164854   264.3551833793254, 45.211781509404055 264.7812250022271, 18.268230153392707 266.0, 26.306828881009736   268.4035761624985, 42.1599472309082 267.222757598972, 63.70159442638513 268.0, 79.71703803669024   268.4228926147101, 88.43093837865179 268.4880129749687, 117.3208373538085 270.0, 108.72870184688409   272.6922566260597, 93.42947416333868 269.22210479628313, 72.27023598543619 272.0, 56.98632576289525   273.59876923721964, 48.18993723984 272.5272782372998, 95.53916893794877 274.0, 86.72080147383801   276.6548494326691, 70.82408666177622 271.0675864290181, 17.691547142855214 276.0, 33.03511464493771   282.0741928208343, 51.93048629735637 275.62001746433924, 79.45937074330936 278.0, 99.163851742251   279.18973086292067, 109.01393628321433 278.4988232541841, 56.34468153352993 280.0, 66.15213244434933   282.6861487200638, 83.70121304702525 279.03313291301146, 107.79274427900104 282.0, 125.29655313975077   283.7848659547717, 135.82683697059636 283.5566866680177, 100.42245371458137 284.0, 89.75117931438163   284.75676249856355, 71.53467262408745 284.04881335015244, 10.882522472778852 286.0, 29.010034054190726   289.1438940254981, 58.21840085108377 269.88797062996764, 150.04256088225006 288.0, 126.91320393735225   307.0566340375754, 102.5775714238222 288.06211332873465, 54.75035459832358 290.0, 23.901968807086618   290.740838006275, 12.108886701072436 290.44580406766306, 51.525249973327405 292.0, 63.23892153755699   292.3711045698345, 66.03586428884131 293.6931158834899, 56.85390410683643 294.0, 54.04918852504427   294.8953972367824, 45.865856619646244 291.8574755875121, 33.79553717830455 296.0, 26.68159672469625   299.1092053411152, 21.342170941698743 291.8768556287381, 48.006883472258714 298.0, 47.18000466974783   304.2829969094588, 46.33153913542919 299.68970425023065, 19.809001321594323 300.0, 26.1414305928038   301.50775101900183, 56.91119361250453 300.7704587999172, 98.02875565268236 302.0, 128.81089102145012   302.03859237152164, 129.77706897815574 303.87996208014704, 127.24275823970464 304.0, 126.28328957791265   305.09911057680404, 117.49804775116854 304.8007008765598, 105.61083175532484 306.0, 96.8387054665091   306.0816289392581, 96.24164060587613 307.6190466855403, 96.55884963628168 308.0, 97.02578036318798   308.97143324227994, 98.21645652412931 309.7900221117878, 103.26373463915597 310.0, 101.74146608502286   311.38448454419085, 91.70442216935649 311.423216135089, 78.14278514315218 312.0, 68.02713546597884   312.62321906041547, 57.09710418247077 306.3128821964543, 23.79435563822238 314.0, 31.589367230910455   322.5403827420034, 40.24961990053953 315.33096728971776, 59.93871106157573 316.0, 72.08327811496629   316.53099170907154, 81.72206604940541 315.8391957199652, 113.60753244147382 318.0, 104.19907295526806   321.32888827052466, 89.70460405925489 318.88522829546946, 69.4966735621701 320.0, 54.66669009144741   320.0941911213554, 53.41365077666004 320.928372479647, 51.64263986077175 322.0, 50.986443282476   322.60083365291365, 50.61853094383338 323.6541030687314, 52.831116188002795 324.0, 52.217344340865765   325.261588298716, 49.97873708410451 325.8157891478824, 41.32568801946097 326.0, 43.88870067012101   327.37670343043214, 63.04342618082303 326.9271235894713, 88.69709194329454 328.0, 107.87123489502602   328.1301633803683, 110.19747791590923 329.6320560360477, 117.67621107485327 330.0, 115.37556630931735   331.5433868895863, 105.72522463613866 331.4124274976741, 92.61571905093435 332.0, 82.8604181301761   332.6124284319545, 72.69244120393307 332.04027062918516, 38.96857840572272 334.0, 48.964691857962165   337.13603498665316, 64.9608605043211 329.76881195225485, 88.20078373431288 336.0, 103.2634668390558   341.12323904499533, 115.64789908749924 333.50662822690845, 71.26052534143363 338.0, 58.63391255188337   341.36433890276305, 49.179941956260436 338.8921462713772, 101.99666935611836 340.0, 92.0232548760356   342.2994903663727, 71.32217320408735 321.58634636252276, 18.488210994781248 342.0, 22.624052324284122   362.651836723906, 26.80814995666812 341.0709876117187, 71.96679999939981 344.0, 92.83366175428495   345.7414728328809, 105.2402575744334 336.81650057536604, 42.599122510735434 346.0, 51.12084098707193   355.9988813160006, 60.3991833393016 346.9430682716204, 82.9458492351333 348.0, 96.54541392295289   348.1479763486283, 98.44942898031401 349.6843093652244, 100.70544892962761 350.0, 102.58893234116225   350.88933356618816, 107.89490228362484 350.60667893209404, 125.60677022635132 352.0, 120.41033994932508   354.5484293672453, 110.90590064394718 352.76773083016445, 97.43352244213054 354.0, 87.67081936139908   354.08485128601995, 86.99858156489442 355.92498824069145, 88.04676901987149 356.0, 88.72017575562198   357.15967637252464, 99.13099517576994 348.97377696457534, 128.89597534689787 358.0, 123.58021500592207   367.6342396497941, 117.90637902327038 359.52390170738306, 97.53516949434555 360.0, 86.36447932750875   360.7239502772621, 69.3784401652211 358.3575941754568, 46.33494998748683 362.0, 29.728249224359573   364.47134513999197, 18.46072682317235 362.37594962713644, 56.70694415567914 364.0, 68.12741123231919   364.4419524935727, 71.2352605863923 365.2899963249478, 60.91437387615798 366.0, 57.85660599817899   366.49111129588704, 55.74154040367257 365.85016166549497, 50.595863937316054 368.0, 50.90063911593991   370.3121842273682, 51.228429512825564 369.67967791446324, 56.11044153977457 370.0, 58.42367222587099   370.8829325740725, 64.79983801748706 368.7749338515355, 74.21613054583534 372.0, 79.78694812232818   374.1932016257588, 83.57537465472245 373.56238330446865, 60.97752343256884 374.0, 65.33307168627604   375.6285799840204, 81.54213952544887 374.8148532704509, 103.35097457896565 376.0, 119.5984845484563   376.0453983879999, 120.22086382288423 377.94392272401103, 120.79170522686555 378.0, 120.17019713038724   379.21175782350764, 106.74020637210911 379.3900527523006, 88.7369695143499 380.0, 75.266224429341   380.0099572730592, 75.04631707238843 380.0, 76.0 380.0, 76.0  " style="fill : none; stroke : black; stroke-width : 1; stroke-dasharray : none;" /></svg>