<?xml version="1.0" encoding="utf-8" ?>
<svg baseProfile="full" height="100%" version="1.1" viewBox="0,0,400,150" width="100%" xmlns="http://www.w3.org/2000/svg" xmlns:ev="http://www.w3.org/2001/xml-events" xmlns:xlink="http://www.w3.org/1999/xlink"><defs /><path d=" M 20, 75   C  20.0, 75.0 20.415566197013728, 103.016431234741 22.0, 114.89464803109584   22.40090921001608, 117.90019266366488 23.80757848311293, 108.0133381272194 24.0, 104.98728447718621   25.009682763851178, 89.10884082724533 21.584724022795626, 36.70435799502813 26.0, 51.989964625878216   31.56749408108327, 71.26452976798956 26.781452534803478, 98.80970450795189 28.0, 118.83521308664857   28.041675111349775, 119.52009843062525 29.953004369880855, 118.41017568079563 30.0, 117.7256348419483   31.17510180466755, 100.60903968067993 15.14367101850344, 57.37367919092068 32.0, 60.57100110678219   49.07982352417875, 63.810715645626885 32.124100573922156, 101.20150169043532 34.0, 118.48435802998557   34.68485589646525, 124.79400656836711 33.11860840790215, 91.76848308560838 36.0, 97.42341675186931   39.94710076192089, 105.16987962207563 36.01120165160375, 117.87107200997012 38.0, 126.33463937566515   38.827339330461456, 129.85548006989447 38.32153284835719, 117.6495701562011 40.0, 114.44589139847184   40.65445024071468, 113.19674670587759 41.90160160114383, 120.1066309052698 42.0, 118.69986676878122   43.286804225300735, 100.30292072211799 40.685806237078076, 75.40108083595061 44.0, 57.25942686890838   46.13470065320631, 45.57423181273743 44.65497234786439, 108.60634723130701 46.0, 96.80415968007094   48.53650312288528, 74.54715586824919 28.93483804966399, 10.399427667792327 48.0, 22.16070593927772   67.69498144468754, 34.31051919164452 45.8470792115738, 76.50635396331424 50.0, 99.27175545546966   52.9729570937925, 115.56885460741043 35.495968900643135, 42.65574255579757 52.0, 44.08782918766758   68.60769997493085, 45.528911367955835 50.567602709770625, 115.93175417119399 54.0, 99.61884317561478   58.606117640954366, 77.72767477097057 51.682229491816685, 3.127451308450336 56.0, 25.077313077524565   61.49487341236137, 53.01110706016034 53.61182725752449, 91.8243941583988 58.0, 119.95328357949771   61.20287437848322, 140.48422083043212 59.09215315303576, 71.47737513312731 60.0, 50.71795310869207   60.29256263074193, 44.02802392023949 60.67356496222476, 21.923021643229344 62.0, 28.486657490073583   64.50014827837919, 40.85821161451773 59.99583570636527, 58.54160571202684 64.0, 70.5112657396765   66.86794906228123, 79.08443425493786 60.112245933265996, 47.303803749664304 66.0, 40.44386918258819   70.97953320408776, 34.64212006612528 67.63711543273682, 58.21375084607823 68.0, 65.85078944306285   68.8373665550879, 83.4734752168354 68.64977224969414, 107.03450895090438 70.0, 124.62533387900282   70.15970988024335, 126.70604103526745 71.58346333322166, 120.00779481982401 72.0, 117.96296066488446   72.78608032109126, 114.10398733241513 72.86381142172857, 108.75956496578375 74.0, 104.98879939808772   74.17505087524087, 104.40784318573296 75.69846812553413, 104.16129307899303 76.0, 104.68782081641744   77.12638484505734, 106.65468705564258 75.77656948739195, 111.53343271889878 78.0, 111.9735035970332   79.99970416881546, 112.36929360017903 79.29590008433273, 103.56648112706367 80.0, 105.47951792705614   81.8109530968209, 110.3998706215959 81.15129350899186, 128.01537661830437 82.0, 122.8414884237576   84.02962993101346, 110.46844962810111 83.18912947178279, 93.60685368322049 84.0, 81.0947005638667   84.38948406898565, 75.08475922414159 85.56572871650387, 67.12628345531643 86.0, 61.11941228978765   86.76598826187481, 50.52420837405292 86.98282639694293, 15.192371453200444 88.0, 25.76641712619498   90.21078255455583, 48.74864516934755 86.97421362307729, 79.81229184098842 90.0, 102.70148103877841   91.83679786047468, 116.59631977133267 89.0930849488916, 42.31429515943823 92.0, 56.02524752131207   96.08005486679963, 75.26951057302762 91.52514983680261, 141.0838795115464 94.0, 121.56815188510518   97.66494208027373, 92.66781178819224 91.92522525810348, 53.32817787675492 96.0, 24.48276803442822   98.88692730456579, 4.046153360006944 97.05659787770787, 72.63413120172682 98.0, 93.25207389852062   98.25720866929402, 98.87333918859422 99.34574110618826, 117.49128120011265 100.0, 111.90229872914225   101.84371075912142, 96.15246756638201 98.68246133019362, 74.58868420856878 102.0, 59.082221420650555   104.1453938300525, 49.05446503188176 102.8059478146298, 103.39088524427437 104.0, 93.20595263491788   106.38486743307827, 72.86369759300723 101.58948843815648, 4.962277393840154 106.0, 24.963335381515236   111.58196103622255, 50.27675420038902 105.92828799613423, 85.50675467395155 108.0, 111.34539764688375   108.87630867262847, 122.27482552290154 109.3477246161271, 85.79690298872373 110.0, 74.85181973593885   110.54774091091559, 65.66080928367943 107.929017884786, 52.48443468965981 112.0, 44.22599671043878   114.99775906622159, 38.14471051846119 109.828321040293, 72.08206539892707 114.0, 66.73737683690692   119.11461320441435, 60.184615956498554 115.28459873638828, 30.819585275889644 116.0, 39.101260494020494   117.90978107030062, 61.209393882149826 109.70744070935683, 92.4596735182762 118.0, 113.04244024325672   125.17996936305006, 130.86367363002512 108.23193441822389, 33.84204038753708 120.0, 49.02956658316954   132.71620406289665, 65.44073297005015 120.9146541762072, 97.47189462974836 122.0, 118.20472493315569   122.11772228182363, 120.45351609121268 122.88159223175286, 123.4851061321686 124.0, 125.43960971930204   124.30021426404193, 125.96425723395423 125.5879904546529, 125.63733534150721 126.0, 125.19503255663261   126.9235379597463, 124.20359093556759 127.89660276810207, 122.49650254975697 128.0, 121.14550741153172   129.10474316903793, 106.71085937539233 126.66019748375662, 87.01711482338212 130.0, 72.93076538325911   132.17371442983224, 63.762648138980865 129.99896643078034, 113.48197917229592 132.0, 104.27463032031093   135.17215919447722, 89.67858517301583 133.05885889800044, 69.43267084160999 134.0, 54.525579196251726   134.2599973143993, 50.40738290765846 135.55891215289105, 36.81435707709345 136.0, 40.91710990732963   137.63078620427905, 56.08577247413932 136.98254029080516, 76.50923769346741 138.0, 91.73134541381827   138.18503441899986, 94.49962589955595 139.26883642953482, 103.43707013850965 140.0, 100.76068929543906   141.87810959643988, 93.88598061445181 141.59301461133455, 84.20458660418247 142.0, 77.08958287979175   142.79324158303547, 63.22196754316693 142.54008767435224, 17.01850212955543 144.0, 30.83185231461445   146.65265297820144, 55.93063657967508 142.8320298148119, 89.89769092978237 146.0, 114.93665065882414   147.97799997891696, 130.5703400311901 139.94269512800395, 48.90430382045948 148.0, 62.44699799510336   157.0879212775401, 77.72194917297467 136.08025200264228, 110.60746068678915 150.0, 121.65983881654812   163.17400252992581, 132.1200897830728 136.77222676164422, 72.77048137118905 152.0, 65.62302621971115   166.71823643041685, 58.71473220005241 152.74133646487812, 103.57227752932408 154.0, 119.78236007041737   154.07699554500573, 120.77397069947911 155.8075847432905, 118.11405268387232 156.0, 117.13824721012033   157.0304287184794, 111.91258059200241 157.58258820087016, 104.8068623764072 158.0, 99.49695255254707   158.78296765037885, 89.53679419770816 156.5735996972501, 75.63907521936537 160.0, 66.25410991520349   162.3022070819139, 59.948327847236285 155.43857114546597, 87.12289825021914 162.0, 88.54088849122904   168.30900376253848, 89.90432715133011 159.28394302092323, 62.71158941788699 164.0, 67.11854982452601   169.53234284983373, 72.2882956531573 165.15886346074802, 99.8037201554055 166.0, 92.27872323427044   168.03215774524054, 74.09858236226076 164.69144202221705, 49.32533122547048 168.0, 31.333648943501757   170.12933446191755, 19.754492897840173 169.2650769752133, 58.776679204085276 170.0, 70.52703273613398   170.46520188106567, 77.96493627423902 171.4613827042608, 87.85490114941211 172.0, 95.28784896579245   172.66141604728998, 104.41542619607043 172.80353607601154, 134.80020955816215 174.0, 125.72724910630876   176.38488019773868, 107.64235470818885 174.96630804567704, 83.16741915708306 176.0, 64.9552655257224   176.16840704464738, 61.98817754859836 177.10653704099457, 58.087425662807 178.0, 55.25304814074573   178.32423145300243, 54.22447238047213 179.91263837064324, 51.19093994598485 180.0, 52.26586416445545   181.26958037915628, 67.88716961512603 177.32135788610026, 119.4284579878203 182.0, 104.47027205862646   187.8232518042227, 85.85263021307972 167.30135974436692, 49.56114167789978 184.0, 39.47737933057195   200.07863162533644, 29.76801990381093 174.15299038360652, 116.63020754477844 186.0, 102.05480296821925   198.77776529731292, 86.3342874269015 175.51310047868816, 50.50870034272079 188.0, 34.556169658760666   199.5424084040796, 19.81026544782214 189.04305997993657, 78.24294911222377 190.0, 96.94463750024752   190.24391820455375, 101.71158439147275 190.3685449560616, 108.24333133809337 192.0, 112.72904568409031   192.53190891861897, 114.19153861386971 193.84826236175485, 109.49151010632929 194.0, 107.9427078734729   195.05589774447418, 97.16504714787519 194.65595158259507, 82.64615015265889 196.0, 71.90061970439584   196.16859908510838, 70.55268716035896 197.90283626512417, 74.60815809382666 198.0, 75.96311455194555   199.11058352915364, 91.45029530956268 194.4581285103237, 113.17668709689701 200.0, 127.68095626105162   204.4219587403526, 139.25417298438026 200.68181802387255, 98.75088116858753 202.0, 86.4319745326751   202.13897648796953, 85.13318695183332 203.4869637934715, 89.09821929083047 204.0, 90.29945094840032   204.68938695273005, 91.91359322802305 204.61589493904293, 94.71830778874833 206.0, 95.79764223630994   206.73526112697184, 96.3710038146174 207.91123314518288, 94.34683351374768 208.0, 93.41867788574072   209.12805087985407, 81.62365850635958 208.72715411757898, 65.75349244768535 210.0, 53.97321892339397   210.10130572329732, 53.035627698485804 211.93794528129453, 55.45740669155889 212.0, 56.398411137076536   213.15020208455556, 73.8401995681443 212.9854881839485, 97.17944351273326 214.0, 114.6296502245329   214.18732843779767, 117.85181078574783 215.83834642080424, 128.42434115361718 216.0, 125.20079051089571   217.3576624307659, 98.12750439457474 214.81471744746509, 61.78474943650755 218.0, 34.86523897527131   219.99406242278377, 18.01298698030557 207.00848221022434, 80.47827399358825 220.0, 91.39592702735553   232.22000240363124, 101.66522338467914 213.82487244931932, 51.93634891399547 222.0, 38.22671011680629   229.14529318246375, 26.244097243268936 222.56196915724928, 70.8109816566525 224.0, 84.6879515433289   224.25083574395933, 87.10851163282423 225.78305571901683, 74.40280025206505 226.0, 76.82663293941252   227.40648638925995, 92.5407493436239 226.67475395312118, 113.65719402844012 228.0, 129.37837023264032   228.13805662305012, 131.0161132783483 229.45890944072735, 125.82990477968481 230.0, 124.27797600503087   230.65962880870248, 122.38606177501332 231.1046114021646, 119.69817974791324 232.0, 117.90577106742782   232.34633515096374, 117.21246970928529 233.9603373619034, 117.04466544977048 234.0, 116.27068761731365   235.17372509162726, 93.3665832532686 235.02704901270764, 62.763170017206434 236.0, 39.84965885706099   236.22772872008036, 34.48652686254169 234.0314863247784, 25.683253210504315 238.0, 22.068568664079123   241.1668085214972, 19.184109957129017 239.7194224770974, 31.93194684881135 240.0, 36.206295278404966   240.92045094137737, 50.2285447982291 241.18064468377017, 68.97648288529396 242.0, 83.00500270733707   242.38096005832912, 89.5275767650339 242.25506463618015, 98.39557043757343 244.0, 104.69194268516749   244.60283570968605, 106.867196915798 245.8533304444286, 99.69095426869846 246.0, 97.4384823149958   247.05679032544765, 81.2088662931753 245.37351071019165, 59.31260704686227 248.0, 43.26209939077195   249.44370761676225, 34.4395847717653 243.60366835018527, 66.74879591778317 250.0, 72.99443418067207   255.5601525931142, 78.42359321811205 251.18412687394266, 39.43963997835798 252.0, 47.16786200898754   254.00779441143405, 66.18635950308105 250.30908570269327, 92.11912870677239 254.0, 110.88376664576188   256.51432614432116, 123.66662096268544 255.0512766106703, 80.49708945410903 256.0, 67.50389414355331   256.25290027492684, 64.04031065528343 256.4431932140379, 59.20626700352805 258.0, 56.101960034097345   258.5334929246338, 55.038163409483424 259.8406963900712, 60.70717054393896 260.0, 59.527806173170575   261.3292043153594, 49.68737498829873 260.5550312078107, 36.313061743482514 262.0, 26.488962028711327   262.2696297389906, 24.655794796152552 263.8808664377162, 30.48342275900261 264.0, 32.33247913808165   265.08548821467906, 49.18019920361365 265.0360928286359, 71.71732372375091 266.0, 88.5724368659321   266.23723069436966, 92.72070997063405 266.99965585052036, 98.2446081144658 268.0, 102.2774433127037   268.2267969277832, 103.19176328317792 269.85103591285025, 105.62840406475516 270.0, 104.69822797626465   271.30320057496544, 96.56065578330228 270.0744479484345, 85.31340857621456 272.0, 77.30025300359671   272.7665839712831, 74.11012546776989 273.60760970836685, 84.79489806484521 274.0, 88.05228882109488   274.8088034354353, 94.766493760378 275.1917029419778, 117.22013920115805 276.0, 110.5058732822464   277.99779491139304, 93.9108279911463 265.8608774021505, 66.31592614574754 278.0, 54.825564303053866   289.31477252288505, 44.115496140569945 278.75336681656887, 91.1898209279232 280.0, 106.71964845419194   280.06899806297747, 107.57918599252208 281.92991865809654, 105.5146761449605 282.0, 104.65522625229062   283.14673345828226, 90.59214011733575 272.05978088316203, 65.18297802988182 284.0, 57.6652285857063   295.30146435934455, 50.549649166730646 283.9687278160083, 115.33632784703644 286.0, 102.1367634433212   289.2165543304688, 81.23502689729182 286.8408882800979, 52.78851974997285 288.0, 31.67252409688409   288.0514371219037, 30.73547374714046 289.95942971749196, 28.329601118714397 290.0, 29.26718481505388   291.23034690663735, 57.70063731262057 289.6680770226552, 95.7486011998437 292.0, 124.11296457485682   293.1365034593288, 137.93683329202506 292.8602133785129, 91.74481450830052 294.0, 77.92121610267372   294.0755330068974, 77.0051341501094 295.5154525527409, 74.81892507077926 296.0, 75.60003015353044   297.4224212137193, 77.89301600276801 297.7533840992916, 81.68228491410152 298.0, 84.36933660909368   298.9561096443098, 94.78681590771706 299.1080394774797, 129.60597890736403 300.0, 119.18281110599703   302.0867495824494, 94.7977172502244 300.6262640190344, 62.06223843481846 302.0, 37.62660511727799   302.17842218923477, 34.452880870215246 300.8238014197664, 47.904949300284855 304.0, 48.03192430935219   307.12913915199687, 48.15701802190229 305.353246499625, 34.72238693429231 306.0, 37.786513266418964   307.813141486961, 46.37664006255905 307.4216654497597, 58.222413628405974 308.0, 66.98273836973272   308.6216688643536, 76.39946979455644 309.4021044925193, 88.9582573312115 310.0, 98.37652807834462   310.60210452226767, 107.86110078016041 307.7267798946524, 138.48098632619795 312.0, 129.99221497087112   317.3433627081206, 119.37760042268701 313.4120530955802, 102.29962448865442 314.0, 90.43050971649728   314.61205368998526, 78.07474180863517 314.17347796957046, 37.00731083052596 316.0, 49.2426460357721   319.01252353133754, 69.42265733896899 314.7045865740262, 137.3610855879576 318.0, 117.2253361711634   322.4792817253226, 89.85587360921814 310.6061160007997, -1.292475755508665 320.0, 24.80170729577887   330.5227132872028, 54.031534568061545 320.5898083114998, 97.30227178223478 322.0, 128.3364731847816   322.2129147863745, 133.02210593656315 323.4156456427951, 117.48395247498402 324.0, 112.83002757485502   324.6156520819244, 107.92684080375085 325.67712603067315, 101.41073292320641 326.0, 96.47960522274683   326.8778264521457, 83.07290556406406 327.1685049103601, 65.14924682195971 328.0, 51.739593920630895   328.36890776336287, 45.790160038292115 327.86335781817314, 37.535737832474126 330.0, 31.970972190955322   331.0282723354413, 29.292894124792916 329.7231161511937, 43.06687989307294 332.0, 41.321816552291565   334.9946069698091, 39.0266714372687 333.7840693368105, 25.138473702678503 334.0, 28.905267558378213   335.4116337067064, 53.53045554408423 335.0063891293935, 86.45406272790413 336.0, 111.09965727319928   336.20712417084144, 116.23717990514551 334.4146781086673, 131.80699659189312 338.0, 128.12155141506076   342.44071135258105, 123.5568292695713 339.7522868698992, 113.35154107105073 340.0, 106.98795373467829   340.95276647523787, 82.51200983183966 340.34703539026657, 49.802826721101745 342.0, 25.364183103048617   342.4570013486482, 18.607539296631415 343.4386286534711, 41.100240167267884 344.0, 47.84901397965473   344.63864594076495, 55.52677848807091 345.2297099527073, 65.78627533859363 346.0, 73.45195141623952   346.4302392818928, 77.7335528499604 347.3313679568107, 83.40481365717211 348.0, 87.65571331109771   348.5315642396693, 91.03518975926671 348.24605845126587, 101.81957314216177 350.0, 98.88237879240413   352.77414841151653, 94.23672053453546 349.4685536902369, 85.73945337137938 352.0, 80.95721334825112   353.48208460932284, 78.15735766534338 353.78460763676856, 94.48644169885742 354.0, 91.32584479887731   355.4093074777564, 70.64612905366836 354.8303485144053, 42.957179201636606 356.0, 22.262525151091353   356.04453186854533, 21.47462240816284 357.7257411963418, 19.8138392990836 358.0, 20.553809520272523   359.3199266125904, 24.115067625550566 359.34782961621414, 29.31323392764782 360.0, 33.05481639306876   360.54796813757787, 36.19857763421682 361.8588543444782, 40.31426887715303 362.0, 43.50230616129396   363.06052936140236, 67.4563352993299 360.24797185870784, 99.72014597511422 364.0, 123.40225988623337   366.5673534715876, 139.60692442355884 364.6769107698269, 85.10291795709892 366.0, 68.74957299332084   366.13507606534716, 67.08003669705559 367.8552002251243, 72.29365345942564 368.0, 73.96237453053749   369.06158456781475, 86.1964304094254 364.3262622205265, 125.73763193615807 370.0, 114.846911819832   376.7369047130347, 101.91544643814723 368.7781347089229, 80.50508682304319 372.0, 66.28438831430694   374.05308244588457, 57.222474224552215 373.31366642620685, 87.92547962054604 374.0, 97.19167521124986   374.5137359674243, 104.12762900675489 374.1545137584467, 126.99405979864186 376.0, 120.28842334638445   378.9998168959106, 109.38848756014708 367.0652027349215, 79.78739924167857 378.0, 82.65754040976077   389.2390331406669, 85.60753673109053 377.063650793908, 132.58094076555486 380.0, 121.33833441414546   383.5129582478972, 107.88802454360801 380.0, 75.0 380.0, 75.0  " style="fill : none; stroke : black; stroke-width : 1; stroke-dasharray : none;" /></svg>