<?xml version="1.0" encoding="utf-8" ?>
<svg baseProfile="full" height="100%" version="1.1" viewBox="0,0,400,150" width="100%" xmlns="http://www.w3.org/2000/svg" xmlns:ev="http://www.w3.org/2001/xml-events" xmlns:xlink="http://www.w3.org/1999/xlink"><defs /><path d=" M 20, 75   C  20.0, 75.0 21.19670446554074, 105.48314298423587 22.0, 98.46418154495935   23.99377839697851, 81.04312903496997 21.732467775551555, 22.66163065523201 24.0, 40.04916988489741   27.45699926630124, 66.55759596662958 22.996732710223824, 102.5727045288817 26.0, 129.1363617101515   27.81136206504149, 145.15771321979523 18.58963580358697, 88.5212034507956 28.0, 75.428847573525   36.43670682454375, 63.69111183092461 27.20589594703408, 109.38870695653819 30.0, 123.57128235551355   31.6184876847813, 131.78655393688433 31.385915652117305, 104.0830568211936 32.0, 95.73242271621973   32.58591744076391, 87.76481666924603 31.911789837798466, 76.88861232713533 34.0, 69.17722959213629   34.93724437628487, 65.71615549500689 34.86236251207643, 77.56066890791512 36.0, 80.96114562049067   36.191066396973866, 81.53225622502184 37.85099993827222, 80.55000440115958 38.0, 81.13350476299807   39.15944047447476, 85.67399909931726 39.0872004010772, 92.02914628868344 40.0, 96.62557837500901   40.295795709152934, 98.11506729475926 41.733040884621076, 102.77056141602077 42.0, 101.27563493812022   43.43044413465345, 93.26538659347878 42.839018818301646, 82.27996404413224 44.0, 74.22624616597574   44.09067990150102, 73.59720035935904 45.790562827186214, 74.12771244661175 46.0, 73.52766449685936   47.08212510247642, 70.42732208680442 47.766594617579905, 59.49058635937057 48.0, 62.76604659030791   49.42707837345986, 82.79274182000684 39.677165987307305, 146.88153629928777 50.0, 129.6610783363404   61.351656355564415, 110.72434828328878 51.1151640081458, 78.15403794003976 52.0, 56.093282912514184   52.315444568566235, 48.2286103449793 52.2637516099503, 22.255859261808343 54.0, 29.93296948626282   56.90465386445205, 42.776378303274164 53.87448506110114, 60.78485686704332 56.0, 73.77994633798113   56.944025165235416, 79.5515790188629 57.40610195691304, 60.206481772378844 58.0, 54.388388233251305   58.60610260366942, 48.45073330492703 59.48952871670876, 28.647499384771248 60.0, 34.59413923286726   61.70426111446824, 54.44761069460118 60.17017531355788, 81.14334832470013 62.0, 100.98564095042912   62.63645455915388, 107.88724070437372 63.53185556089113, 84.88448162632562 64.0, 77.9694259972184   64.7319952847534, 67.15697648067757 65.14254890465284, 31.097612277913804 66.0, 41.90083676247086   68.05292290462802, 67.7660868140859 65.31080481363381, 102.55949302571844 68.0, 128.3663502914636   69.49623150820082, 142.72493354507478 68.01674559632205, 94.58628217545503 70.0, 80.28683030668367   70.79719140144914, 74.5390048869694 70.66919617153542, 93.87778878442982 72.0, 99.52597188664969   72.2077558791233, 100.4077271241627 73.76131388830842, 96.38969669734841 74.0, 97.26358670431583   75.3457433727297, 102.19069233705044 72.03258895888104, 117.38766220129322 76.0, 114.17097993967984   80.71875646635768, 110.34512472455566 77.34016859456511, 100.05939368533711 78.0, 94.02048209198793   78.54024045799706, 89.07609123983607 79.60454453226859, 82.52023591537105 80.0, 77.56216415062812   80.8050481855582, 67.46877310214538 81.1894569069291, 53.96293936868495 82.0, 43.86998809896521   82.38999907240915, 39.01368660591525 82.9406788949748, 32.509201386347755 84.0, 27.753825243041376   84.17727877612381, 26.958006809240175 85.96224864807515, 25.09922155974301 86.0, 25.91367203673323   87.22458909218146, 52.333048281307924 86.46878675497467, 87.64674360528007 88.0, 114.05012304040818   88.33463986066492, 119.82046446343327 89.33631037873053, 100.62922719039986 90.0, 94.88742084907797   90.53640161350862, 90.24682668090651 91.28998063093445, 74.82753312294275 92.0, 79.44475235319308   93.89239565224567, 91.75090339283337 91.58995053523094, 108.68388847513506 94.0, 120.8992139432691   95.23541587406972, 127.16091404978822 95.52313481096184, 106.08330447993735 96.0, 99.7187353509728   96.72328312345527, 90.06530384692549 97.42475584564126, 77.17585984106738 98.0, 67.51247676665267   98.62475947187643, 57.01729822313321 98.28593811209645, 22.150638541013347 100.0, 32.52373301192641   102.89686570255395, 50.05487457350287 101.10379348561824, 73.97326939173172 102.0, 91.71952446806392   102.30428583028437, 97.74484773193805 103.6422100088613, 117.75221319850907 104.0, 111.72983022970547   105.55431138283463, 85.56739239736288 98.49726004866477, 49.502542166047036 106.0, 24.390833135623822   112.35331721139286, 3.126247900721161 107.00504412816807, 76.1707184911092 108.0, 98.34180975009166   108.2059653064924, 102.93143601966612 109.32841310153472, 108.97990726872676 110.0, 113.5248013312607   110.52860183097859, 117.10205891110516 111.65218861235141, 129.01072710295634 112.0, 125.41139120214206   113.53850921884211, 109.4900853974369 113.38256175355342, 88.11423564928012 114.0, 72.13068913559219   114.58256251046244, 57.049966428996996 114.92218388614243, 6.81045799403886 116.0, 21.863892447894273   118.27430359837257, 53.6281977928347 100.30911080012112, 101.51739061048767 118.0, 127.99711852113262   134.6932733444557, 152.98361473988885 118.3163866969213, 57.85369036428098 120.0, 27.85109356853127   120.4863258192793, 19.184591919656352 121.63540728666202, 48.043198880038766 122.0, 56.71567463877284   122.83560045707307, 76.59189389067903 122.8430024221462, 103.13799131957596 124.0, 122.9980939496871   124.05421926432076, 123.92877883144548 125.94242481112386, 126.30698493045037 126.0, 125.37650162840622   127.2423281827595, 105.29900553537271 126.78725177589214, 78.43265686780846 128.0, 58.35335233741256   128.0389305369064, 57.70878482493433 129.9615451788964, 58.504459066864364 130.0, 59.149055135406584   131.18419391375974, 78.99901722843946 129.89453587269006, 145.17652922758285 132.0, 125.40305378372527   135.2983719472612, 94.42637939734814 132.43328477855454, 52.69539902193384 134.0, 21.583037861825744   134.36917849806667, 14.2517662898297 135.46945189778748, 38.648337012729506 136.0, 45.96969988701943   136.66949471669696, 55.20847341748223 136.76018783917849, 67.60187013943867 138.0, 76.78152292855572   138.09356196866042, 77.4742620496174 139.9429853651063, 76.28266928251412 140.0, 75.58596944525502   141.16777397118483, 61.31616069883637 138.4850659959545, 14.023505270900392 142.0, 27.90285599974746   146.67744236936082, 46.37258063287253 138.31129656506138, 73.19696590520851 144.0, 91.38069072636317   148.5441514461738, 105.90589851543257 143.27150051921453, 25.71585341829236 146.0, 40.68870432467486   149.90841710784144, 62.136444024745515 146.48461093304053, 91.58278353121159 148.0, 113.33099859605298   148.3204432093799, 117.92986233712828 149.33475505127035, 102.65675459321436 150.0, 98.09499169740263   150.53490740817853, 94.42698824696947 151.62327115299925, 89.58953432583289 152.0, 85.90192661573798   152.82428424367274, 77.8334260045508 152.97273480944477, 66.98619639001713 154.0, 58.94101939660247   154.18246425475863, 57.51202400378561 155.80740457003242, 56.00300912948597 156.0, 54.575343889553295   157.0172991259525, 47.03434148372908 157.09337945269692, 21.734839595087106 158.0, 29.289947402360156   160.09646897445924, 46.76037553655507 158.51673369021202, 70.37525843584025 160.0, 87.90839741342174   160.29110244714852, 91.34941109308825 161.52173159801757, 79.99248420723525 162.0, 76.57245860586133   162.72223783248566, 71.4078442028539 163.61843648198288, 64.5058895274832 164.0, 59.30499742130144   164.8189315109258, 48.14257169252298 164.1356820643118, 11.014493105109636 166.0, 22.050557421919038   169.04651257515118, 40.08477147829244 167.32131141807704, 64.70636967256587 168.0, 82.98350011775386   168.5213258944089, 97.02284250593509 163.27042968448472, 117.43844583638598 170.0, 129.77083403775634   175.6773359795432, 140.1749323630107 171.09165865710668, 102.13122629686136 172.0, 90.31376794952766   172.2929257323956, 86.50282433396916 173.77896397181323, 81.54689759695532 174.0, 77.73110936909086   174.98031036887963, 60.80781955109033 174.41211422584934, 4.383859341318981 176.0, 21.26098485046961   178.78218235485863, 50.83190333634721 176.00634552998875, 90.61129315260514 178.0, 120.24581863570185   178.79697223161924, 132.09235185522581 179.42246271214776, 92.57793761433479 180.0, 80.71868111401413   180.62246470955748, 67.93687670361496 180.85213322593816, 50.85445297242634 182.0, 38.109085650558   182.07248729131578, 37.30422120560371 183.95790570205915, 35.49755652552391 184.0, 36.30458146456529   185.22696750909518, 59.82780022984372 184.95611584927573, 91.26437184733842 186.0, 114.79642607614278   186.15753582504692, 118.34772204649663 187.79749960595285, 130.02473072212877 188.0, 126.47571477462509   189.3980642885758, 101.97328119103476 188.36025183161854, 69.17999078905456 190.0, 44.69254377599222   190.44375390797785, 38.06567233440204 191.676984495917, 60.107208799922184 192.0, 66.74106164863169   192.87737063238805, 84.7598489683444 185.66619014671767, 142.84139233697732 194.0, 126.8415770558889   203.39756900745544, 108.79948456066016 175.6602586547077, 59.417014349016114 196.0, 59.061589444313626   216.31878438931065, 58.70653074997519 194.3762085096162, 106.77549977123716 198.0, 126.77167943061065   200.44378778638907, 140.2565666697611 198.0035613245044, 94.69203533577445 200.0, 81.13369785610931   200.81204358225244, 75.61889739090509 201.35064814646495, 94.07031793807354 202.0, 99.6066326979842   202.55070431011018, 104.30188748752767 203.6613757382455, 119.9526305961257 204.0, 115.2373335338765   205.53340582275683, 93.88486477154166 204.92227788332215, 65.28748619558776 206.0, 43.90717350603683   206.12488756914385, 41.429600448925896 207.63846991090176, 33.42938794720424 208.0, 35.88362125985512   209.54046813349993, 46.34103082082084 209.44159064603093, 60.5055193282891 210.0, 71.06102195912132   210.6415987550606, 83.18903754274987 202.73809664970122, 119.35088996799811 212.0, 111.4948376967262   222.0372562171039, 102.98112226271948 204.13485646049466, 76.38074221645537 214.0, 67.66817624517053   223.07168424881013, 59.656367073624814 213.9833690722789, 96.0282805766296 216.0, 107.96217101574176   216.8369187110702, 112.91483541608471 217.71091831389924, 96.35367598336506 218.0, 91.33912222753344   218.91165337385436, 75.52513237732677 219.07976473566384, 54.389687486509075 220.0, 38.57619470614041   220.28057205761493, 33.75479263710774 221.23129521897957, 17.834392989491114 222.0, 22.602383294685026   223.9497917459321, 34.69621745740535 223.45429558979507, 51.14886969257442 224.0, 63.386709342797374   224.65430544212882, 78.06001037042475 224.4092001085272, 126.90692962090957 226.0, 112.3054490670664   228.7831717942605, 86.75954033917782 203.6830170720051, 18.363836593825972 228.0, 26.671895287021755   252.7048479431992, 35.112470638262515 228.95941537454513, 87.58587222950877 230.0, 113.67207562888895   230.16052803049905, 117.69632003195207 231.74106298492921, 130.96619047147482 232.0, 126.94707814580053   233.45407647377598, 104.37750972535467 232.1980065085814, 74.13020211071485 234.0, 51.58574433205756   234.60705960788638, 43.99091684555609 235.21004090341498, 69.32571864272171 236.0, 76.9037058783251   236.41076482773667, 80.84412587586644 237.5927315866104, 86.01650378900912 238.0, 89.95728669855697   238.79347274266445, 97.635033660222 239.0879956990675, 107.94366290260999 240.0, 115.60823370310422   240.29111347895332, 118.05477904081218 241.8722484984037, 126.03415669563712 242.0, 123.57366676456064   243.32265718147457, 98.09933075582686 230.38578271613937, 16.99651806953316 244.0, 38.568358622749926   258.62875720287786, 61.747746118372135 243.8487086117092, 102.58668426433854 246.0, 129.9117000435769   246.95563873438365, 142.04991787795018 247.04883751094766, 101.51364985951452 248.0, 89.37508044196075   248.25074568079904, 86.17510789514222 249.2393508623387, 75.7460486431116 250.0, 78.86439926262297   251.918336148507, 86.72879352923643 246.418077006938, 111.6361112862623 252.0, 105.77344581235565   258.44893574663416, 99.00016123063935 253.413243140902, 83.99712933147629 254.0, 74.66321950346568   254.61324429666843, 64.90795737249674 254.96410446093682, 32.42346229766475 256.0, 42.142933900764476   258.22809163034344, 63.04839445503208 237.2551656096987, 115.60779276600896 258.0, 112.19392114888296   278.93961274652503, 108.74799585085347 259.0548475927547, 62.68487406152647 260.0, 41.48467429687541   260.25543633716217, 35.75512069951259 261.5398041177626, 16.755344095181112 262.0, 22.472095961177033   263.65450193518177, 43.02503306973993 261.7524929365146, 70.67783235581413 264.0, 91.17440066472003   265.0557327846761, 100.80235667368039 265.215706880416, 68.60471602497202 266.0, 58.95085705947592   266.41611860846393, 53.828855783779346 265.63012316535094, 46.4982219475116 268.0, 41.938426387057035   269.3182581007465, 39.40201295517191 269.8645071954548, 48.399281901814014 270.0, 51.254599610502055   271.0665559865252, 73.73074663436188 266.32884581770645, 104.45767582999285 272.0, 126.23272432480016   276.5104117026793, 143.55096861870985 268.7597629023382, 83.72461448396975 274.0, 66.6130594900047   278.09366062172296, 53.24555386960107 272.291673401768, 126.65054690515944 276.0, 113.17105961378915   280.86452825034223, 95.48886658357938 260.6513430481101, 58.018753514553545 278.0, 52.073361397828265   294.9598399976616, 46.261217016701686 275.32893776612167, 94.49134770229594 280.0, 111.800257912375   283.51337082086667, 124.81927093943992 281.39745079673787, 80.36688987025184 282.0, 66.89560896673522   282.5974508184064, 53.53831340113673 282.79785747526245, 35.688170298328124 284.0, 22.371671296811655   284.0542554306741, 21.770667361311805 285.96336044542437, 21.98405573002104 286.0, 22.586390292606026   287.1944305865118, 42.222186447822324 287.23821040107947, 68.47218370268061 288.0, 88.1295190175746   288.43828103110695, 99.4389897728009 288.2742502521241, 136.988618101462 290.0, 125.80300203290088   292.91072923338373, 106.93682533246013 290.36711670266914, 81.22255561401843 292.0, 62.20312712366611   292.4394818011231, 57.08414972770936 293.635189779659, 74.08713225508903 294.0, 79.2119724805955   294.83574366251526, 90.95246795209611 292.37334935243075, 129.59252548971824 296.0, 118.39497636206328   300.76713811344166, 103.6760887682562 296.3568491468079, 82.24580527966258 298.0, 66.8616799205331   298.45320376745366, 62.61852503418022 299.7251005998013, 76.68624540492776 300.0, 80.9446708609132   300.9261458422006, 95.29145745823287 290.14215087824454, 136.95400761689723 302.0, 128.82508111976736   314.53580076763757, 120.23139756244917 303.1613564780928, 93.37799877874343 304.0, 78.20254573732201   304.36170039361895, 71.65749149789366 305.2428897309256, 62.95530517185928 306.0, 56.444134293110565   306.4434849281938, 52.63015069313969 307.73949173518736, 39.97159303263934 308.0, 43.802426522409704   309.4551125129301, 65.20018812481271 308.91994188245917, 93.84507922649578 310.0, 115.26504721156272   310.122622991752, 117.69693538026678 311.7317672013361, 125.55153098583637 312.0, 123.13137239001874   313.4541618379719, 110.01104449049349 302.90116124088803, 72.02806368785285 314.0, 79.17462713060686   325.74785925143806, 86.73909610606786 314.091827301795, 139.5486657834482 316.0, 125.70698001811832   319.0962542823149, 103.24707433679583 316.6280035762747, 72.7898148939496 318.0, 50.159044257315514   318.1774689899272, 47.2317334154601 319.2890362693094, 62.57308692532643 320.0, 59.72788489719687   321.86580704160855, 52.26112147492439 318.27708584434015, 40.887465672396345 322.0, 34.151465218841594   324.677098694522, 29.307695723620753 322.45531457136644, 47.17613757411018 324.0, 52.49054321064288   324.4182585176869, 53.92953873861232 325.66292630843805, 49.37339332594014 326.0, 47.91324619513773   326.87089358901943, 44.14068011515564 327.03957351700467, 38.91398106560488 328.0, 35.16320895282759   328.2603971836528, 34.146274797029896 329.14584769704305, 31.681734794967834 330.0, 32.29196885976236   331.4812270840289, 33.35020545438555 331.742184715551, 36.218875874541126 332.0, 38.02093848271123   332.9483102113584, 44.64938324884262 333.1858968759185, 53.604678562722114 334.0, 60.25094130038016   334.3872034048396, 63.41203414642905 335.4004732561933, 73.80434826369954 336.0, 70.67656915680573   337.7709414738318, 61.43742545120118 336.95182309143826, 48.73138164741506 338.0, 39.38262048430326   338.1610191840715, 37.946479426178506 339.7880907884411, 33.5707786242926 340.0, 35.00029700561102   341.38261248228866, 44.327262752554034 341.56675130688416, 56.947293165055655 342.0, 66.36622107064778   342.76685765440845, 83.0378858107737 342.00705304021017, 105.39136102233472 344.0, 121.96123242451365   344.8034463430354, 128.64129107697846 343.69613071472196, 105.94470855733812 346.0, 99.62324544007964   347.1851772070812, 96.37130139540038 346.2343458833218, 108.00889414776589 348.0, 110.9858473926401   348.77023252398357, 112.28448577822287 349.9300189735039, 107.87563373827423 350.0, 106.36738228263373   351.13483290816845, 81.90913307777325 344.0347243632615, 1.623968532117928 352.0, 24.776682928648214   361.09970286100366, 51.226843731918976 345.33564040795466, 91.39825783368124 354.0, 117.99420623822532   361.52368206177374, 141.08875325019804 354.3426663972292, 61.287568142137914 356.0, 37.05500453892   356.4614443283032, 30.30803518027311 357.6939892903444, 52.75273961782948 358.0, 59.50854333317078   358.89437908308577, 79.25376577729756 340.3569910308724, 127.55987164697439 360.0, 125.36307353356433   379.77631980517526, 123.15136645210427 360.441017433924, 78.89964750601825 362.0, 59.061198811389474   362.3650013193777, 54.4164644150504 361.5143344727477, 70.52146854717277 364.0, 74.4620586631722   365.4849304740379, 76.8161575090489 365.1551253307599, 68.05448057723635 366.0, 65.40250269607652   366.3667830484302, 64.25120704592278 367.8834775723871, 60.703777114872565 368.0, 61.906454961405814   369.29684028040305, 75.29169853798408 368.4919090885388, 93.32512364121553 370.0, 106.68821468034167   370.32128342494326, 109.53508526635919 371.17611121072645, 100.0941040186136 372.0, 97.35018302201324   372.3845719535246, 96.06938508943038 373.86780497245144, 94.69714979030711 374.0, 93.36641187236921   375.07761353313737, 82.51864236075224 374.82364570965467, 67.92179008402015 376.0, 57.084283687825774   376.0673161832818, 56.4641137501876 377.9627042384194, 55.89255051648199 378.0, 56.515247269524664   379.20859213782796, 76.69411929366898 377.8254794887621, 103.77126718689325 380.0, 123.86900416568317   381.577043931178, 138.44463772214428 380.0, 75.0 380.0, 75.0  " style="fill : none; stroke : black; stroke-width : 1; stroke-dasharray : none;" /></svg>