<?xml version="1.0" encoding="utf-8" ?>
<svg baseProfile="full" height="100%" version="1.1" viewBox="0,0,1260.0,1260.0" width="100%" xmlns="http://www.w3.org/2000/svg" xmlns:ev="http://www.w3.org/2001/xml-events" xmlns:xlink="http://www.w3.org/1999/xlink"><defs /><path d=" M 1030.5735109670159, 620.7984725185861   C  1034.5254485877117, 606.4767753902288 1030.0287527680478, 584.9299238573324 1036.7019145936324, 571.6559745262617   1045.834870962531, 553.4891140106291 1066.8151943932019, 534.9206655771709 1081.0472319425708, 520.398447419327   1085.7284885228114, 515.6217435162297 1105.700217408239, 509.8776603004086 1099.3747111813325, 507.70532645836727   1075.5419006275033, 499.5205553017414 1040.6492230192628, 493.1132080915459 1015.9360049969509, 498.0376565644939   975.5612582264614, 506.08287997085455 926.9732405492911, 534.2751607772833 888.7903602234522, 549.6671537106913   888.0746300608836, 549.9556734218936 890.5061285594655, 548.9634280380126 891.0239457255961, 548.3912578956395   900.472078110168, 537.951396868944 922.3555006561417, 527.133678691836 921.9200331048834, 513.0600056877865   921.590163826823, 502.39911410105367 885.0049353033457, 508.1911347169289 889.4805066947154, 498.5095705930162   916.0213814406258, 441.09630236702765 975.6874331465685, 378.5866735404894 1008.9531197443142, 324.7898753472143   1016.4970624899365, 312.58991776403417 986.6638666968643, 349.9028999315243 975.673180879703, 359.1199961363533   958.1903212430141, 373.7816106968633 919.0913255819274, 426.440713369552 914.3577879810974, 404.12016354705315   908.6939722169783, 377.41297484186424 997.1243262408019, 334.5163950237622 969.9340981178658, 332.05789300685296   909.4481124984892, 326.5888356319889 830.1454438558033, 363.25221372876234 776.4618513520568, 391.6518077541825   757.1463974995139, 401.87003314196136 748.5569415278817, 473.87292752701137 739.0950588542222, 454.1759312109467   711.9098088476325, 397.58383556789204 739.6776228583062, 301.04906971388255 707.1445976542399, 247.35265104126506   694.721391696601, 226.8478973587162 650.0680208341206, 265.69557880757924 637.128927238736, 285.8787605879079   618.7621717065992, 314.52833815586064 608.3154603902157, 362.5310160126156 611.5899946732535, 396.4045075484556   614.879945338557, 430.43747418794476 647.1397735706626, 468.09167592439536 657.8813069573441, 500.55220663736304   658.9574013938211, 503.8041256369935 649.46984399772, 503.94124662513053 646.5711416960888, 502.1162859727075   617.0966717716067, 483.5597933542905 583.9329314767476, 449.03220209232336 552.4356284909159, 434.1658743599854   537.3542469408764, 427.04765344817673 579.6738187565841, 462.07424100584257 589.8030603457022, 475.32247119845556   609.5614245974336, 501.1648164059829 682.5825882119311, 574.978081460873 651.879185941383, 564.2300187171963   591.6255290088882, 543.1375651988567 541.7471447969946, 457.2205120114591 481.1052744785164, 437.2716189735245   460.5863466331263, 430.5216639557938 432.7946827817903, 471.67518627665726 435.62300652776435, 493.0898746342699   439.46086154730665, 522.1482415635103 491.2069233440565, 539.5590820725586 498.3686381419243, 567.9813912837997   501.86463808635153, 581.8557767106776 438.23449782252993, 553.0674448551049 451.84659501734103, 557.4755506324215   493.598825452812, 570.996483194423 573.7087822477114, 558.6420384412008 592.2959523612174, 598.3985658405406   608.6448410894303, 633.3675814950357 550.1970758079178, 680.2212050759967 521.0846880702263, 705.5705068159286   480.0611051165415, 741.2913550031665 310.6232199719315, 804.9764721306387 364.40585510905225, 796.8314422791959   452.9944898369016, 783.4152704512953 553.9268511918167, 702.413463675101 642.2287255322952, 687.2240312492856   671.7610476487981, 682.1439668167191 583.2318090564133, 732.0044257297207 574.5453193003635, 760.6838608697292   567.9959676314685, 782.3072912394438 648.8872085360358, 697.4552859301914 633.9860210974681, 714.4382586133652   599.8563895632586, 753.336004341472 463.6565983723747, 811.1756635336474 509.94721445667415, 834.3067083419855   557.1362394636758, 857.8866807906339 653.4798057172952, 667.0636711898673 642.3886108569645, 718.6369644564468   625.5721064469842, 796.8325533516169 529.540675990937, 867.6548696675087 488.0675126454597, 936.0458169145875   484.2805938055185, 942.2906013901279 490.9535145357593, 963.2162140428625 496.7593467987225, 958.7855934113268   520.9348043274069, 940.3365104802372 539.8107368225814, 902.1823933406052 561.0114886195324, 880.3798813072747   571.6974622072845, 869.3905980042022 539.5779689839849, 909.1222283916383 532.0617614979429, 922.4811581414383   529.3196820480869, 927.3547924586155 521.6925777778189, 941.4495058926607 527.1992685235439, 940.4760233823722   547.4398978217428, 936.8978492068338 572.2131242966346, 923.1791451703452 589.6525616203689, 912.3001548380976   595.2971433866697, 908.7789775589663 598.341608941346, 899.4353576194579 601.9493983910204, 893.8457379513281   618.2399823531313, 868.6064134868275 651.9591350593126, 779.7695168481434 655.978905879559, 809.5394356892089   663.9457228849968, 868.5406838397122 597.9997801129159, 947.6182968517642 616.8363481080211, 1004.096621567368   632.3752125281118, 1050.687329102715 652.2739961420585, 895.0916839719738 669.1263339985638, 848.9598181428053   680.0686906383986, 819.0060317505563 703.6931505342463, 719.2335529095808 709.4402055415899, 750.6013046111036   719.2732196308976, 804.2704523810237 674.2809616460019, 877.0315640784834 684.1028958110549, 930.7027406790332   687.3001645747664, 948.1739610693259 720.6281894197485, 910.202608797061 737.8592231182852, 905.8947616371125   745.3013196604566, 904.0341991767201 762.3921506022366, 918.6526061654538 762.9150330628221, 910.9993005042095   766.2478797379005, 862.2172199236664 750.6164980478204, 797.4972289855924 748.602846675713, 748.6429102319983   748.3440110106103, 742.363153833805 754.7779593904515, 761.9567193236968 757.0139818092491, 767.8306056066285   784.877382131766, 841.0259562320838 794.2283596976243, 956.1252978924219 848.9244343439652, 1012.1812328948647   892.8318414879832, 1057.1802712519166 814.2954608569354, 869.5982362452572 797.2614284085682, 809.0786890417467   789.8030394938164, 782.5800709748466 752.4098128597377, 699.206355194904 767.3426290346048, 722.3324297806774   797.9651196552869, 769.7567062067111 824.1883042829751, 841.1821090477456 850.3066091725589, 891.2284183626327   862.2507990222114, 914.1151494218844 868.6022973293735, 961.4697773053797 894.1349524304106, 965.2841780754279   913.9658929438756, 968.24678241352 911.1032939464136, 919.330092734336 907.0150982038014, 899.7002715002352   901.9669197430076, 875.4610112049585 873.8315071182083, 851.6619023376381 865.6077144795303, 828.3082071253119   854.2102316465235, 795.9419556931077 808.1185700856231, 716.064043696452 842.4321453309576, 716.2994169832024   906.3209382154641, 716.73766088697 962.2193159598538, 809.3725784589992 1022.8937630966273, 829.3871076467032   1037.7371730439768, 834.2834664213714 1037.1905376339548, 794.1933796649524 1049.5452106243831, 784.6192894515209   1054.848136783385, 780.5098570545013 1063.9553329880123, 794.1454285273163 1070.4649033781134, 792.5224824993105   1081.5567905274245, 789.7570873790062 1111.751145924928, 777.8163013744613 1102.234526119023, 771.4829516940545   1058.70887970148, 742.5164547182063 988.5039553205431, 727.2469204422007 940.6692270337799, 706.1429252553096   930.360192475249, 701.5947272515398 898.5012839986272, 690.6005076167398 908.8611926475935, 686.1694139147795   936.1653663244107, 674.4909951066517 981.3142084603151, 691.6200086658532 1007.4763548868856, 677.5684799096463   1023.6744884696849, 668.868561480766 1025.6826798718455, 638.5226899465545 1030.5735109670159, 620.7984725185861   Z " style="fill : none; stroke : black; stroke-width : 1; stroke-dasharray : none;" /></svg>