<?xml version="1.0" encoding="utf-8" ?>
<svg baseProfile="full" height="100%" version="1.1" viewBox="0,0,1261,1261" width="100%" xmlns="http://www.w3.org/2000/svg" xmlns:ev="http://www.w3.org/2001/xml-events" xmlns:xlink="http://www.w3.org/1999/xlink"><defs /><path d=" M 1036.1337576259978, 413.8327251998977   C  1023.7624752337822, 374.90158629188244 962.3207147171161, 476.3518536120941 924.5112803696595, 491.81564612973   897.3372306833216, 502.92964118059024 852.9047413358462, 513.0972766200873 826.9416271982593, 499.390834097509   796.3218884936456, 483.2260671752093 774.8707701225396, 436.56185870188096 760.327275070492, 405.13965572910774   748.491291947474, 379.5672150783011 752.7613632990242, 287.75257248229553 740.7944285977827, 313.2639952412013   710.3234448128508, 378.2228312860342 749.310316811742, 502.6639170355353 693.4546970304949, 547.7003575251413   654.6404572811512, 578.9963167404665 596.2473287884077, 464.84632226158595 546.6358203555368, 469.81426967898324   494.26183857039337, 475.0588428791789 378.07820377843996, 532.5410735594153 407.23878739471456, 576.3611588998275   447.63824583420734, 637.0700850249204 584.5949303247518, 581.0622475421158 646.4104632959564, 619.7472554515398   684.3823292292468, 643.5105696762864 537.1794536689624, 611.8323623611884 497.68090836732574, 632.9610779978374   466.76299517531055, 649.4998084985178 581.7767030192325, 624.2125773482916 614.4954427748062, 636.8193624868654   631.2591977874532, 643.2785677966949 566.1377212623855, 640.2108522708937 557.8105993514928, 656.1295160351582   519.9618436224163, 728.483640640781 468.8855570009145, 832.0013546996067 469.68250044146544, 913.6531307907479   470.07372087991473, 953.7360802412887 524.9349012919996, 1027.8582316320972 561.2736265899597, 1010.9380385538412   640.645777600168, 973.9804372863966 659.8715425711675, 800.7251878802939 746.0010137484871, 784.9925198883095   813.9936720587281, 772.5727766289414 848.5421695420765, 979.9457463560943 909.4821031894552, 947.333231982393   968.452882605582, 915.7745269390782 816.134827181255, 800.7610885340811 835.9217404176683, 736.870692123266   850.0062437508244, 691.3929316230182 963.2640842016218, 733.1593067898656 988.3445889791948, 692.6924287985782   1033.058367474368, 620.5476679598086 1061.8389250650532, 494.7242134463678 1036.1337576259978, 413.8327251998977   Z " style="fill : none; stroke : black; stroke-width : 1; stroke-dasharray : none;" /></svg>