<?xml version="1.0" encoding="utf-8" ?>
<svg baseProfile="full" height="100%" version="1.1" viewBox="0,0,1261,1261" width="100%" xmlns="http://www.w3.org/2000/svg" xmlns:ev="http://www.w3.org/2001/xml-events" xmlns:xlink="http://www.w3.org/1999/xlink"><defs /><path d=" M 1068.8725239973198, 611.3275412403932   C  994.6253313026401, 608.3410216222214 892.6411717896664, 642.8238937000722 821.3991083739185, 621.7020253467001   789.5056968121647, 612.2462571102292 898.7267084068427, 593.8929924460048 917.5454189178537, 566.4620356874076   931.2048154941787, 546.5515154307478 821.1530119717312, 605.69380111644 841.403195883191, 592.5432124120423   889.2181131002302, 561.4919235444745 973.9573967642674, 549.6955774204806 1010.6095896034723, 506.0256151021183   1031.9734771233966, 480.5711991259236 933.9024381371023, 517.3953583214904 900.9389041115625, 521.6082441732798   884.3967178235207, 523.7224089505321 862.2287356471026, 525.5758186463678 845.6228679412785, 527.1116498969685   837.2855630175737, 527.8827444085262 821.7193621529353, 536.695996839573 817.798982294506, 529.2976279718963   812.7080951059392, 519.6903290251463 839.2589896218631, 493.79698908394516 828.4194125148683, 494.6460435936517   811.0262233126415, 496.00843675572446 786.5373440658815, 549.1922066777523 783.8135467641437, 531.9596771474841   770.8980309870299, 450.24764707617214 835.5812721337624, 325.8143254178098 790.7448370997387, 256.2919513242589   755.2785943635719, 201.298787989007 757.2096835437347, 405.25334598155325 743.3415566357775, 469.2047137816495   738.8741461128428, 489.8056943872054 741.4174924422118, 520.6441955202567 729.6292706602195, 538.1197780830637   722.4696934719085, 548.733574174027 726.7917917443926, 508.381463356541 725.5073488100634, 495.6432366618875   723.1832230964966, 472.5941471188423 739.2350209564111, 410.54543141484595 717.6007554163281, 418.82918923584464   694.3591040212518, 427.7284149183704 712.6289120494777, 476.6865299781392 710.3034604891835, 501.4648037751474   709.9105768407909, 505.65107829337893 710.2258779858095, 519.2211327202932 708.5404487989607, 515.369044928032   685.8182096277415, 463.4368363207161 664.0288672915383, 390.58048518646603 639.4403286018511, 339.5054598913805   632.5749801559242, 325.2448383082704 603.4823855502877, 283.98641437479296 604.7434976636182, 299.76323070313583   610.801146561689, 375.54587765120675 647.3520581837575, 472.3999613481199 656.0997931805018, 547.9193748856667   656.9453596762406, 555.2191714488864 641.7344699339831, 562.9440127017679 634.9124311784698, 560.2123831914963   583.0462159880307, 539.444502931977 525.6311901367717, 479.81012650846236 470.1245203530888, 473.45255321514844   421.2945059293045, 467.85970470122004 570.7419881581395, 528.9486430870828 610.7843417830903, 557.4488216707537   616.597059240715, 561.5860281684131 626.4326443736117, 580.2516271738774 619.3237457370459, 579.6452262986445   541.2636301535381, 572.986568631599 440.0939477033661, 539.4111444398445 361.8157201974656, 536.2113842344564   321.47068600061925, 534.5622100129482 454.2584770531746, 557.3896639786662 490.8817263544987, 574.3949328848215   516.5969747126618, 586.3352910360388 378.1088099232846, 533.9172383873271 398.74535984904867, 553.3589193347863   429.6114360348974, 582.4378306578484 537.6518456432391, 568.34003769161 528.377661833948, 609.7198305562027   519.177663219983, 650.7686220001491 347.2986771296885, 590.6285250437436 388.5898797993333, 598.670902528038   448.65882333245355, 610.3706615019094 530.7360093104849, 612.8291082993248 591.2479415919818, 621.9652118884595   605.9722509175914, 624.1882910433515 624.6719721875627, 631.5222752391359 638.7287716409276, 636.4369222430447   639.3059783315474, 636.6387297129529 638.3502855559029, 638.1400713239216 637.7442794392119, 638.221621340109   591.2813787076998, 644.4741164922362 528.6936189531923, 648.5723720455162 482.658062646231, 657.4392991074875   434.87252741867906, 666.643290314951 347.206083982061, 654.682317408732 325.6831101110764, 698.3278489884892   307.4108454374255, 735.3814043952837 437.9167908576308, 663.9928804189452 463.38442192292194, 696.523502800181   490.28736290588915, 730.8874925964016 392.65439013533927, 835.795312339249 436.1455075645158, 839.425013843415   513.5024048997873, 845.881101044961 590.97655408959, 681.6880715495528 661.9643701410604, 713.0966786427732   720.2586991543448, 738.8890438341974 571.2508385489458, 830.9987439319077 533.9763972515019, 882.7103569723095   519.2595163346352, 903.1273940799018 499.7591823489053, 930.7398159790664 488.7649832135454, 953.3798153948369   485.98416711812854, 959.1062602227386 500.81493489276517, 944.6864777685529 505.80171573705815, 940.7295692107866   531.7761049633696, 920.1194228615707 568.0595175333951, 894.4819562013429 591.9587078042209, 871.4977065373907   607.4220132115357, 856.6263879661702 634.516793242625, 793.9299265960218 636.2064200869617, 815.3171912947512   639.686768874692, 859.3713805475937 597.2551751593975, 913.6217511282481 598.775697741501, 957.7870364719072   599.213362163545, 970.4994909345027 635.4751534705504, 965.0552838650776 640.9665924969371, 953.5817427364912   669.9648363640375, 892.9942460771913 670.7961641996696, 797.2198647545326 703.6629831985289, 738.6407293246483   718.8775316110157, 711.5235601215522 701.0582707558331, 811.2817024621277 703.4107540635248, 842.286366164098   704.029472777949, 850.4407983779696 709.9353356999401, 807.5513185782784 709.5112462952729, 815.7181861390421   706.1686218406279, 880.0885074109888 651.9856971688228, 980.8201038168902 693.6636842992147, 1029.9897772717475   727.3360921829496, 1069.71485552234 729.6718193788494, 913.4452288848887 752.7981442808396, 866.7859748056397   760.0327510893757, 852.1895631979353 791.2127975651056, 846.2470984965794 792.7718538031181, 830.0309302949863   795.6578470528203, 800.0129291319927 750.8169838271141, 706.9777451696443 765.6374271120869, 733.2411000904407   788.0320118082785, 772.926615217797 784.174737089905, 905.598976213806 818.50728770292, 875.6367749755243   853.716748485857, 844.9092895241572 728.0640036173302, 738.395105577193 773.2763787192903, 726.5745460122314   819.4725078245651, 714.4967886608842 815.5475152055712, 831.0215133633496 844.7961752410629, 868.7636708676243   850.4346513935769, 876.0395000773744 859.0689289372691, 843.8569289146712 867.3229973479804, 847.9312949614593   909.5210442500879, 868.7610580532704 952.8035609009002, 917.3106788741708 992.9348614263833, 941.8877598836557   1003.0748771975641, 948.0976754802737 958.4783938386541, 915.6465038621755 969.07010525433, 910.242929041378   986.2553679757149, 901.4755212745249 1036.3601041744585, 940.6553129317006 1032.3337024479424, 921.7876479227492   1022.5919530759581, 876.1379397624047 921.8778528866027, 834.5897301692563 944.1743224363845, 793.581621439801   964.3395591006797, 756.4933184760383 1055.5957250164215, 875.0724415316091 1077.3907508736943, 838.9178313921028   1098.730713671425, 803.5181011786116 998.3325563207866, 783.6719932995431 964.2166308028302, 760.3345012009961   921.1454580106786, 730.8710427295871 830.0662900064559, 714.1430677640016 820.1053854662156, 662.9180573537728   812.7768839408768, 625.2304592636307 909.4760073461649, 669.657453886683 947.5481186290285, 674.6149055381097   997.300008159313, 681.0932062837929 1064.601325183643, 715.3211756557591 1112.6906914878193, 701.0162205405584   1135.8060307842456, 694.1401912534081 1069.6065098599765, 663.0275642114519 1058.5474716939123, 641.596363489416   1055.6768176742626, 636.0333514467036 1075.0484007778534, 637.9109085884297 1077.0694195304143, 631.9861097994672   1079.2220264075568, 625.6755485527461 1075.5347372815856, 611.595522155924 1068.8725239973198, 611.3275412403932   Z " style="fill : none; stroke : black; stroke-width : 1; stroke-dasharray : none;" /></svg>