<?xml version="1.0" encoding="utf-8" ?>
<svg baseProfile="full" height="100%" version="1.1" viewBox="0,0,1260.0,1260.0" width="100%" xmlns="http://www.w3.org/2000/svg" xmlns:ev="http://www.w3.org/2001/xml-events" xmlns:xlink="http://www.w3.org/1999/xlink"><defs /><path d=" M 952.0539931128677, 613.1666283238098   C  952.5360234949152, 540.2992056553761 1102.890732031892, 467.3058742937276 1071.38143210735, 401.60155436044874   1039.2825669918407, 334.66785199018716 902.206956812994, 362.4707404548756 828.3333963669024, 355.1800119787853   820.9161356614491, 354.44798778077336 818.7409888812219, 369.71919423618675 815.2946226913075, 376.32783826383354   802.6638023294574, 400.54830438635327 802.0726300872677, 456.7289208522144 774.7804483686064, 457.8714703001675   714.1683586340475, 460.4089116223522 643.3164142769318, 405.19897444577214 585.7908535081056, 385.9356962022897   546.9083932317403, 372.9153337567198 460.4655203815085, 309.92926415315014 453.8117564342099, 350.39039340939746   443.3932058466141, 413.74495863388364 570.4676863027898, 471.98920244010395 561.191784472785, 535.5211217906956   555.3085542096555, 575.8161699108741 474.2265835884629, 490.0405222314318 433.50860285349313, 489.4494670706048   420.14198472862216, 489.25543955541605 427.56446940634, 520.2120671667187 427.321139970964, 533.5778786856149   426.6970829248658, 567.856628571751 411.17760831791577, 619.5768133039609 430.6255642155571, 647.8115286798321   447.3026920578442, 672.0235312364146 540.5220707445911, 650.226582128623 524.7643201661538, 675.046754520766   490.99352728032665, 728.2394292666497 287.0369543280815, 757.758717217268 344.6999402547468, 783.1537394220231   437.933891474678, 824.2143647680358 581.0320553367069, 757.461741354638 682.055826702126, 744.3185974007102   687.9878433306899, 743.5468448969922 699.6584918437079, 730.9425656166695 700.5476116955209, 736.858128911713   704.7263867726773, 764.6606894037118 667.426338969913, 824.897181454443 694.9954703864967, 830.4096694582261   736.8760017621919, 838.7837427401181 778.0066254362121, 772.3907221248452 819.0423756737842, 760.5513296539161   891.9978778335303, 739.5026387445904 1018.3866212437147, 778.7990382623034 1069.259101823272, 722.4293353709486   1101.465496342622, 686.742754540309 951.7360047931709, 661.2361902392915 952.0539931128677, 613.1666283238098   Z " style="fill : none; stroke : black; stroke-width : 1; stroke-dasharray : none;" /></svg>